<?xml version="1.0" standalone="no"?>
<!DOCTYPE svg PUBLIC "-//W3C//DTD SVG 1.1//EN" "http://www.w3.org/Graphics/SVG/1.1/DTD/svg11.dtd" >
<svg>
<metadata>
Created by FontForge 20110222 at Tue Jun  3 03:41:37 2014
 By Orthosie Webhosting
Font software Copyright 2001 Adobe Systems Incorporated. Typeface designs Copyright The Monotype Corporation. All Rights Reserved.
</metadata>
<defs>
<font id="GillSansMTStdMedium" horiz-adv-x="500" >
  <font-face 
    font-family="GillSansMTStdMedium"
    font-weight="500"
    font-stretch="normal"
    units-per-em="1000"
    panose-1="0 0 0 0 0 0 0 0 0 0"
    ascent="682"
    descent="-318"
    x-height="449"
    cap-height="682"
    bbox="-162 -234 1041 931"
    underline-thickness="50"
    underline-position="-50"
    unicode-range="U+000D-FB04"
  />
<missing-glyph 
d="M250 290l-162 -242h323zM278 333l162 -243v485zM60 91l7 10t18 27t25.5 39t29.5 45q35 54 81 121l-161 242v-484zM250 375l161 243h-323zM12 665h475v-665h-475v665z" />
    <glyph glyph-name=".notdef" 
d="M250 290l-162 -242h323zM278 333l162 -243v485zM60 91l7 10t18 27t25.5 39t29.5 45q35 54 81 121l-161 242v-484zM250 375l161 243h-323zM12 665h475v-665h-475v665z" />
    <glyph glyph-name=".null" horiz-adv-x="0" 
 />
    <glyph glyph-name=".null" horiz-adv-x="0" 
 />
    <glyph glyph-name="nonmarkingreturn" unicode="&#xd;" horiz-adv-x="278" 
 />
    <glyph glyph-name="space" unicode=" " horiz-adv-x="278" 
 />
    <glyph glyph-name="exclam" unicode="!" horiz-adv-x="271" 
d="M136 691q20 0 31 -16.5t16.5 -39t6.5 -46t1 -37.5q0 -46 -4 -90.5t-9 -84t-11 -73.5t-10 -58q-1 -3 -3 -11.5t-4.5 -16.5t-6 -14.5t-6.5 -6.5q-6 0 -13 18t-13 47.5t-12 66.5t-10 76t-6.5 76.5t-2.5 66.5q0 10 1 34t6 48t16.5 42.5t32.5 18.5zM196 52q0 -23 -15.5 -42
t-44.5 -19q-23 0 -42.5 16t-19.5 44q0 24 16 43t45 19t45 -19.5t16 -41.5z" />
    <glyph glyph-name="quotedbl" unicode="&#x22;" horiz-adv-x="354" 
d="M208 563v119h100v-119l-23 -134h-54zM46 563v119h100v-119l-23 -134h-54z" />
    <glyph glyph-name="numbersign" unicode="#" horiz-adv-x="667" 
d="M254 341l-36 -170h195l35 170h-194zM196 410l41 195h72l-40 -195h194l41 195h70l-40 -195h91v-69h-106l-35 -170h141v-71h-155l-41 -193h-71l40 193h-194l-40 -193h-72l40 193h-90v71h105l35 170h-140v69h154z" />
    <glyph glyph-name="dollar" unicode="$" horiz-adv-x="542" 
d="M321 82q44 11 63.5 32.5t19.5 53.5q0 19 -6 33t-17.5 24.5t-26.5 19.5t-33 18v-181zM239 567q-23 -2 -40 -11t-28 -21.5t-16.5 -26t-5.5 -24.5q0 -33 23.5 -52.5t66.5 -36.5v172zM470 484q-32 33 -72.5 54t-76.5 29v-198q45 -12 79 -32t56.5 -45t34 -53.5t11.5 -58.5
q0 -26 -8 -55.5t-28.5 -56t-55.5 -47.5t-89 -31v-108h-82v108q-52 5 -100.5 26t-87.5 45v123q33 -30 60.5 -48.5t51 -29.5t42.5 -16.5t34 -8.5v215q-56 16 -92 37.5t-57 45.5t-29.5 49.5t-8.5 49.5q0 27 11 55.5t33.5 54t58 43.5t84.5 24v36h82v-36q48 -8 86 -23t63 -36
v-112z" />
    <glyph glyph-name="percent" unicode="%" horiz-adv-x="708" 
d="M181 -9h-75l449 701h75zM208 458q33 0 56 23t23 56t-23 56t-56 23t-56 -23t-23 -56t23 -56t56 -23zM209 690q31 0 59 -12t48.5 -32.5t32.5 -48.5t12 -59q0 -32 -12 -59.5t-32.5 -48t-48.5 -32.5t-59 -12q-32 0 -59.5 12t-48 32.5t-32.5 48t-12 59.5q0 31 12 59t32.5 48.5
t48 32.5t59.5 12zM530 65q33 0 56 23t23 56t-23 56t-56 23t-56 -23t-23 -56t23 -56t56 -23zM531 297q31 0 59 -12t48.5 -32.5t32.5 -48.5t12 -59q0 -32 -12 -59.5t-32.5 -48t-48.5 -32.5t-59 -12q-32 0 -59.5 12t-48 32.5t-32.5 48t-12 59.5q0 31 12 59t32.5 48.5t48 32.5
t59.5 12z" />
    <glyph glyph-name="ampersand" unicode="&#x26;" horiz-adv-x="625" 
d="M271 405q48 29 68.5 56t20.5 55q0 29 -21.5 49.5t-55.5 20.5q-32 0 -53.5 -18.5t-21.5 -46.5q0 -21 9 -40.5t20 -35.5t21 -27t13 -13zM356 161l-111 128l-43 -30q-32 -22 -54 -47t-22 -57q0 -26 23 -48.5t61 -22.5q32 0 66.5 17.5t57.5 39.5zM620 0h-125l-79 93
q-16 -14 -25.5 -22t-15.5 -12.5l-10 -7.5t-9 -6q-31 -19 -73.5 -36.5t-84.5 -17.5q-32 0 -62.5 11t-54.5 32t-38.5 50.5t-14.5 66.5q0 25 8 50t26.5 50t49.5 51t77 52q-10 10 -23 26.5t-25 37t-20.5 44.5t-8.5 50q0 25 9 52.5t29 51t52.5 38.5t79.5 15q46 0 78.5 -14.5
t52.5 -36.5t29.5 -49t9.5 -51q0 -34 -14 -62t-33.5 -50.5t-41.5 -39t-37 -27.5l96 -110q11 12 30 36.5t43 73.5h98q-25 -66 -58 -111t-53 -68z" />
    <glyph glyph-name="quotesingle" unicode="'" horiz-adv-x="187" 
d="M44 563v119h100v-119l-23 -134h-55z" />
    <glyph glyph-name="parenleft" unicode="(" horiz-adv-x="323" 
d="M256 -230q-29 36 -50 63.5t-38 53t-31 52t-27 60.5q-26 66 -36 123.5t-10 107.5q0 82 18.5 150t47 124.5t62.5 102.5t64 84h55q-23 -35 -48.5 -76.5t-46.5 -96.5t-35 -126t-14 -165q0 -124 34.5 -241t109.5 -216h-55z" />
    <glyph glyph-name="parenright" unicode=")" horiz-adv-x="323" 
d="M67 691q28 -36 49.5 -63.5t38.5 -53t30.5 -52t27.5 -60.5q26 -66 36 -123.5t10 -107.5q0 -82 -18.5 -150t-47 -124.5t-62.5 -102.5t-64 -84h-55q23 35 48.5 76.5t46.5 96.5t35 126t14 164q0 125 -34.5 242t-109.5 216h55z" />
    <glyph glyph-name="asterisk" unicode="*" horiz-adv-x="417" 
d="M321 608q1 1 5.5 5t11.5 8.5t14.5 8t14.5 3.5q13 0 22.5 -9.5t9.5 -25.5q0 -18 -11.5 -27t-37.5 -19l-107 -39q1 -3 1.5 -5.5t0.5 -6.5q0 -5 -2 -11l101 -35q3 -1 12 -5t18.5 -10t17 -15t7.5 -21q0 -8 -8 -21t-25 -13q-8 0 -17 4.5t-17 10.5t-14 11.5t-8 7.5l-73 72
q-3 -4 -9 -7t-11 -3l20 -103q0 -4 2 -18t2 -28t-3.5 -22.5t-9 -13t-11.5 -5.5t-11 -1q-17 0 -24.5 14t-7.5 29q0 6 1 14.5t3 13.5q0 2 2 7.5t3 9.5l19 103q-9 0 -19 10l-78 -72q-20 -18 -32 -25.5t-23 -7.5q-19 0 -26 13t-7 20q0 11 6 19t15 14t19.5 10.5t19.5 7.5l99 35
q-1 3 -1.5 5t-0.5 7q0 6 2 11l-113 42q-44 16 -44 42q0 15 11 26t23 11q11 0 24.5 -10t20.5 -16l85 -80q5 5 8.5 7t10.5 3l-19 101q-4 20 -5.5 27t-1.5 18q0 2 0.5 8.5t3.5 14t10 13.5t20 6q12 0 19 -5.5t10 -12.5t3.5 -13.5t0.5 -7.5q0 -20 -6 -48l-20 -101q6 0 11.5 -3
t8.5 -7z" />
    <glyph glyph-name="plus" unicode="+" horiz-adv-x="583" 
d="M251 300h-196v82h196v195h82v-195h195v-82h-195v-195h-82v195z" />
    <glyph glyph-name="comma" unicode="," horiz-adv-x="219" 
d="M49 -101q25 25 32 48t9 53q-20 6 -30.5 15.5t-15 19t-5.5 18t-1 11.5q0 26 17.5 45.5t42.5 19.5q16 0 28.5 -8t21.5 -21t13.5 -30t4.5 -35q0 -4 -2 -23.5t-13 -44t-34.5 -48.5t-67.5 -38v18z" />
    <glyph glyph-name="hyphen" unicode="-" horiz-adv-x="323" 
d="M283 174h-243v95h243v-95z" />
    <glyph glyph-name="period" unicode="." horiz-adv-x="219" 
d="M109 109q23 0 41.5 -16.5t18.5 -42.5q0 -25 -17.5 -42t-42.5 -17q-24 0 -41.5 17t-17.5 42q0 26 18 42.5t41 16.5z" />
    <glyph glyph-name="slash" unicode="/" horiz-adv-x="281" 
d="M203 691h71l-196 -700h-71z" />
    <glyph glyph-name="zero" unicode="0" 
d="M250 598q-22 0 -44 -13.5t-39 -44t-28 -79t-11 -118.5q0 -79 12 -129.5t30 -79t39 -39.5t40 -11t41 11.5t40 40t30 78t12 126.5q0 87 -15 138.5t-35 78t-40.5 34t-31.5 7.5zM254 691q46 0 85.5 -25.5t68.5 -71.5t45.5 -110t16.5 -141q0 -81 -17 -146t-46.5 -111
t-70 -70.5t-86.5 -24.5q-48 0 -88 24t-69.5 69.5t-46 110.5t-16.5 146q0 87 19.5 153t51 109.5t71.5 65.5t82 22z" />
    <glyph glyph-name="one" unicode="1" 
d="M300 0h-98v682h98v-682z" />
    <glyph glyph-name="two" unicode="2" 
d="M466 0h-432v7q28 34 60 73.5t64 80.5t61 82t51 78q20 35 34.5 69t14.5 77q0 37 -12.5 62t-30.5 39t-38.5 20t-36.5 6q-42 0 -82 -24.5t-71 -67.5v124q12 10 28 21t36.5 21t45.5 16.5t55 6.5q44 0 81.5 -15.5t64.5 -43.5t42.5 -66.5t15.5 -84.5q0 -49 -16 -95t-44.5 -92.5
t-67 -95.5t-83.5 -104h260v-94z" />
    <glyph glyph-name="three" unicode="3" 
d="M64 136q35 -22 72.5 -35t77.5 -13q19 0 38 5.5t34.5 18t25.5 33t10 50.5q0 20 -6.5 40t-22.5 36t-43.5 26t-69.5 10v90q30 0 55 5.5t43 17.5t28.5 31.5t10.5 48.5q0 17 -6.5 35t-20.5 33t-36.5 24.5t-54.5 9.5q-40 0 -70 -12t-48 -21v93q35 17 67 23t63 6q42 0 79 -11
t64 -34t43 -57.5t16 -80.5q0 -37 -9.5 -62.5t-23 -42.5t-28.5 -27t-26 -16q27 -9 46 -27t30.5 -40t16.5 -46.5t5 -48.5q0 -48 -17 -86.5t-46 -65t-66.5 -41t-78.5 -14.5q-25 0 -64 6.5t-88 32.5v106z" />
    <glyph glyph-name="four" unicode="4" 
d="M300 506l-158 -198h158v198zM395 308h76v-84h-76v-224h-95v224h-289v43l344 424h40v-383z" />
    <glyph glyph-name="five" unicode="5" 
d="M404 595h-214v-172q57 3 103 -12t78 -44t49.5 -69t17.5 -88q0 -45 -15 -84.5t-44.5 -69.5t-71.5 -47.5t-96 -17.5q-45 0 -83.5 11t-77.5 31v101q27 -18 51.5 -28t44 -14.5t32 -5t16.5 -0.5q31 0 57.5 9.5t46 26t30.5 39t11 49.5q0 37 -17.5 61.5t-42.5 39t-51.5 20.5
t-45.5 6q-8 0 -19 -0.5t-22.5 -1.5t-22.5 -3t-17 -5v355h303v-87z" />
    <glyph glyph-name="six" unicode="6" 
d="M146 265q-2 -9 -3 -20.5t-1 -31.5q0 -35 11.5 -59.5t28.5 -40.5t38 -23.5t41 -7.5q21 0 40.5 7.5t34.5 22t24 35t9 47.5q0 30 -11 51t-28.5 34t-38.5 19t-40 6q-38 0 -61.5 -12.5t-43.5 -26.5zM376 616q-59 -38 -96.5 -75t-60.5 -70t-34.5 -60t-17.5 -45q40 21 69.5 24.5
t38.5 3.5q38 0 72.5 -14.5t60.5 -40.5t41.5 -62.5t15.5 -79.5q0 -44 -16 -81.5t-44 -65t-65.5 -43.5t-79.5 -16q-32 0 -69.5 12t-70 40.5t-54.5 75.5t-22 118q0 85 32.5 168.5t95.5 157.5q18 21 35 38t34.5 32t36 29t39.5 29z" />
    <glyph glyph-name="seven" unicode="7" 
d="M181 -9l-87 38l250 560h-295v93h441z" />
    <glyph glyph-name="eight" unicode="8" 
d="M369 193q0 19 -7 38t-21.5 34t-37.5 24.5t-54 9.5q-33 0 -55.5 -10.5t-36.5 -26.5t-20 -35t-6 -35q0 -20 7.5 -39t22.5 -34t37.5 -24.5t53.5 -9.5q30 0 52.5 9.5t36.5 24.5t21 34.5t7 39.5zM361 496q0 18 -7 36.5t-20.5 33t-33.5 23.5t-47 9q-45 0 -77 -27t-32 -74
q0 -26 11 -45.5t27.5 -32t35.5 -19t36 -6.5q18 0 37 7t34.5 20t25.5 32t10 43zM373 348q10 -6 26 -17.5t31.5 -30t26.5 -46.5t11 -67t-15 -74.5t-43.5 -62.5t-68.5 -43t-90 -16t-90 16.5t-69 43.5t-44.5 62.5t-15.5 74.5q0 21 8.5 55.5t41.5 69.5q14 14 25 21l22 14
q-11 9 -24.5 21.5t-26.5 30.5t-21.5 42.5t-8.5 56.5q0 42 16.5 77t45 60.5t66 40t79.5 14.5q40 0 77 -14t65 -39.5t44.5 -60.5t16.5 -77q0 -45 -19.5 -82.5t-65.5 -69.5z" />
    <glyph glyph-name="nine" unicode="9" 
d="M354 416q2 12 3.5 25.5t1.5 27.5q0 20 -6 43t-19.5 42.5t-36 32.5t-55.5 13q-31 0 -52 -11.5t-33.5 -29t-18 -37t-5.5 -34.5q0 -27 11 -47t28 -34t37 -21t38 -7q8 0 37 5t70 32zM127 63q17 11 47 33.5t61.5 55t59 74.5t40.5 93q-48 -29 -109 -29q-42 0 -77 17t-60 44.5
t-39 63t-14 73.5t14.5 74.5t41 65t64 46t84.5 17.5q51 0 92 -19.5t69.5 -53t44 -79t15.5 -97.5q0 -63 -21 -128t-58 -125t-87 -111t-108 -87z" />
    <glyph glyph-name="colon" unicode=":" horiz-adv-x="219" 
d="M113 458q23 0 41.5 -16.5t18.5 -43.5q0 -25 -18 -42.5t-42 -17.5t-41.5 17t-17.5 43q0 27 18 43.5t41 16.5zM105 111q23 0 41.5 -16.5t18.5 -43.5q0 -26 -18 -43t-42 -17t-41.5 17t-17.5 43t18 43t41 17z" />
    <glyph glyph-name="semicolon" unicode=";" horiz-adv-x="229" 
d="M61 -101q25 25 32 48t9 53q-20 6 -30.5 15.5t-15 19t-5.5 18t-1 11.5q0 26 17 45.5t43 19.5q16 0 28.5 -8t21.5 -21t13.5 -30t4.5 -35q0 -4 -2 -23.5t-13 -44t-34.5 -48.5t-67.5 -38v18zM120 458q23 0 41 -16.5t18 -43.5q0 -25 -17.5 -42.5t-41.5 -17.5t-42 17t-18 43
q0 27 18.5 43.5t41.5 16.5z" />
    <glyph glyph-name="less" unicode="&#x3c;" horiz-adv-x="583" 
d="M55 383l473 200v-87l-376 -154l376 -156v-87l-473 202v82z" />
    <glyph glyph-name="equal" unicode="=" horiz-adv-x="583" 
d="M55 409v82h473v-82h-473zM55 191v82h473v-82h-473z" />
    <glyph glyph-name="greater" unicode="&#x3e;" horiz-adv-x="583" 
d="M528 299l-473 -200v87l376 154l-376 156v87l473 -202v-82z" />
    <glyph glyph-name="question" unicode="?" horiz-adv-x="333" 
d="M214 51q0 -27 -18.5 -43.5t-42.5 -16.5q-23 0 -41 15.5t-18 43.5t18.5 44.5t41.5 16.5q9 0 19.5 -3.5t19.5 -11t15 -19t6 -26.5zM129 692q12 -1 38.5 -4t51.5 -17q20 -12 33.5 -27t22 -32t12 -34t3.5 -32q0 -29 -7 -55.5t-19 -52t-27.5 -51t-33.5 -52.5q-5 -7 -15.5 -24
t-21 -37.5t-19 -41.5t-8.5 -36q0 -6 1 -12.5t2 -8.5q-9 4 -19.5 9.5t-20 16t-16 27t-6.5 40.5q0 19 4 35.5t12 34.5t21 39t30 48q22 35 31.5 60t9.5 50q0 21 -7.5 34t-18.5 20t-22.5 9.5t-19.5 2.5q-18 0 -31.5 -5.5t-23.5 -10.5z" />
    <glyph glyph-name="at" unicode="@" horiz-adv-x="1010" 
d="M331 189q0 -34 9 -60t24 -43.5t33.5 -26.5t37.5 -9q33 0 65 20t57 54t40.5 78.5t15.5 93.5q0 35 -9 61t-25 43.5t-36.5 26.5t-42.5 9q-42 0 -73.5 -26t-52.5 -64t-32 -80.5t-11 -76.5zM658 494h88l-71 -328q-2 -9 -4.5 -21t-5 -23t-4 -19.5t-1.5 -12.5q0 -17 12.5 -24.5
t21.5 -7.5q20 0 52 18.5t62.5 54t52.5 85.5t22 113q0 69 -27.5 125.5t-75 97t-111 63t-135.5 22.5q-96 0 -171.5 -34.5t-128 -93t-80 -134.5t-27.5 -159q0 -108 37.5 -180.5t97.5 -115.5t135 -61t150 -18q80 0 139 16t100 39t66.5 48.5t38.5 43.5h88q-3 -7 -14.5 -26
t-33.5 -43t-55.5 -51t-80 -49t-108 -36.5t-139.5 -14.5q-132 0 -225.5 36.5t-153.5 97t-87.5 140t-27.5 166.5q0 47 10 102.5t33 111t60 107.5t90.5 91.5t126 63.5t165.5 24q102 0 180 -33t130.5 -86.5t79 -122t26.5 -139.5q0 -62 -17.5 -113t-44 -90.5t-56.5 -67t-55 -43.5
q-17 -11 -48 -23.5t-73 -12.5q-32 0 -50.5 8.5t-27.5 20.5t-12 26t-4 26q-9 -10 -23.5 -24t-33.5 -26.5t-42.5 -21.5t-50.5 -9q-38 0 -70.5 17t-56 47t-37 70t-13.5 85q0 55 20.5 111t55 100.5t80.5 72.5t98 28q10 0 27 -2.5t37.5 -11.5t42 -27t40.5 -49z" />
    <glyph glyph-name="A" unicode="A" horiz-adv-x="667" 
d="M436 289l-110 247l-102 -247h212zM667 0h-100l-91 201h-290l-86 -201h-100l293 686h69z" />
    <glyph glyph-name="B" unicode="B" horiz-adv-x="562" 
d="M172 302v-215h97h24t28 1t27 3t22 6q38 14 54.5 42.5t16.5 55.5q0 22 -13.5 49.5t-51.5 43.5q-20 8 -46 11t-66 3h-92zM172 595v-205h65q19 0 46.5 2.5t45.5 13.5q7 4 16 11t17.5 18t14 26.5t5.5 35.5q0 29 -12.5 51.5t-35.5 33.5q-21 10 -48 11.5t-49 1.5h-65zM254 682
q37 0 63.5 -3t50.5 -12q49 -18 82 -58.5t33 -103.5q0 -44 -22.5 -81.5t-81.5 -62.5q75 -14 119 -62t44 -113q0 -42 -15 -72t-36 -50.5t-44 -32.5t-38 -17t-29.5 -8t-31 -4.5t-37 -1.5h-47.5h-189v682h179z" />
    <glyph glyph-name="C" unicode="C" horiz-adv-x="708" 
d="M656 530q-54 31 -113.5 49.5t-122.5 18.5q-62 0 -112 -21t-85 -57t-54 -83t-19 -98q0 -48 17 -94t50.5 -82t84.5 -58.5t119 -22.5q65 0 126.5 20.5t115.5 55.5v-107q-60 -32 -121 -46t-127 -14q-95 0 -164 32t-114 82.5t-67 112.5t-22 122q0 70 27.5 134t76 112
t116.5 76.5t149 28.5q39 0 75.5 -6t67 -15t55 -18.5t41.5 -16.5v-105z" />
    <glyph glyph-name="D" unicode="D" horiz-adv-x="750" 
d="M173 595v-507h126q19 0 43 1t49 5t50 12t47 21q52 32 83 90.5t31 128.5q0 31 -7.5 63.5t-24.5 62.5t-44 55.5t-66 42.5q-42 19 -79.5 22t-84.5 3h-123zM306 682q24 0 56 -1t67 -7.5t72 -21t71 -40.5q57 -44 94 -113.5t37 -157.5q0 -65 -19.5 -114.5t-46.5 -85.5
t-54.5 -58t-43.5 -32q-31 -19 -63.5 -29.5t-64.5 -15t-62.5 -5.5t-56.5 -1h-216v682h230z" />
    <glyph glyph-name="E" unicode="E" horiz-adv-x="521" 
d="M462 595h-289v-208h279v-87h-279v-212h298v-88h-396v682h387v-87z" />
    <glyph glyph-name="F" unicode="F" horiz-adv-x="469" 
d="M440 594h-266v-189h266v-88h-266v-317h-98v682h364v-88z" />
    <glyph glyph-name="G" unicode="G" horiz-adv-x="740" 
d="M673 47q-20 -9 -45 -18.5t-56.5 -18t-68.5 -14t-80 -5.5q-99 0 -169.5 32t-116 82t-66.5 111t-21 119q0 67 24.5 131.5t72 114t116 80t156.5 30.5q72 0 128.5 -17.5t111.5 -40.5v-100q-42 24 -79.5 38.5t-69 21.5t-55.5 9t-38 2q-51 0 -99 -18.5t-84.5 -52.5t-59 -83
t-22.5 -109q0 -57 19.5 -105t55.5 -83.5t86.5 -55.5t112.5 -20q19 0 35.5 1.5t33.5 5.5t36.5 9.5t43.5 13.5v142h-131v86h229v-288z" />
    <glyph glyph-name="H" unicode="H" horiz-adv-x="729" 
d="M654 0h-99v297h-382v-297h-98v682h98v-295h382v295h99v-682z" />
    <glyph glyph-name="I" unicode="I" horiz-adv-x="250" 
d="M174 0h-98v682h98v-682z" />
    <glyph glyph-name="J" unicode="J" horiz-adv-x="250" 
d="M174 9q0 -67 -11 -113t-47 -81q-16 -15 -45.5 -30.5t-82.5 -15.5q-11 0 -17.5 1t-14.5 2l-18 91q42 -1 69 4t42.5 21.5t21 48t5.5 83.5v662h98v-673z" />
    <glyph glyph-name="K" unicode="K" horiz-adv-x="656" 
d="M287 359l369 -359h-134l-348 337v-337h-99v682h99v-312l287 312h122z" />
    <glyph glyph-name="L" unicode="L" horiz-adv-x="490" 
d="M173 89h307v-89h-406v682h99v-593z" />
    <glyph glyph-name="M" unicode="M" horiz-adv-x="781" 
d="M709 0h-98v531l-210 -264h-18l-212 264v-531h-98v682h92l227 -280l226 280h91v-682z" />
    <glyph glyph-name="N" unicode="N" horiz-adv-x="781" 
d="M710 0h-84l-456 525v-525h-92v682h79l460 -529v529h93v-682z" />
    <glyph glyph-name="O" unicode="O" horiz-adv-x="823" 
d="M414 599q-72 0 -122.5 -24.5t-83 -62.5t-47.5 -84t-15 -89q0 -58 21.5 -105.5t57.5 -81t84 -52t102 -18.5q27 0 55 5.5t54 16t49 25.5t41 34q16 18 28.5 40t21.5 45.5t13.5 48t4.5 46.5q0 42 -16 87.5t-49 83t-82.5 61.5t-116.5 24zM410 691q85 0 153 -29t116 -77
t73.5 -111t25.5 -132q0 -74 -27 -138t-76 -111t-117.5 -74.5t-152.5 -27.5q-80 0 -146.5 27.5t-114 75t-73.5 111t-26 134.5q0 68 24.5 131.5t71 112.5t114.5 78.5t155 29.5z" />
    <glyph glyph-name="P" unicode="P" horiz-adv-x="510" 
d="M168 596v-213h78q29 0 57.5 2t50.5 16q20 12 32.5 35t12.5 55q0 18 -6 38.5t-24 37.5q-11 11 -22.5 17t-26 8.5t-33.5 3t-45 0.5h-74zM246 682q30 0 57.5 -1t52 -6.5t47.5 -17t44 -33.5q23 -23 38 -55.5t15 -79.5q0 -26 -9.5 -63.5t-47.5 -74.5q-32 -31 -78 -43t-125 -12
h-72v-296h-98v682h176z" />
    <glyph glyph-name="Q" unicode="Q" horiz-adv-x="823" 
d="M411 599q-74 0 -125 -26.5t-82.5 -65.5t-45 -84.5t-13.5 -83.5q0 -55 20 -102t55.5 -81.5t84.5 -54t106 -19.5q61 0 110 21.5t83.5 57.5t53.5 82.5t19 97.5q0 39 -14 84t-45.5 83.5t-82.5 64.5t-124 26zM665 -139q-56 3 -108.5 20t-96.5 39t-77.5 44t-52.5 36
q-54 9 -105 36.5t-91.5 71t-65 102t-24.5 129.5q0 76 27 140.5t76 111.5t116.5 73.5t147.5 26.5q86 0 154 -29t115.5 -77t73 -111t25.5 -131q0 -62 -20.5 -118.5t-57.5 -102t-89.5 -77.5t-116.5 -45q46 -20 99 -38.5t101 -18.5q23 0 39.5 4t28.5 9z" />
    <glyph glyph-name="R" unicode="R" horiz-adv-x="604" 
d="M175 599v-215h38h17.5t25.5 1t28 3t24 6q35 14 50 42t15 56q0 29 -14 54.5t-38 36.5q-19 9 -45 12.5t-71 3.5h-30zM249 682q24 0 54.5 -4t62.5 -18q27 -12 47.5 -30t33.5 -40t19.5 -47t6.5 -51q0 -60 -29 -103t-85 -65q46 -31 79.5 -78t72.5 -110q11 -18 20 -32t19.5 -29
t23 -32.5t30.5 -42.5h-116q-9 12 -28.5 42.5t-41.5 64.5t-42 63.5t-28 40.5q-25 32 -44.5 49.5t-36.5 25.5t-32.5 9.5t-33.5 1.5h-26v-297h-97v682h171z" />
    <glyph glyph-name="S" unicode="S" horiz-adv-x="458" 
d="M399 532q-44 42 -84.5 56.5t-75.5 14.5q-51 0 -79.5 -23.5t-28.5 -55.5q0 -22 8.5 -38.5t28 -33.5t52 -37.5t81.5 -48.5q22 -13 45 -31.5t43 -44.5q16 -20 26.5 -48t10.5 -65q0 -40 -14 -74t-39.5 -59t-62.5 -39t-82 -14q-51 0 -97.5 16.5t-86.5 46.5v124q7 -9 22.5 -26
t38.5 -33.5t53.5 -28.5t69.5 -12q19 0 38 6t34 17.5t24.5 28t9.5 38.5q0 21 -9.5 39.5t-23.5 33.5t-29.5 26.5t-27.5 18.5q-41 24 -68 41t-46 30t-31.5 25t-23.5 26q-16 20 -25 45t-9 57q0 39 14 72t40.5 57t63.5 38t83 14q42 0 82 -12.5t75 -35.5v-111z" />
    <glyph glyph-name="T" unicode="T" horiz-adv-x="604" 
d="M587 596h-238v-596h-98v596h-234v86h570v-86z" />
    <glyph glyph-name="U" unicode="U" horiz-adv-x="708" 
d="M647 295q0 -25 -1 -54t-8.5 -59.5t-23 -60.5t-44.5 -56q-46 -41 -101 -57.5t-114 -16.5q-36 0 -73 6.5t-71 20.5t-63 37t-49 55q-14 22 -22 47.5t-11.5 50t-4 47.5t-0.5 40v387h98v-387q0 -34 2 -58t6.5 -42.5t13 -32.5t21.5 -27q22 -23 57.5 -40t95.5 -17q41 0 71 9.5
t51 23t34 29.5t20 28q10 18 14.5 47t4.5 80v387h97v-387z" />
    <glyph glyph-name="V" unicode="V" horiz-adv-x="604" 
d="M316 -4h-22l-294 686h98l205 -479l204 479h97z" />
    <glyph glyph-name="W" unicode="W" horiz-adv-x="1042" 
d="M765 -4h-21l-223 556l-225 -556h-21l-275 686h98l188 -470l189 470h93l190 -470l186 470h97z" />
    <glyph glyph-name="X" unicode="X" horiz-adv-x="708" 
d="M415 353l291 -353h-118l-232 282l-235 -282h-119l294 353l-273 329h119l214 -260l213 260h118z" />
    <glyph glyph-name="Y" unicode="Y" horiz-adv-x="604" 
d="M352 361v-361h-100v361l-252 321h118l183 -235l185 235h118z" />
    <glyph glyph-name="Z" unicode="Z" horiz-adv-x="646" 
d="M192 86h436v-86h-616l437 596h-409v86h588z" />
    <glyph glyph-name="bracketleft" unicode="[" horiz-adv-x="333" 
d="M319 601h-137v-742h137v-80h-233v903h233v-81z" />
    <glyph glyph-name="backslash" unicode="\" horiz-adv-x="281" 
d="M7 691h71l196 -700h-71z" />
    <glyph glyph-name="bracketright" unicode="]" horiz-adv-x="333" 
d="M15 -141h136v743h-136v80h232v-903h-232v80z" />
    <glyph glyph-name="asciicircum" unicode="^" horiz-adv-x="469" 
d="M26 291l173 391h71l173 -391h-89l-120 292l-118 -292h-90z" />
    <glyph glyph-name="underscore" unicode="_" 
d="M506 -75v-50h-512v50h512z" />
    <glyph glyph-name="grave" unicode="`" horiz-adv-x="333" 
d="M227 506h-55l-112 147h100z" />
    <glyph glyph-name="a" unicode="a" horiz-adv-x="427" 
d="M262 222q-29 -10 -54.5 -20t-45 -22.5t-31 -27.5t-11.5 -35q0 -28 18 -45.5t46 -17.5q21 0 40.5 10t37.5 27v131zM415 26q-31 -20 -48 -27.5t-38 -7.5q-57 0 -68 46q-58 -46 -121 -46q-25 0 -45 9t-34.5 24t-22.5 35t-8 42q0 33 14 56t35.5 38.5t49 26.5t54.5 21l79 28
v24q0 42 -20 60.5t-61 18.5q-37 0 -73.5 -18t-68.5 -56v97q52 61 149 61q34 0 64 -9t52 -27t34.5 -46t12.5 -66v-231q0 -23 17 -23q15 0 47 24v-54z" />
    <glyph glyph-name="b" unicode="b" 
d="M148 89q27 -8 55 -11t39 -3q20 0 43 7.5t43 25.5t33.5 46.5t13.5 70.5q0 38 -10.5 66.5t-28.5 47t-40.5 28t-46.5 9.5q-38 0 -62.5 -16t-38.5 -28v-243zM148 417l16.5 11t26 13.5t36 11.5t45.5 5q45 0 81 -18t60.5 -49t38 -73t13.5 -89q0 -59 -19 -104t-51 -75t-74 -45
t-88 -15q-21 0 -45 2.5t-47.5 7t-44.5 11t-37 14.5v657h89v-265z" />
    <glyph glyph-name="c" unicode="c" horiz-adv-x="437" 
d="M390 332q-19 12 -50 27.5t-75 15.5q-35 0 -60.5 -13.5t-42.5 -35t-25.5 -48t-8.5 -53.5q0 -28 8.5 -55t27 -48t48 -34t70.5 -13q35 0 64 9.5t54 20.5v-88q-15 -5 -49 -15.5t-82 -10.5q-58 0 -101.5 19t-72 50.5t-43 73.5t-14.5 88q0 41 12 83t39 76t69 55.5t102 21.5
q44 0 74 -10t56 -21v-95z" />
    <glyph glyph-name="d" unicode="d" horiz-adv-x="510" 
d="M362 361q-13 7 -32 14t-51 7q-28 0 -54 -9.5t-46.5 -29t-32.5 -50t-12 -72.5q0 -57 20 -88t46 -44q18 -9 38.5 -11.5t55.5 -2.5h68v286zM452 0h-190q-66 0 -108.5 24t-66.5 59.5t-33.5 75.5t-9.5 73q0 55 18.5 97t49.5 70.5t71 43.5t82 15q34 0 58.5 -6.5t38.5 -11.5v242
h90v-682z" />
    <glyph glyph-name="e" unicode="e" horiz-adv-x="479" 
d="M358 270q0 7 -3 25t-14 37t-32.5 34t-59.5 15q-21 0 -44.5 -9t-41.5 -29t-23.5 -39t-7.5 -34h226zM438 44q-12 -8 -27.5 -17t-37 -17t-49 -13.5t-62.5 -5.5q-18 0 -36.5 2t-38 8.5t-40 19t-40.5 33.5q-22 23 -35.5 47t-20.5 46.5t-9 43t-2 36.5q0 52 15.5 95t43.5 73
t66.5 46.5t84.5 16.5q39 0 72 -13.5t57.5 -36.5t40 -55t21.5 -69q4 -23 4.5 -38.5t0.5 -28.5h-316q1 -25 10 -50t27 -45.5t44.5 -33t63.5 -12.5q44 0 85.5 14.5t77.5 40.5v-87z" />
    <glyph glyph-name="f" unicode="f" horiz-adv-x="260" 
d="M296 595q-8 3 -16.5 5.5t-24.5 2.5q-35 0 -54 -12.5t-27.5 -31.5t-10 -41.5t-1.5 -41.5v-27h80v-80h-80v-369h-90v369h-63v80h63v27q0 55 7.5 83t15.5 43q20 40 56 64.5t79 24.5q20 0 36 -2.5t30 -6.5v-87z" />
    <glyph glyph-name="g" unicode="g" horiz-adv-x="427" 
d="M333 -94q0 21 -15 35t-37.5 22.5t-48 11.5t-46.5 3q-45 0 -73.5 -19t-28.5 -49q0 -34 32 -51.5t93 -17.5q59 0 91.5 17t32.5 48zM296 293q0 16 -7 30.5t-19 25t-27.5 17t-33.5 6.5q-37 0 -63 -24t-26 -57q0 -37 24.5 -59.5t65.5 -22.5q38 0 62 23.5t24 60.5zM421 380h-92
q26 -26 36.5 -47.5t10.5 -50.5q0 -28 -13.5 -56t-28.5 -45q-23 -24 -54 -33t-59.5 -14t-48.5 -11.5t-20 -26.5q0 -19 34.5 -31.5t102.5 -26.5q72 -14 101 -48t29 -77q0 -67 -56 -105t-156 -38q-45 0 -83 10t-65.5 28t-43 43t-15.5 55q0 50 27 80t86 44q-45 28 -45 57
q0 22 19.5 39t51.5 25v2q-50 21 -75 57q-24 34 -24 84q0 72 52.5 113.5t143.5 41.5h185v-69z" />
    <glyph glyph-name="h" unicode="h" 
d="M150 390q26 32 62 50t76 18q51 0 85.5 -25.5t48.5 -59.5q9 -23 13 -53.5t4 -63.5v-256h-89v278q0 27 -5.5 43.5t-10.5 25.5q-12 20 -31.5 30.5t-39.5 10.5q-32 0 -58 -16.5t-55 -49.5v-322h-89v682h89v-292z" />
    <glyph glyph-name="i" unicode="i" horiz-adv-x="219" 
d="M154 0h-89v449h89v-449zM109 638q23 0 38 -15.5t15 -36.5t-15.5 -37t-37.5 -16q-26 0 -39 18t-13 35q0 19 14.5 35.5t37.5 16.5z" />
    <glyph glyph-name="j" unicode="j" horiz-adv-x="219" 
d="M151 -27q0 -30 -1.5 -58.5t-10 -54.5t-26.5 -49t-52 -41l-67 65q24 8 36 22t17 20q6 9 8.5 18t4 20t1.5 26v37v471h90v-476zM104 638q18 0 35.5 -13t17.5 -39q0 -20 -13.5 -36.5t-38.5 -16.5q-13 0 -23 5.5t-16.5 13.5t-10 17t-3.5 17q0 19 14.5 35.5t37.5 16.5z" />
    <glyph glyph-name="k" unicode="k" horiz-adv-x="479" 
d="M152 0h-90v682h90v-682zM269 229l231 -229h-119l-225 229l199 220h106z" />
    <glyph glyph-name="l" unicode="l" horiz-adv-x="219" 
d="M154 0h-89v682h89v-682z" />
    <glyph glyph-name="m" unicode="m" horiz-adv-x="771" 
d="M147 449v-59q39 39 69 53.5t65 14.5q41 0 75.5 -21t56.5 -60q22 22 40.5 37t35.5 25t34.5 14.5t37.5 4.5q73 0 111.5 -46t38.5 -132v-280h-88v274q0 54 -24.5 81t-68.5 27q-26 0 -53.5 -15.5t-47.5 -40.5v-326h-88v269q0 22 -3.5 43t-13 36.5t-27 25t-45.5 9.5
q-32 0 -57 -15.5t-48 -41.5v-326h-88v449h88z" />
    <glyph glyph-name="n" unicode="n" 
d="M152 449v-57q30 34 66.5 50t68.5 16q10 0 26 -2.5t34 -10t35.5 -22t31.5 -37.5q5 -8 9.5 -18t8 -24.5t5.5 -35.5t2 -52v-256h-90v256q0 36 -3 58t-21 42q-13 14 -28.5 21t-38.5 7q-31 0 -58.5 -17t-47.5 -46v-321h-91v449h91z" />
    <glyph glyph-name="o" unicode="o" horiz-adv-x="552" 
d="M273 378q-30 0 -56.5 -10t-46.5 -29.5t-31.5 -48.5t-11.5 -66q0 -42 14 -71.5t36 -47.5t48.5 -26t51.5 -8q33 0 60 11.5t46.5 31.5t30.5 48.5t11 62.5q0 42 -15 71.5t-37.5 47.5t-49 26t-50.5 8zM278 458q50 0 93.5 -17t75.5 -47.5t50.5 -74t18.5 -96.5q0 -60 -22 -104
t-57 -72.5t-77.5 -42t-84.5 -13.5q-54 0 -98 18.5t-75.5 50.5t-48.5 74.5t-17 90.5q0 47 16.5 89.5t48 74.5t76.5 50.5t101 18.5z" />
    <glyph glyph-name="p" unicode="p" 
d="M148 366v-276q31 -16 55.5 -18.5t30.5 -2.5q30 0 55.5 10.5t44.5 31t30 49t11 64.5q0 53 -19.5 82t-46 42.5t-54.5 15.5t-44 2h-63zM213 449q2 0 18.5 -0.5t40.5 -4t51 -11.5t50 -22q30 -19 48.5 -44.5t28 -51.5t13 -50t3.5 -41q0 -49 -16 -91.5t-45.5 -74t-70.5 -49.5
t-91 -18q-35 0 -57 7t-38 13v-241h-91v679h156z" />
    <glyph glyph-name="q" unicode="q" 
d="M354 366h-56q-29 0 -57 -2t-50 -16q-8 -5 -19 -14.5t-21.5 -24.5t-18 -36.5t-7.5 -50.5q0 -33 10.5 -61.5t29.5 -49.5t46.5 -33t61.5 -12q9 0 15 0.5t14.5 2.5t20 6t31.5 10v281zM442 -230h-88v238q-17 -5 -41.5 -11t-56.5 -6q-45 0 -85 16t-70 45.5t-48 72t-18 95.5
q0 32 10 71.5t37 74.5t73.5 59t119.5 24h167v-679z" />
    <glyph glyph-name="r" unicode="r" horiz-adv-x="386" 
d="M148 449v-103q11 17 24.5 36.5t30 36.5t36 28t43.5 11q5 0 14.5 -1t23 -6t30.5 -15t37 -29l-47 -78q-4 4 -13 11.5t-21 14.5t-25.5 12.5t-26.5 5.5q-12 0 -30.5 -7t-35 -23.5t-28.5 -43t-12 -64.5v-235h-89v449h89z" />
    <glyph glyph-name="s" unicode="s" horiz-adv-x="385" 
d="M323 333q-38 23 -68 35.5t-62 12.5t-44.5 -13.5t-12.5 -26.5q0 -22 23.5 -38t73.5 -44q48 -26 80 -61t32 -80q0 -16 -7 -37.5t-24.5 -41.5t-47 -34t-75.5 -14q-48 0 -82 12t-68 29v96q48 -33 86.5 -46t56.5 -13q10 0 22 3t22.5 9t17 14.5t6.5 19.5q0 24 -18.5 38.5
t-50.5 31.5q-28 15 -53 31t-44 34.5t-30.5 40.5t-11.5 50q0 50 39 83.5t104 33.5q25 0 46.5 -4t38.5 -10t30 -12.5l21 -10.5v-88z" />
    <glyph glyph-name="t" unicode="t" horiz-adv-x="347" 
d="M167 449h142v-80h-142v-196q0 -21 0.5 -34t2 -22t5 -14.5t8.5 -11.5q13 -14 27 -16.5t21 -2.5q14 0 39 4.5t62 27.5v-83q-32 -17 -63.5 -23.5t-51.5 -6.5q-12 0 -27 2.5t-31.5 9.5t-31.5 17.5t-27 27.5q-17 25 -19.5 58t-2.5 64v199h-78v9l167 164v-93z" />
    <glyph glyph-name="u" unicode="u" 
d="M348 0v57q-31 -34 -67.5 -50t-68.5 -16q-11 0 -26.5 2.5t-33.5 10t-35.5 22t-31.5 37.5q-5 8 -9.5 18t-8 24.5t-5.5 35.5t-2 52v256h90v-256q0 -19 1.5 -41.5t10 -41.5t27 -32t52.5 -13q32 0 59.5 17t47.5 46v321h90v-449h-90z" />
    <glyph glyph-name="v" unicode="v" horiz-adv-x="437" 
d="M236 -9h-30l-203 458h97l121 -276l117 276h96z" />
    <glyph glyph-name="w" unicode="w" horiz-adv-x="719" 
d="M521 -9h-28l-133 314l-131 -314h-29l-200 458h95l118 -272l114 272h66l114 -272l117 272h95z" />
    <glyph glyph-name="x" unicode="x" 
d="M302 228l198 -228h-114l-141 161l-133 -161h-112l189 228l-189 221h112l133 -154l128 154h114z" />
    <glyph glyph-name="y" unicode="y" horiz-adv-x="437" 
d="M120 -230h-99l153 326l-174 353h101l121 -253l116 253h100z" />
    <glyph glyph-name="z" unicode="z" horiz-adv-x="417" 
d="M167 82h238v-82h-394l236 366h-226v83h384z" />
    <glyph glyph-name="braceleft" unicode="{" horiz-adv-x="333" 
d="M311 682v-74h-16q-31 0 -48 -5t-24.5 -22.5t-9 -51t-1.5 -90.5q0 -56 -7 -92t-20 -59.5t-32 -37t-44 -25.5q39 -15 59.5 -38.5t30.5 -57t11.5 -80t1.5 -108.5q0 -32 4 -51.5t13.5 -30t25.5 -13.5t40 -3h16v-75h-28q-20 0 -44 2t-46.5 15t-39 40.5t-21.5 78.5
q-1 10 -1.5 34.5t-1.5 51.5t-1.5 51t-0.5 33q-1 19 -5.5 39t-15.5 36t-30 26.5t-48 11.5v77q37 1 57.5 16.5t30.5 41t11.5 58.5t1.5 68q0 37 1 66t4 51.5t9.5 40t18.5 33.5q13 16 28.5 25t31.5 13t31.5 4.5t29.5 0.5h28z" />
    <glyph glyph-name="bar" unicode="|" horiz-adv-x="260" 
d="M92 682h76v-914h-76v914z" />
    <glyph glyph-name="braceright" unicode="}" horiz-adv-x="333" 
d="M23 -232v75h15q31 0 48.5 5t25 22.5t9 50.5t1.5 90q0 56 7 92.5t20 59.5t32 37t43 25q-38 16 -59 39t-30.5 57t-11 80.5t-1.5 108.5q0 32 -4 51t-13.5 29.5t-26 14t-40.5 3.5h-15v74h27q20 0 44.5 -2t47 -15t39 -40.5t21.5 -78.5q1 -10 1.5 -34t1 -51t1 -51.5t0.5 -33.5
q1 -19 5.5 -38.5t15.5 -35.5t30 -26.5t48 -11.5v-77q-38 -1 -58 -17t-30 -41.5t-11.5 -58t-1.5 -68.5q0 -38 -1 -66t-4 -50.5t-9.5 -40.5t-18.5 -34t-27.5 -25t-31.5 -13t-32 -4.5t-30 -0.5h-27z" />
    <glyph glyph-name="asciitilde" unicode="~" horiz-adv-x="583" 
d="M42 361q30 34 67 46.5t69 12.5q17 0 48 -5.5t85 -28.5q21 -9 35.5 -15t26 -9.5t21.5 -5t21 -1.5q24 0 45 9t38 20.5t28.5 22.5t14.5 14v-103q-20 -19 -51.5 -37.5t-83.5 -18.5q-32 0 -59.5 8t-59.5 22q-35 16 -62 26t-56 10q-22 0 -40 -6t-33.5 -15.5t-28.5 -21.5
t-25 -23v99z" />
    <glyph glyph-name="uni00A0" unicode="&#xa0;" horiz-adv-x="278" 
 />
    <glyph glyph-name="exclamdown" unicode="&#xa1;" horiz-adv-x="271" 
d="M135 -192q-20 0 -31.5 17t-17 39.5t-6.5 46t-1 37.5q0 45 4 89t9 84t11 74t11 59q1 3 3 11.5t4.5 16.5t6 14.5t7.5 6.5q6 0 12 -18t12.5 -47.5t12 -67t9.5 -76.5t6.5 -76.5t2.5 -66.5q0 -14 -1 -38t-6.5 -47t-16.5 -40.5t-31 -17.5zM74 451q0 22 16 41t45 19q23 0 42 -16
t19 -44q0 -23 -15.5 -42.5t-44.5 -19.5t-45.5 19.5t-16.5 42.5z" />
    <glyph glyph-name="cent" unicode="&#xa2;" horiz-adv-x="437" 
d="M273 375q-29 1 -55.5 -8.5t-46.5 -29t-31.5 -48.5t-11.5 -67q0 -35 13 -64t36 -49zM344 445q25 -9 32 -11.5t13 -7.5v-94q-15 12 -35.5 21.5t-37.5 14.5l-102 -281q11 -4 26 -8.5t35 -4.5q30 0 65 8.5t59 22.5v-86q-43 -17 -78.5 -23t-57.5 -6q-14 0 -27 1q-12 1 -25.5 3
t-26.5 6l-69 -190h-47l77 209q-13 7 -31.5 22.5t-35 40t-28.5 58.5t-12 78q0 52 15 96t44 76t70.5 50t95.5 18q25 0 39 -3l59 165h46z" />
    <glyph glyph-name="sterling" unicode="&#xa3;" horiz-adv-x="531" 
d="M333 286h-102l-50 -189q8 1 15 1.5t22 0.5h11t23.5 -0.5t28.5 -2t27 -3.5q20 -4 32 -6t21 -3t17 -1.5t19 -0.5q4 0 14.5 0.5t25 2.5t30 6.5t29.5 12.5v-95q-20 -7 -43.5 -12.5t-56.5 -5.5q-11 0 -19 0.5t-19.5 1.5t-28 3.5t-43.5 7.5q-20 3 -39 3.5t-34 0.5
q-39 0 -77.5 -4t-76.5 -13l79 295h-72v87h95q12 45 32.5 100.5t51.5 104t72.5 81t95.5 32.5q12 0 20.5 -1t15.5 -3l56 -104q-6 4 -12.5 6.5t-24.5 4.5q-4 1 -15 2.5t-21 1.5q-32 0 -57.5 -16.5t-45.5 -43.5t-35 -62t-27 -72l-10 -31h76v-87z" />
    <glyph glyph-name="currency" unicode="&#xa4;" horiz-adv-x="552" 
d="M149 341q0 -26 10 -49.5t27 -40.5t40 -27t49 -10t49 10t40.5 27t27.5 40.5t10 49.5t-10 49t-27.5 40.5t-40.5 27.5t-49 10t-49 -10t-40 -27.5t-27 -40.5t-10 -49zM36 523l56 58l68 -69q28 20 58 28t58 8t58 -8.5t58 -27.5l68 69l56 -58l-68 -67q23 -35 29 -65t6 -50
t-6 -50t-29 -65l68 -66l-56 -58l-68 68q-28 -19 -58 -27.5t-58 -8.5t-58 8t-58 28l-68 -68l-56 58l68 66q-23 35 -29 65t-6 50t6 50t29 65z" />
    <glyph glyph-name="yen" unicode="&#xa5;" horiz-adv-x="552" 
d="M233 156h-203v70h203v73h-203v70h167l-198 347h98l141 -252q7 -12 11.5 -20.5t8.5 -17l8 -17t9 -20.5q8 20 17 36.5t23 42.5l134 248h104l-197 -347h166v-70h-201v-73h201v-70h-201v-156h-88v156z" />
    <glyph glyph-name="brokenbar" unicode="&#xa6;" horiz-adv-x="260" 
d="M92 682h76v-373h-76v373zM92 142h76v-374h-76v374z" />
    <glyph glyph-name="section" unicode="&#xa7;" horiz-adv-x="406" 
d="M140 384q-11 -14 -21.5 -30t-10.5 -45q0 -44 29 -82.5t73 -84.5l49 -52q3 3 9.5 11t12.5 19.5t10.5 25t4.5 28.5q0 18 -4.5 34.5t-16.5 35t-33 41t-54 53.5zM249 606q1 6 -6 13.5t-25 7.5q-11 0 -23 -3.5t-22 -11t-16 -21t-6 -32.5q0 -22 9 -43t22.5 -40t28.5 -35t28 -28
q21 -20 36 -34t26 -26t20.5 -24t18.5 -28q17 -27 25.5 -54.5t8.5 -59.5q0 -54 -22.5 -90t-51.5 -65q13 -19 20 -37.5t10.5 -33.5t4 -25.5t0.5 -13.5q0 -30 -11 -57.5t-31.5 -48.5t-49 -33.5t-62.5 -12.5q-50 0 -84 24t-34 65q0 21 14 41.5t41 20.5q18 0 33 -12t15 -36
q0 -2 -1.5 -10.5t-1.5 -10.5q0 -8 7.5 -13t15.5 -5q12 0 24.5 5t23 14t17.5 22.5t7 31.5q0 21 -9.5 42t-25 41.5t-34 40.5t-36.5 39q-20 21 -41.5 44.5t-39 51.5t-29 61.5t-11.5 74.5q0 29 8 52t19 40.5t22 28.5l17 17q-18 30 -23 57t-5 39q0 18 7 44.5t24 51t46 42t74 17.5
q18 0 38.5 -4.5t38.5 -14t30 -26t12 -40.5q0 -27 -16 -41t-36 -14q-12 0 -19.5 4.5t-12.5 11t-6.5 13.5t-1.5 13z" />
    <glyph glyph-name="dieresis" unicode="&#xa8;" horiz-adv-x="333" 
d="M261 628q19 0 32.5 -13.5t13.5 -32.5t-13.5 -32.5t-32.5 -13.5t-32.5 13.5t-13.5 32.5t13.5 32.5t32.5 13.5zM73 628q19 0 32.5 -13.5t13.5 -32.5t-13.5 -32.5t-32.5 -13.5t-32.5 13.5t-13.5 32.5t13.5 32.5t32.5 13.5z" />
    <glyph glyph-name="copyright" unicode="&#xa9;" horiz-adv-x="740" 
d="M370 630q-63 0 -119 -24t-97.5 -65.5t-66 -97.5t-24.5 -120t24 -120t65.5 -98t97.5 -66t120 -24q63 0 119 24t98 66t66 98t24 120t-24.5 120t-66 97.5t-97.5 65.5t-119 24zM370 691q76 0 143 -29t117 -78.5t79 -117t29 -143.5t-29 -143t-78.5 -117.5t-117 -79.5
t-143.5 -29q-77 0 -144 29t-117 79t-79 117t-29 144t29 144t79.5 117t117.5 78.5t143 28.5zM548 245q-9 -36 -27 -61.5t-42.5 -41t-52.5 -23t-56 -7.5q-42 0 -77.5 14t-61 41t-40 66t-14.5 89q0 97 52 152t145 55q57 0 103 -27.5t64 -87.5l-58 -14q-4 9 -10.5 21t-20.5 25
q-14 12 -34 20.5t-46 8.5q-35 0 -59.5 -14t-39.5 -36t-22 -50t-7 -55q0 -78 36 -114.5t87 -36.5q10 0 27 3t35.5 12.5t34.5 28t24 50.5z" />
    <glyph glyph-name="ordfeminine" unicode="&#xaa;" horiz-adv-x="281" 
d="M163 543l-31 -11q-29 -11 -38.5 -21t-9.5 -24t9 -24t26 -10q15 0 25.5 6t18.5 12v72zM273 432q-16 -10 -30 -16.5t-34 -6.5q-2 0 -8 0.5t-13 2.5t-14 6.5t-11 13.5q-26 -17 -48 -20t-27 -3q-32 0 -52.5 21.5t-20.5 48.5q0 21 11.5 35.5t27.5 24.5t34 16l30 10l45 13v13
q0 6 -0.5 13.5t-5 14t-13.5 11.5t-26 5t-31.5 -5.5t-26.5 -13t-22 -17t-18 -16.5v69q36 26 64.5 32.5t41.5 6.5q21 0 47 -8.5t40 -26.5q14 -16 16 -36.5t2 -41.5v-103q0 -10 1 -15t6 -5q3 0 9 3t26 17v-43z" />
    <glyph glyph-name="guillemotleft" unicode="&#xab;" horiz-adv-x="490" 
d="M176 0l-148 225l148 224h88l-148 -224l148 -225h-88zM379 0l-147 225l147 224h88l-148 -224l148 -225h-88z" />
    <glyph glyph-name="logicalnot" unicode="&#xac;" horiz-adv-x="583" 
d="M446 191v218h-391v82h473v-300h-82z" />
    <glyph glyph-name="uni00AD" unicode="&#xad;" horiz-adv-x="323" 
d="M283 174h-243v95h243v-95z" />
    <glyph glyph-name="registered" unicode="&#xae;" horiz-adv-x="740" 
d="M370 630q-63 0 -119 -24t-97.5 -65.5t-66 -97.5t-24.5 -120t24 -120t65.5 -98t97.5 -66t120 -24q63 0 119 24t98 66t66 98t24 120t-24.5 120t-66 97.5t-97.5 65.5t-119 24zM370 691q76 0 143 -29t117 -78.5t79 -117t29 -143.5t-29 -143t-78.5 -117.5t-117 -79.5
t-143.5 -29q-77 0 -144 29t-117 79t-79 117t-29 144t29 144t79.5 117t117.5 78.5t143 28.5zM272 342h78q11 0 27.5 1t31.5 6.5t26 18t11 35.5q0 22 -10.5 33.5t-25.5 17t-32.5 6.5t-32.5 1h-73v-119zM208 515h137q34 0 70 -3.5t61 -23.5q17 -15 27.5 -35.5t10.5 -44.5
q0 -17 -6 -35.5t-19.5 -35t-35 -28t-52.5 -13.5q9 -3 17.5 -8t19 -15.5t24 -28.5t31.5 -48l48 -77h-78l-35 63q-18 32 -31.5 52.5t-26 32t-27 16t-33.5 4.5h-38v-168h-64v396z" />
    <glyph glyph-name="macron" unicode="&#xaf;" horiz-adv-x="333" 
d="M332 545h-331v73h331v-73z" />
    <glyph glyph-name="degree" unicode="&#xb0;" horiz-adv-x="396" 
d="M115 556q0 -35 24.5 -59t58.5 -24t58 24t24 59q0 34 -24 58t-58 24q-35 0 -59 -24t-24 -58zM62 556q0 28 10.5 52.5t29 43t43.5 29t53 10.5t52.5 -10.5t43 -29t29 -43t10.5 -52.5q0 -29 -10.5 -53.5t-29 -43t-43 -29t-52.5 -10.5t-52.5 10.5t-43 29t-29.5 43t-11 53.5z
" />
    <glyph glyph-name="plusminus" unicode="&#xb1;" horiz-adv-x="583" 
d="M251 311h-196v82h196v196h82v-196h195v-82h-195v-195h-82v195zM55 -12v82h473v-82h-473z" />
    <glyph glyph-name="two.superior" unicode="&#xb2;" horiz-adv-x="323" 
d="M295 273h-267v7q7 7 21 21.5t31 33.5t36 41t36 43q28 35 36 56t8 40t-7 30.5t-16.5 18.5t-20.5 9.5t-20 2.5q-19 0 -34.5 -7t-27.5 -16t-20.5 -19t-12.5 -16v78q14 11 39 23.5t63 12.5q55 0 91 -31t36 -80q0 -25 -10 -49.5t-27 -48.5t-39 -48t-45 -48h150v-54z" />
    <glyph glyph-name="three.superior" unicode="&#xb3;" horiz-adv-x="323" 
d="M46 353q11 -7 36.5 -18t57.5 -11q3 0 12.5 1t19.5 6t18 15.5t8 28.5q0 19 -8 30t-20.5 16t-27.5 6.5t-28 2.5v52q11 0 25 1t26.5 5.5t21 14.5t8.5 29q0 17 -14 32.5t-49 15.5q-24 0 -41.5 -6t-34.5 -14v55q9 5 29 11t53 6q22 0 44.5 -5t40.5 -16t29 -30t11 -46
q0 -21 -9.5 -41t-37.5 -34q20 -8 31 -20.5t16 -25t6 -23t1 -14.5q0 -24 -10.5 -44.5t-28 -34.5t-41 -22t-50.5 -8q-34 0 -58 8.5t-36 13.5v63z" />
    <glyph glyph-name="acute" unicode="&#xb4;" horiz-adv-x="333" 
d="M157 506h-55l66 147h99z" />
    <glyph glyph-name="mu" unicode="&#xb5;" horiz-adv-x="522" 
d="M351 449h89v-313q0 -3 -0.5 -9.5t-0.5 -9.5q0 -38 27 -38q11 0 22.5 5t22.5 11v-70q-33 -15 -61.5 -24.5t-53.5 -9.5q-15 0 -23.5 4.5t-13 11.5t-6 15.5t-2.5 16.5q-17 -18 -39 -33t-55 -15q-20 0 -35.5 6t-28 15t-23 20t-20.5 22v-283h-89v678h89v-326q20 -25 44 -42
t57 -17q20 0 38.5 8t32 21.5t21.5 32t8 39.5v284z" />
    <glyph glyph-name="paragraph" unicode="&#xb6;" horiz-adv-x="542" 
d="M198 278q-51 3 -88 20t-61 44.5t-36 62t-12 71.5q0 58 26 108.5t82 74.5q39 17 68.5 20t53.5 3h309v-84h-70v-830h-81v830h-109v-830h-82v510z" />
    <glyph glyph-name="periodcentered" unicode="&#xb7;" horiz-adv-x="260" 
d="M130 400q23 0 38.5 -16t15.5 -39t-15.5 -38.5t-38.5 -15.5t-38.5 15.5t-15.5 38.5t16 39t38 16z" />
    <glyph glyph-name="cedilla" unicode="&#xb8;" horiz-adv-x="333" 
d="M202 -16q17 -4 28 -12t17 -18t8 -19.5t2 -16.5q0 -22 -12.5 -41.5t-26.5 -29.5q-16 -11 -37.5 -14.5t-47.5 -3.5q-14 0 -20.5 0.5t-11.5 2.5v55q17 -2 21.5 -2h9.5q6 0 15.5 1t17.5 4t14 8.5t6 13.5q0 12 -8.5 18t-19 8t-19.5 1t-11 -1l25 70h57z" />
    <glyph glyph-name="one.superior" unicode="&#xb9;" horiz-adv-x="323" 
d="M196 273h-69v355h69v-355z" />
    <glyph glyph-name="ordmasculine" unicode="&#xba;" horiz-adv-x="365" 
d="M273 551q0 26 -9.5 43t-23 26.5t-29 13.5t-28.5 4t-29 -4t-29.5 -13.5t-22.5 -26.5t-9 -43t9.5 -42.5t23 -26.5t29 -13.5t28.5 -3.5q12 0 28 3.5t29.5 13.5t23 26.5t9.5 42.5zM342 550q0 -29 -11.5 -54.5t-32.5 -44.5t-50.5 -30t-65.5 -11t-65 11t-50 30t-32.5 44.5
t-11.5 54.5t11.5 55t32.5 45t50 30t65 11t65.5 -11t50.5 -30.5t32.5 -45t11.5 -54.5z" />
    <glyph glyph-name="guillemotright" unicode="&#xbb;" horiz-adv-x="490" 
d="M313 449l148 -225l-148 -224h-87l148 224l-148 225h87zM110 449l148 -225l-148 -224h-87l148 224l-148 225h87z" />
    <glyph glyph-name="onequarter" unicode="&#xbc;" horiz-adv-x="844" 
d="M240 -27h-67l454 718h68zM195 332h-69v355h69v-355zM707 248l-78 -84h78v84zM775 164h45v-49h-45v-115h-68v115h-170v25l205 220h33v-196z" />
    <glyph glyph-name="onehalf" unicode="&#xbd;" horiz-adv-x="844" 
d="M817 0h-267v7q7 7 21 21.5t31 33.5t36 41t36 43q28 35 36 56t8 40t-7 31t-16.5 19t-20.5 9.5t-20 2.5q-17 0 -31 -5.5t-26 -14t-21.5 -19t-17.5 -20.5v79q14 10 39.5 23t63.5 13q28 0 51 -8.5t40 -23t26.5 -35t9.5 -44.5q0 -25 -10 -49.5t-27 -48.5t-39.5 -48t-46.5 -49
h152v-54zM210 -27h-67l455 718h67zM195 332h-69v355h69v-355z" />
    <glyph glyph-name="threequarters" unicode="&#xbe;" horiz-adv-x="844" 
d="M707 248l-78 -84h78v84zM775 164h45v-49h-45v-115h-68v115h-170v25l205 220h33v-196zM228 -27h-67l454 718h68zM45 412q11 -7 36 -18t58 -11q3 0 12.5 1t19.5 6t18 15.5t8 28.5q0 19 -8 30t-20.5 16t-27.5 6.5t-28 2.5v52q11 0 25 1t26.5 5.5t21 14.5t8.5 29
q0 17 -14 32.5t-49 15.5q-24 0 -42 -6t-34 -14v55q9 5 29 11t53 6q22 0 44.5 -5t40.5 -16t29 -30t11 -46q0 -21 -9.5 -41t-37.5 -34q16 -6 26.5 -16t16.5 -21.5t8.5 -23.5t2.5 -22q0 -24 -10.5 -44.5t-28 -34.5t-41 -22t-50.5 -8q-35 0 -58.5 8.5t-35.5 13.5v63z" />
    <glyph glyph-name="questiondown" unicode="&#xbf;" horiz-adv-x="333" 
d="M140 450q0 26 19 42.5t42 16.5t41.5 -15.5t18.5 -43.5t-18.5 -44.5t-41.5 -16.5q-10 0 -20.5 3.5t-19.5 11t-15 19t-6 27.5zM225 -191q-12 0 -38.5 3.5t-51.5 17.5q-20 12 -33.5 27t-21.5 32t-11.5 33.5t-3.5 31.5q0 58 25.5 107.5t60.5 103.5q5 7 15.5 24t21.5 37.5
t19.5 41.5t8.5 36q0 6 -1 12.5t-2 9.5q8 -4 18.5 -10t20 -16.5t16 -27t6.5 -40.5q0 -19 -4 -35.5t-12.5 -34.5t-21 -39t-29.5 -48q-22 -35 -31.5 -59.5t-9.5 -50.5q0 -21 8 -34t18.5 -20t22 -9.5t19.5 -2.5q18 0 32 5.5t24 10.5z" />
    <glyph glyph-name="Agrave" unicode="&#xc0;" horiz-adv-x="667" 
d="M409 729h-52l-164 150h143zM436 289l-110 247l-102 -247h212zM667 0h-100l-91 201h-290l-86 -201h-100l293 686h69z" />
    <glyph glyph-name="Aacute" unicode="&#xc1;" horiz-adv-x="667" 
d="M477 879l-164 -150h-52l73 150h143zM436 289l-110 247l-102 -247h212zM667 0h-100l-91 201h-290l-86 -201h-100l293 686h69z" />
    <glyph glyph-name="Acircumflex" unicode="&#xc2;" horiz-adv-x="667" 
d="M438 729l-104 95l-105 -95h-61l94 157h142l96 -157h-62zM436 289l-110 247l-102 -247h212zM667 0h-100l-91 201h-290l-86 -201h-100l293 686h69z" />
    <glyph glyph-name="Atilde" unicode="&#xc3;" horiz-adv-x="667" 
d="M170 729q7 58 35 89.5t66 31.5q10 0 19 -1.5t19 -5t23 -9.5t31 -15q13 -6 26.5 -12t23.5 -6q28 0 34 49h52q-4 -59 -32.5 -90t-64.5 -31q-9 0 -16.5 1t-18 4.5t-25.5 10t-39 17.5q-19 8 -28 12t-19 4q-17 0 -23 -15t-11 -34h-52zM436 289l-110 247l-102 -247h212zM667 0
h-100l-91 201h-290l-86 -201h-100l293 686h69z" />
    <glyph glyph-name="Adieresis" unicode="&#xc4;" horiz-adv-x="667" 
d="M231 860q22 0 37.5 -15.5t15.5 -37.5t-15.5 -37.5t-37.5 -15.5t-37.5 15.5t-15.5 37.5t15.5 37.5t37.5 15.5zM437 860q22 0 37.5 -15.5t15.5 -37.5t-15.5 -37.5t-37.5 -15.5t-37.5 15.5t-15.5 37.5t15.5 37.5t37.5 15.5zM436 289l-110 247l-102 -247h212zM667 0h-100
l-91 201h-290l-86 -201h-100l293 686h69z" />
    <glyph glyph-name="Aring" unicode="&#xc5;" horiz-adv-x="667" 
d="M334 775q23 0 39 16t16 39t-16 39t-39 16t-39 -16t-16 -39t16 -39t39 -16zM334 931q24 0 43 -9.5t31.5 -24t19.5 -32.5t7 -35q0 -20 -7 -38t-20 -32t-32 -22.5t-42 -8.5t-41.5 8.5t-32 22.5t-20.5 32t-7 38q0 21 8 39.5t21.5 32t32 21.5t39.5 8zM436 289l-110 247
l-102 -247h212zM667 0h-100l-91 201h-290l-86 -201h-100l293 686h69z" />
    <glyph glyph-name="AE" unicode="&#xc6;" horiz-adv-x="912" 
d="M473 616l-135 -227h135v227zM851 595h-280v-206h271v-88h-271v-213h291v-88h-389v301h-186l-178 -301h-107l404 682h445v-87z" />
    <glyph glyph-name="Ccedilla" unicode="&#xc7;" horiz-adv-x="708" 
d="M663 53q-40 -24 -100 -43t-126 -21q35 -5 55.5 -25t20.5 -52q0 -26 -15.5 -46t-39.5 -33t-53 -19.5t-56 -6.5q-16 0 -33.5 1t-31.5 3v63q7 -2 16 -2h35q6 0 18.5 0.5t25 3.5t22.5 9.5t10 18.5q0 13 -10.5 19.5t-24 9t-26.5 2t-19 -0.5l25 66q-72 7 -129.5 39.5t-97 80
t-60.5 105.5t-21 117q0 66 26 129t74 112t116.5 78.5t154.5 29.5q77 0 135 -19t102 -38v-105q-13 7 -36 18.5t-53 23t-66 19.5t-76 8q-60 0 -110.5 -20t-87 -54.5t-57 -82t-20.5 -102.5q0 -59 21.5 -107t58.5 -81.5t85.5 -52t101.5 -18.5q66 0 127.5 21t118.5 56v-104z" />
    <glyph glyph-name="Egrave" unicode="&#xc8;" horiz-adv-x="521" 
d="M341 729h-52l-164 150h143zM462 595h-289v-208h279v-87h-279v-212h298v-88h-396v682h387v-87z" />
    <glyph glyph-name="Eacute" unicode="&#xc9;" horiz-adv-x="521" 
d="M434 879l-164 -150h-52l73 150h143zM462 595h-289v-208h279v-87h-279v-212h298v-88h-396v682h387v-87z" />
    <glyph glyph-name="Ecircumflex" unicode="&#xca;" horiz-adv-x="521" 
d="M370 729l-104 95l-105 -95h-61l94 157h142l96 -157h-62zM462 595h-289v-208h279v-87h-279v-212h298v-88h-396v682h387v-87z" />
    <glyph glyph-name="Edieresis" unicode="&#xcb;" horiz-adv-x="521" 
d="M163 860q22 0 37.5 -15.5t15.5 -37.5t-15.5 -37.5t-37.5 -15.5t-37.5 15.5t-15.5 37.5t15.5 37.5t37.5 15.5zM369 860q22 0 37.5 -15.5t15.5 -37.5t-15.5 -37.5t-37.5 -15.5t-37.5 15.5t-15.5 37.5t15.5 37.5t37.5 15.5zM462 595h-289v-208h279v-87h-279v-212h298v-88
h-396v682h387v-87z" />
    <glyph glyph-name="Igrave" unicode="&#xcc;" horiz-adv-x="250" 
d="M201 729h-52l-164 150h143zM174 0h-98v682h98v-682z" />
    <glyph glyph-name="Iacute" unicode="&#xcd;" horiz-adv-x="250" 
d="M269 879l-164 -150h-52l73 150h143zM174 0h-98v682h98v-682z" />
    <glyph glyph-name="Icircumflex" unicode="&#xce;" horiz-adv-x="250" 
d="M230 729l-104 95l-105 -95h-61l94 157h142l96 -157h-62zM174 0h-98v682h98v-682z" />
    <glyph glyph-name="Idieresis" unicode="&#xcf;" horiz-adv-x="250" 
d="M23 860q22 0 37.5 -15.5t15.5 -37.5t-15.5 -37.5t-37.5 -15.5t-37.5 15.5t-15.5 37.5t15.5 37.5t37.5 15.5zM229 860q22 0 37.5 -15.5t15.5 -37.5t-15.5 -37.5t-37.5 -15.5t-37.5 15.5t-15.5 37.5t15.5 37.5t37.5 15.5zM174 0h-98v682h98v-682z" />
    <glyph glyph-name="Eth" unicode="&#xd0;" horiz-adv-x="750" 
d="M173 309v-221h126q19 0 43 1t49 5t50 12t47 21q52 32 83 90.5t31 128.5q0 31 -7.5 63.5t-24.5 62.5t-44 55.5t-66 42.5q-42 19 -79.5 22t-84.5 3h-123v-222h194v-64h-194zM-4 309v64h80v309h230q24 0 56 -1t67 -7.5t72 -21t71 -40.5q57 -44 94 -113.5t37 -157.5
q0 -65 -19.5 -114.5t-46.5 -85.5t-54.5 -58t-43.5 -32q-31 -19 -63.5 -29.5t-64.5 -15t-62.5 -5.5t-56.5 -1h-216v309h-80z" />
    <glyph glyph-name="Ntilde" unicode="&#xd1;" horiz-adv-x="781" 
d="M227 729q7 58 35 89.5t66 31.5q10 0 19 -1.5t19 -5t23 -9.5t31 -15q13 -6 26.5 -12t23.5 -6q28 0 34 49h52q-4 -59 -32.5 -90t-64.5 -31q-9 0 -16.5 1t-18 4.5t-25.5 10t-39 17.5q-19 8 -28 12t-19 4q-17 0 -23 -15t-11 -34h-52zM710 0h-84l-456 525v-525h-92v682h79
l460 -529v529h93v-682z" />
    <glyph glyph-name="Ograve" unicode="&#xd2;" horiz-adv-x="823" 
d="M497 729h-52l-164 150h143zM414 599q-72 0 -122.5 -24.5t-83 -62.5t-47.5 -84t-15 -89q0 -58 21.5 -105.5t57.5 -81t84 -52t102 -18.5q27 0 55 5.5t54 16t49 25.5t41 34q16 18 28.5 40t21.5 45.5t13.5 48t4.5 46.5q0 42 -16 87.5t-49 83t-82.5 61.5t-116.5 24zM410 691
q85 0 153 -29t116 -77t73.5 -111t25.5 -132q0 -74 -27 -138t-76 -111t-117.5 -74.5t-152.5 -27.5q-80 0 -146.5 27.5t-114 75t-73.5 111t-26 134.5q0 68 24.5 131.5t71 112.5t114.5 78.5t155 29.5z" />
    <glyph glyph-name="Oacute" unicode="&#xd3;" horiz-adv-x="823" 
d="M555 879l-164 -150h-52l73 150h143zM414 599q-72 0 -122.5 -24.5t-83 -62.5t-47.5 -84t-15 -89q0 -58 21.5 -105.5t57.5 -81t84 -52t102 -18.5q27 0 55 5.5t54 16t49 25.5t41 34q16 18 28.5 40t21.5 45.5t13.5 48t4.5 46.5q0 42 -16 87.5t-49 83t-82.5 61.5t-116.5 24z
M410 691q85 0 153 -29t116 -77t73.5 -111t25.5 -132q0 -74 -27 -138t-76 -111t-117.5 -74.5t-152.5 -27.5q-80 0 -146.5 27.5t-114 75t-73.5 111t-26 134.5q0 68 24.5 131.5t71 112.5t114.5 78.5t155 29.5z" />
    <glyph glyph-name="Ocircumflex" unicode="&#xd4;" horiz-adv-x="823" 
d="M516 729l-104 95l-105 -95h-61l94 157h142l96 -157h-62zM414 599q-72 0 -122.5 -24.5t-83 -62.5t-47.5 -84t-15 -89q0 -58 21.5 -105.5t57.5 -81t84 -52t102 -18.5q27 0 55 5.5t54 16t49 25.5t41 34q16 18 28.5 40t21.5 45.5t13.5 48t4.5 46.5q0 42 -16 87.5t-49 83
t-82.5 61.5t-116.5 24zM410 691q85 0 153 -29t116 -77t73.5 -111t25.5 -132q0 -74 -27 -138t-76 -111t-117.5 -74.5t-152.5 -27.5q-80 0 -146.5 27.5t-114 75t-73.5 111t-26 134.5q0 68 24.5 131.5t71 112.5t114.5 78.5t155 29.5z" />
    <glyph glyph-name="Otilde" unicode="&#xd5;" horiz-adv-x="823" 
d="M248 729q7 58 35 89.5t66 31.5q10 0 19 -1.5t19 -5t23 -9.5t31 -15q13 -6 26.5 -12t23.5 -6q28 0 34 49h52q-4 -59 -32.5 -90t-64.5 -31q-9 0 -16.5 1t-18 4.5t-25.5 10t-39 17.5q-19 8 -28 12t-19 4q-17 0 -23 -15t-11 -34h-52zM414 599q-72 0 -122.5 -24.5t-83 -62.5
t-47.5 -84t-15 -89q0 -58 21.5 -105.5t57.5 -81t84 -52t102 -18.5q27 0 55 5.5t54 16t49 25.5t41 34q16 18 28.5 40t21.5 45.5t13.5 48t4.5 46.5q0 42 -16 87.5t-49 83t-82.5 61.5t-116.5 24zM410 691q85 0 153 -29t116 -77t73.5 -111t25.5 -132q0 -74 -27 -138t-76 -111
t-117.5 -74.5t-152.5 -27.5q-80 0 -146.5 27.5t-114 75t-73.5 111t-26 134.5q0 68 24.5 131.5t71 112.5t114.5 78.5t155 29.5z" />
    <glyph glyph-name="Odieresis" unicode="&#xd6;" horiz-adv-x="823" 
d="M309 860q22 0 37.5 -15.5t15.5 -37.5t-15.5 -37.5t-37.5 -15.5t-37.5 15.5t-15.5 37.5t15.5 37.5t37.5 15.5zM515 860q22 0 37.5 -15.5t15.5 -37.5t-15.5 -37.5t-37.5 -15.5t-37.5 15.5t-15.5 37.5t15.5 37.5t37.5 15.5zM414 599q-72 0 -122.5 -24.5t-83 -62.5t-47.5 -84
t-15 -89q0 -58 21.5 -105.5t57.5 -81t84 -52t102 -18.5q27 0 55 5.5t54 16t49 25.5t41 34q16 18 28.5 40t21.5 45.5t13.5 48t4.5 46.5q0 42 -16 87.5t-49 83t-82.5 61.5t-116.5 24zM410 691q85 0 153 -29t116 -77t73.5 -111t25.5 -132q0 -74 -27 -138t-76 -111t-117.5 -74.5
t-152.5 -27.5q-80 0 -146.5 27.5t-114 75t-73.5 111t-26 134.5q0 68 24.5 131.5t71 112.5t114.5 78.5t155 29.5z" />
    <glyph glyph-name="multiply" unicode="&#xd7;" horiz-adv-x="583" 
d="M233 341l-154 153l59 60l154 -153l153 153l59 -60l-153 -153l153 -153l-59 -60l-153 154l-154 -154l-59 60z" />
    <glyph glyph-name="Oslash" unicode="&#xd8;" horiz-adv-x="823" 
d="M559 561q-18 11 -53 25t-93 14q-66 0 -116 -23t-83.5 -59.5t-50.5 -83t-17 -92.5q0 -32 8.5 -66.5t22.5 -61.5q10 -19 20.5 -32t18.5 -22zM263 123q35 -20 70.5 -30t77.5 -10q61 0 110 20.5t83.5 56t53.5 83t19 101.5q0 45 -17.5 93.5t-54.5 85.5zM671 597
q20 -18 39 -43.5t34 -57.5t24.5 -70.5t9.5 -82.5q0 -74 -27 -138t-75.5 -111.5t-115.5 -75t-148 -27.5q-57 0 -111 13t-101 45l-49 -53l-47 33l47 58q-22 20 -41 46.5t-33.5 58.5t-23 68.5t-8.5 77.5q0 70 25.5 134t73 113t115.5 77.5t153 28.5q40 0 72.5 -6t58.5 -14.5
t45.5 -18.5t34.5 -18l48 59l46 -40z" />
    <glyph glyph-name="Ugrave" unicode="&#xd9;" horiz-adv-x="708" 
d="M430 729h-52l-164 150h143zM647 295q0 -25 -1 -54t-8.5 -59.5t-23 -60.5t-44.5 -56q-46 -41 -101 -57.5t-114 -16.5q-36 0 -73 6.5t-71 20.5t-63 37t-49 55q-14 22 -22 47.5t-11.5 50t-4 47.5t-0.5 40v387h98v-387q0 -34 2 -58t6.5 -42.5t13 -32.5t21.5 -27
q22 -23 57.5 -40t95.5 -17q41 0 71 9.5t51 23t34 29.5t20 28q10 18 14.5 47t4.5 80v387h97v-387z" />
    <glyph glyph-name="Uacute" unicode="&#xda;" horiz-adv-x="708" 
d="M498 879l-164 -150h-52l73 150h143zM647 295q0 -25 -1 -54t-8.5 -59.5t-23 -60.5t-44.5 -56q-46 -41 -101 -57.5t-114 -16.5q-36 0 -73 6.5t-71 20.5t-63 37t-49 55q-14 22 -22 47.5t-11.5 50t-4 47.5t-0.5 40v387h98v-387q0 -34 2 -58t6.5 -42.5t13 -32.5t21.5 -27
q22 -23 57.5 -40t95.5 -17q41 0 71 9.5t51 23t34 29.5t20 28q10 18 14.5 47t4.5 80v387h97v-387z" />
    <glyph glyph-name="Ucircumflex" unicode="&#xdb;" horiz-adv-x="708" 
d="M459 729l-104 95l-105 -95h-61l94 157h142l96 -157h-62zM647 295q0 -25 -1 -54t-8.5 -59.5t-23 -60.5t-44.5 -56q-46 -41 -101 -57.5t-114 -16.5q-36 0 -73 6.5t-71 20.5t-63 37t-49 55q-14 22 -22 47.5t-11.5 50t-4 47.5t-0.5 40v387h98v-387q0 -34 2 -58t6.5 -42.5
t13 -32.5t21.5 -27q22 -23 57.5 -40t95.5 -17q41 0 71 9.5t51 23t34 29.5t20 28q10 18 14.5 47t4.5 80v387h97v-387z" />
    <glyph glyph-name="Udieresis" unicode="&#xdc;" horiz-adv-x="708" 
d="M252 860q22 0 37.5 -15.5t15.5 -37.5t-15.5 -37.5t-37.5 -15.5t-37.5 15.5t-15.5 37.5t15.5 37.5t37.5 15.5zM458 860q22 0 37.5 -15.5t15.5 -37.5t-15.5 -37.5t-37.5 -15.5t-37.5 15.5t-15.5 37.5t15.5 37.5t37.5 15.5zM647 295q0 -25 -1 -54t-8.5 -59.5t-23 -60.5
t-44.5 -56q-46 -41 -101 -57.5t-114 -16.5q-36 0 -73 6.5t-71 20.5t-63 37t-49 55q-14 22 -22 47.5t-11.5 50t-4 47.5t-0.5 40v387h98v-387q0 -34 2 -58t6.5 -42.5t13 -32.5t21.5 -27q22 -23 57.5 -40t95.5 -17q41 0 71 9.5t51 23t34 29.5t20 28q10 18 14.5 47t4.5 80v387
h97v-387z" />
    <glyph glyph-name="Yacute" unicode="&#xdd;" horiz-adv-x="604" 
d="M476 879l-164 -150h-52l73 150h143zM352 361v-361h-100v361l-252 321h118l183 -235l185 235h118z" />
    <glyph glyph-name="Thorn" unicode="&#xde;" horiz-adv-x="510" 
d="M168 448v-213h78q29 0 57.5 2t50.5 16q20 12 32.5 35t12.5 55q0 18 -6 38.5t-24 37.5q-11 11 -22.5 17t-26 8.5t-33.5 3t-45 0.5h-74zM168 682v-148h78q30 0 57.5 -1t52 -6.5t47.5 -17t44 -33.5q23 -23 38 -55.5t15 -80.5q0 -12 -1.5 -28.5t-7.5 -34.5t-17.5 -37
t-30.5 -37q-32 -31 -78 -43t-125 -12h-72v-148h-98v682h98z" />
    <glyph glyph-name="germandbls" unicode="&#xdf;" 
d="M59 449q0 36 3 78.5t20.5 78.5t56 60.5t109.5 24.5q59 0 96 -17t58 -41.5t28.5 -53t7.5 -51.5q0 -11 -2.5 -30.5t-12.5 -42t-29.5 -44t-53.5 -35.5q35 -9 59.5 -28t39.5 -43.5t21.5 -52.5t6.5 -56q0 -36 -10.5 -72.5t-31.5 -66t-54 -48t-78 -18.5q-23 0 -41 3t-29 6v87
q8 -4 19 -7.5t30 -3.5q31 0 51 12.5t32 31.5t17 41t5 41q0 48 -17.5 74t-41.5 38.5t-48.5 15t-38.5 2.5v81h17t23 2q27 4 42.5 17.5t24 29.5t10.5 31.5t2 23.5q0 48 -30 76.5t-73 28.5q-9 0 -21.5 -2t-25.5 -8t-24 -16.5t-18 -26.5q-8 -19 -9 -45.5t-1 -74.5v-449h-89v449z
" />
    <glyph glyph-name="agrave" unicode="&#xe0;" horiz-adv-x="427" 
d="M258 506h-55l-112 147h100zM262 222q-29 -10 -54.5 -20t-45 -22.5t-31 -27.5t-11.5 -35q0 -28 18 -45.5t46 -17.5q21 0 40.5 10t37.5 27v131zM415 26q-31 -20 -48 -27.5t-38 -7.5q-57 0 -68 46q-58 -46 -121 -46q-25 0 -45 9t-34.5 24t-22.5 35t-8 42q0 33 14 56
t35.5 38.5t49 26.5t54.5 21l79 28v24q0 42 -20 60.5t-61 18.5q-37 0 -73.5 -18t-68.5 -56v97q52 61 149 61q34 0 64 -9t52 -27t34.5 -46t12.5 -66v-231q0 -23 17 -23q15 0 47 24v-54z" />
    <glyph glyph-name="aacute" unicode="&#xe1;" horiz-adv-x="427" 
d="M188 506h-55l66 147h99zM262 222q-29 -10 -54.5 -20t-45 -22.5t-31 -27.5t-11.5 -35q0 -28 18 -45.5t46 -17.5q21 0 40.5 10t37.5 27v131zM415 26q-31 -20 -48 -27.5t-38 -7.5q-57 0 -68 46q-58 -46 -121 -46q-25 0 -45 9t-34.5 24t-22.5 35t-8 42q0 33 14 56t35.5 38.5
t49 26.5t54.5 21l79 28v24q0 42 -20 60.5t-61 18.5q-37 0 -73.5 -18t-68.5 -56v97q52 61 149 61q34 0 64 -9t52 -27t34.5 -46t12.5 -66v-231q0 -23 17 -23q15 0 47 24v-54z" />
    <glyph glyph-name="acircumflex" unicode="&#xe2;" horiz-adv-x="427" 
d="M337 506h-55l-87 86l-83 -86h-53l91 151h93zM262 222q-29 -10 -54.5 -20t-45 -22.5t-31 -27.5t-11.5 -35q0 -28 18 -45.5t46 -17.5q21 0 40.5 10t37.5 27v131zM415 26q-31 -20 -48 -27.5t-38 -7.5q-57 0 -68 46q-58 -46 -121 -46q-25 0 -45 9t-34.5 24t-22.5 35t-8 42
q0 33 14 56t35.5 38.5t49 26.5t54.5 21l79 28v24q0 42 -20 60.5t-61 18.5q-37 0 -73.5 -18t-68.5 -56v97q52 61 149 61q34 0 64 -9t52 -27t34.5 -46t12.5 -66v-231q0 -23 17 -23q15 0 47 24v-54z" />
    <glyph glyph-name="atilde" unicode="&#xe3;" horiz-adv-x="427" 
d="M51 524q1 36 9 58.5t20 35t25.5 17t25.5 4.5q17 0 32 -4t39 -13q19 -7 30 -11.5t18 -6.5t11 -3t9 -1q17 0 25 10t11 29h38q-1 -34 -9 -56.5t-19.5 -35.5t-25 -18t-24.5 -5q-20 0 -38.5 6t-49.5 20q-12 5 -27 9t-26 4t-21 -8t-12 -31h-41zM262 222q-29 -10 -54.5 -20
t-45 -22.5t-31 -27.5t-11.5 -35q0 -28 18 -45.5t46 -17.5q21 0 40.5 10t37.5 27v131zM415 26q-31 -20 -48 -27.5t-38 -7.5q-57 0 -68 46q-58 -46 -121 -46q-25 0 -45 9t-34.5 24t-22.5 35t-8 42q0 33 14 56t35.5 38.5t49 26.5t54.5 21l79 28v24q0 42 -20 60.5t-61 18.5
q-37 0 -73.5 -18t-68.5 -56v97q52 61 149 61q34 0 64 -9t52 -27t34.5 -46t12.5 -66v-231q0 -23 17 -23q15 0 47 24v-54z" />
    <glyph glyph-name="adieresis" unicode="&#xe4;" horiz-adv-x="427" 
d="M292 628q19 0 32.5 -13.5t13.5 -32.5t-13.5 -32.5t-32.5 -13.5t-32.5 13.5t-13.5 32.5t13.5 32.5t32.5 13.5zM104 628q19 0 32.5 -13.5t13.5 -32.5t-13.5 -32.5t-32.5 -13.5t-32.5 13.5t-13.5 32.5t13.5 32.5t32.5 13.5zM262 222q-29 -10 -54.5 -20t-45 -22.5t-31 -27.5
t-11.5 -35q0 -28 18 -45.5t46 -17.5q21 0 40.5 10t37.5 27v131zM415 26q-31 -20 -48 -27.5t-38 -7.5q-57 0 -68 46q-58 -46 -121 -46q-25 0 -45 9t-34.5 24t-22.5 35t-8 42q0 33 14 56t35.5 38.5t49 26.5t54.5 21l79 28v24q0 42 -20 60.5t-61 18.5q-37 0 -73.5 -18
t-68.5 -56v97q52 61 149 61q34 0 64 -9t52 -27t34.5 -46t12.5 -66v-231q0 -23 17 -23q15 0 47 24v-54z" />
    <glyph glyph-name="aring" unicode="&#xe5;" horiz-adv-x="427" 
d="M196 651q-25 0 -40 -14.5t-15 -38.5t16.5 -40.5t40.5 -16.5q23 0 39.5 16.5t16.5 39.5q0 25 -17.5 39.5t-40.5 14.5zM199 691q17 0 33.5 -6.5t29 -18.5t20.5 -29t8 -38q0 -20 -7.5 -37t-20 -29.5t-29.5 -19.5t-36 -7t-35.5 7t-29 19.5t-20 29t-7.5 36.5q0 21 8 38
t21.5 29.5t30 19t34.5 6.5zM262 222q-29 -10 -54.5 -20t-45 -22.5t-31 -27.5t-11.5 -35q0 -28 18 -45.5t46 -17.5q21 0 40.5 10t37.5 27v131zM415 26q-31 -20 -48 -27.5t-38 -7.5q-57 0 -68 46q-58 -46 -121 -46q-25 0 -45 9t-34.5 24t-22.5 35t-8 42q0 33 14 56t35.5 38.5
t49 26.5t54.5 21l79 28v24q0 42 -20 60.5t-61 18.5q-37 0 -73.5 -18t-68.5 -56v97q52 61 149 61q34 0 64 -9t52 -27t34.5 -46t12.5 -66v-231q0 -23 17 -23q15 0 47 24v-54z" />
    <glyph glyph-name="ae" unicode="&#xe6;" horiz-adv-x="656" 
d="M257 224l-48 -19q-53 -21 -72 -40t-19 -42q0 -12 4 -24.5t12.5 -23t20.5 -17t27 -6.5q20 0 36 7t39 20v145zM534 301q-4 30 -16.5 46t-27 23.5t-26.5 9t-15 1.5t-14.5 -1.5t-25.5 -9t-28.5 -23.5t-23.5 -46h177zM623 39q-13 -9 -27.5 -17.5t-32.5 -15t-40.5 -11
t-52.5 -4.5t-55.5 7.5t-44.5 18t-32 23t-19 21.5q-37 -29 -80.5 -49.5t-87.5 -20.5q-32 0 -54.5 10t-37.5 26t-22 37t-7 42t10.5 48t52.5 54q8 5 22 11t29 12t29 11t22 8l62 19v14q0 12 -1 28t-8 30.5t-22.5 24t-43.5 9.5q-44 0 -78.5 -20.5t-63.5 -53.5v107q9 7 22 15.5
t30.5 16t40 13t51.5 5.5q38 0 74.5 -14t60.5 -44q10 9 23 19t29 18.5t36 14.5t45 6q42 0 73.5 -15.5t53.5 -42.5t33 -63.5t11 -78.5v-14h-277q0 -13 1.5 -29t5.5 -33t12.5 -35t23.5 -35q23 -25 50.5 -32.5t47.5 -7.5q24 0 45.5 6.5t39 15t30.5 17.5t21 15v-87z" />
    <glyph glyph-name="ccedilla" unicode="&#xe7;" horiz-adv-x="437" 
d="M391 332q-9 6 -21.5 13t-28 14t-34.5 11.5t-41 4.5q-39 0 -65 -15.5t-42.5 -38t-23.5 -49.5t-7 -49q0 -30 10 -57t29 -47.5t47.5 -32.5t66.5 -12q43 0 74.5 11.5t45.5 18.5v-88q-29 -11 -55 -16.5t-61 -7.5l-10 -21q9 -2 21.5 -5.5t23.5 -12.5q13 -11 20 -26t7 -30
q0 -4 -1.5 -13t-6 -19.5t-13.5 -22t-25 -19.5q-11 -6 -25.5 -9t-29.5 -4.5t-29 -1.5h-23q-15 0 -22 0.5t-15 1.5v58q3 0 11.5 0.5t18 0.5t17.5 0.5t11 0.5q5 1 12 2t14 4t11.5 8.5t4.5 13.5q0 12 -10 18t-23.5 9t-26 3h-16.5l29 64q-23 6 -44 13.5t-41 23.5
q-17 13 -32.5 31.5t-27.5 42.5t-19.5 53.5t-7.5 64.5q0 42 13 84.5t40.5 76t69.5 55t100 21.5q45 0 75.5 -10.5t54.5 -21.5v-94z" />
    <glyph glyph-name="egrave" unicode="&#xe8;" horiz-adv-x="479" 
d="M315 506h-55l-112 147h100zM358 270q0 7 -3 25t-14 37t-32.5 34t-59.5 15q-21 0 -44.5 -9t-41.5 -29t-23.5 -39t-7.5 -34h226zM438 44q-12 -8 -27.5 -17t-37 -17t-49 -13.5t-62.5 -5.5q-18 0 -36.5 2t-38 8.5t-40 19t-40.5 33.5q-22 23 -35.5 47t-20.5 46.5t-9 43
t-2 36.5q0 52 15.5 95t43.5 73t66.5 46.5t84.5 16.5q39 0 72 -13.5t57.5 -36.5t40 -55t21.5 -69q4 -23 4.5 -38.5t0.5 -28.5h-316q1 -25 10 -50t27 -45.5t44.5 -33t63.5 -12.5q44 0 85.5 14.5t77.5 40.5v-87z" />
    <glyph glyph-name="eacute" unicode="&#xe9;" horiz-adv-x="479" 
d="M245 506h-55l66 147h99zM358 270q0 7 -3 25t-14 37t-32.5 34t-59.5 15q-21 0 -44.5 -9t-41.5 -29t-23.5 -39t-7.5 -34h226zM438 44q-12 -8 -27.5 -17t-37 -17t-49 -13.5t-62.5 -5.5q-18 0 -36.5 2t-38 8.5t-40 19t-40.5 33.5q-22 23 -35.5 47t-20.5 46.5t-9 43t-2 36.5
q0 52 15.5 95t43.5 73t66.5 46.5t84.5 16.5q39 0 72 -13.5t57.5 -36.5t40 -55t21.5 -69q4 -23 4.5 -38.5t0.5 -28.5h-316q1 -25 10 -50t27 -45.5t44.5 -33t63.5 -12.5q44 0 85.5 14.5t77.5 40.5v-87z" />
    <glyph glyph-name="ecircumflex" unicode="&#xea;" horiz-adv-x="479" 
d="M389 506h-55l-87 86l-83 -86h-53l91 151h93zM358 270q0 7 -3 25t-14 37t-32.5 34t-59.5 15q-21 0 -44.5 -9t-41.5 -29t-23.5 -39t-7.5 -34h226zM438 44q-12 -8 -27.5 -17t-37 -17t-49 -13.5t-62.5 -5.5q-18 0 -36.5 2t-38 8.5t-40 19t-40.5 33.5q-22 23 -35.5 47
t-20.5 46.5t-9 43t-2 36.5q0 52 15.5 95t43.5 73t66.5 46.5t84.5 16.5q39 0 72 -13.5t57.5 -36.5t40 -55t21.5 -69q4 -23 4.5 -38.5t0.5 -28.5h-316q1 -25 10 -50t27 -45.5t44.5 -33t63.5 -12.5q44 0 85.5 14.5t77.5 40.5v-87z" />
    <glyph glyph-name="edieresis" unicode="&#xeb;" horiz-adv-x="479" 
d="M344 628q19 0 32.5 -13.5t13.5 -32.5t-13.5 -32.5t-32.5 -13.5t-32.5 13.5t-13.5 32.5t13.5 32.5t32.5 13.5zM156 628q19 0 32.5 -13.5t13.5 -32.5t-13.5 -32.5t-32.5 -13.5t-32.5 13.5t-13.5 32.5t13.5 32.5t32.5 13.5zM358 270q0 7 -3 25t-14 37t-32.5 34t-59.5 15
q-21 0 -44.5 -9t-41.5 -29t-23.5 -39t-7.5 -34h226zM438 44q-12 -8 -27.5 -17t-37 -17t-49 -13.5t-62.5 -5.5q-18 0 -36.5 2t-38 8.5t-40 19t-40.5 33.5q-22 23 -35.5 47t-20.5 46.5t-9 43t-2 36.5q0 52 15.5 95t43.5 73t66.5 46.5t84.5 16.5q39 0 72 -13.5t57.5 -36.5
t40 -55t21.5 -69q4 -23 4.5 -38.5t0.5 -28.5h-316q1 -25 10 -50t27 -45.5t44.5 -33t63.5 -12.5q44 0 85.5 14.5t77.5 40.5v-87z" />
    <glyph glyph-name="igrave" unicode="&#xec;" horiz-adv-x="219" 
d="M170 506h-55l-112 147h100zM154 0h-90v449h90v-449z" />
    <glyph glyph-name="iacute" unicode="&#xed;" horiz-adv-x="219" 
d="M100 506h-55l66 147h99zM154 0h-90v449h90v-449z" />
    <glyph glyph-name="icircumflex" unicode="&#xee;" horiz-adv-x="219" 
d="M249 506h-55l-87 86l-83 -86h-53l91 151h93zM154 0h-90v449h90v-449z" />
    <glyph glyph-name="idieresis" unicode="&#xef;" horiz-adv-x="219" 
d="M204 628q19 0 32.5 -13.5t13.5 -32.5t-13.5 -32.5t-32.5 -13.5t-32.5 13.5t-13.5 32.5t13.5 32.5t32.5 13.5zM16 628q19 0 32.5 -13.5t13.5 -32.5t-13.5 -32.5t-32.5 -13.5t-32.5 13.5t-13.5 32.5t13.5 32.5t32.5 13.5zM154 0h-90v449h90v-449z" />
    <glyph glyph-name="eth" unicode="&#xf0;" horiz-adv-x="563" 
d="M438 226q0 40 -14 69t-36.5 47.5t-50 27t-54.5 8.5q-35 0 -64 -13t-49.5 -35t-32 -50t-11.5 -59q0 -32 11.5 -59t32.5 -47t50 -31.5t64 -11.5q33 0 61 10t49 29.5t32.5 48.5t11.5 66zM411 690l24 -54l-75 -37q20 -18 47.5 -45t56.5 -75q38 -63 50 -121t12 -103
q0 -80 -24.5 -131t-62 -80.5t-81 -41t-80.5 -11.5q-57 0 -101.5 20.5t-75 53t-46 73.5t-15.5 83q0 40 14.5 82t45 76.5t76.5 56.5t109 22q38 0 60.5 -7t43.5 -16q-11 20 -21 36t-22.5 30.5t-29 28.5t-38.5 31l-145 -67l-22 55l105 50q-22 11 -39.5 17t-43.5 12l46 62
q21 -6 36.5 -11.5t29 -11t27 -12.5t30.5 -16z" />
    <glyph glyph-name="ntilde" unicode="&#xf1;" 
d="M104 524q1 36 9 58.5t20 35t25.5 17t25.5 4.5q17 0 32 -4t39 -13q19 -7 30 -11.5t18 -6.5t11 -3t9 -1q17 0 25 10t11 29h38q-1 -34 -9 -56.5t-19.5 -35.5t-25 -18t-24.5 -5q-20 0 -38.5 6t-49.5 20q-12 5 -27 9t-26 4t-21 -8t-12 -31h-41zM152 449v-57q30 34 66.5 50
t68.5 16q10 0 26 -2.5t34 -10t35.5 -22t31.5 -37.5q5 -8 9.5 -18t8 -24.5t5.5 -35.5t2 -52v-256h-90v256q0 36 -3 58t-21 42q-13 14 -28.5 21t-38.5 7q-31 0 -58.5 -17t-47.5 -46v-321h-91v449h91z" />
    <glyph glyph-name="ograve" unicode="&#xf2;" horiz-adv-x="552" 
d="M347 506h-55l-112 147h100zM273 378q-30 0 -56.5 -10t-46.5 -29.5t-31.5 -48.5t-11.5 -66q0 -42 14 -71.5t36 -47.5t48.5 -26t51.5 -8q33 0 60 11.5t46.5 31.5t30.5 48.5t11 62.5q0 42 -15 71.5t-37.5 47.5t-49 26t-50.5 8zM278 458q50 0 93.5 -17t75.5 -47.5t50.5 -74
t18.5 -96.5q0 -60 -22 -104t-57 -72.5t-77.5 -42t-84.5 -13.5q-54 0 -98 18.5t-75.5 50.5t-48.5 74.5t-17 90.5q0 47 16.5 89.5t48 74.5t76.5 50.5t101 18.5z" />
    <glyph glyph-name="oacute" unicode="&#xf3;" horiz-adv-x="552" 
d="M267 506h-55l66 147h99zM273 378q-30 0 -56.5 -10t-46.5 -29.5t-31.5 -48.5t-11.5 -66q0 -42 14 -71.5t36 -47.5t48.5 -26t51.5 -8q33 0 60 11.5t46.5 31.5t30.5 48.5t11 62.5q0 42 -15 71.5t-37.5 47.5t-49 26t-50.5 8zM278 458q50 0 93.5 -17t75.5 -47.5t50.5 -74
t18.5 -96.5q0 -60 -22 -104t-57 -72.5t-77.5 -42t-84.5 -13.5q-54 0 -98 18.5t-75.5 50.5t-48.5 74.5t-17 90.5q0 47 16.5 89.5t48 74.5t76.5 50.5t101 18.5z" />
    <glyph glyph-name="ocircumflex" unicode="&#xf4;" horiz-adv-x="552" 
d="M426 506h-55l-87 86l-83 -86h-53l91 151h93zM273 378q-30 0 -56.5 -10t-46.5 -29.5t-31.5 -48.5t-11.5 -66q0 -42 14 -71.5t36 -47.5t48.5 -26t51.5 -8q33 0 60 11.5t46.5 31.5t30.5 48.5t11 62.5q0 42 -15 71.5t-37.5 47.5t-49 26t-50.5 8zM278 458q50 0 93.5 -17
t75.5 -47.5t50.5 -74t18.5 -96.5q0 -60 -22 -104t-57 -72.5t-77.5 -42t-84.5 -13.5q-54 0 -98 18.5t-75.5 50.5t-48.5 74.5t-17 90.5q0 47 16.5 89.5t48 74.5t76.5 50.5t101 18.5z" />
    <glyph glyph-name="otilde" unicode="&#xf5;" horiz-adv-x="552" 
d="M140 524q1 36 9 58.5t20 35t25.5 17t25.5 4.5q17 0 32 -4t39 -13q19 -7 30 -11.5t18 -6.5t11 -3t9 -1q17 0 25 10t11 29h38q-1 -34 -9 -56.5t-19.5 -35.5t-25 -18t-24.5 -5q-20 0 -38.5 6t-49.5 20q-12 5 -27 9t-26 4t-21 -8t-12 -31h-41zM273 378q-30 0 -56.5 -10
t-46.5 -29.5t-31.5 -48.5t-11.5 -66q0 -42 14 -71.5t36 -47.5t48.5 -26t51.5 -8q33 0 60 11.5t46.5 31.5t30.5 48.5t11 62.5q0 42 -15 71.5t-37.5 47.5t-49 26t-50.5 8zM278 458q50 0 93.5 -17t75.5 -47.5t50.5 -74t18.5 -96.5q0 -60 -22 -104t-57 -72.5t-77.5 -42
t-84.5 -13.5q-54 0 -98 18.5t-75.5 50.5t-48.5 74.5t-17 90.5q0 47 16.5 89.5t48 74.5t76.5 50.5t101 18.5z" />
    <glyph glyph-name="odieresis" unicode="&#xf6;" horiz-adv-x="552" 
d="M381 628q19 0 32.5 -13.5t13.5 -32.5t-13.5 -32.5t-32.5 -13.5t-32.5 13.5t-13.5 32.5t13.5 32.5t32.5 13.5zM193 628q19 0 32.5 -13.5t13.5 -32.5t-13.5 -32.5t-32.5 -13.5t-32.5 13.5t-13.5 32.5t13.5 32.5t32.5 13.5zM273 378q-30 0 -56.5 -10t-46.5 -29.5
t-31.5 -48.5t-11.5 -66q0 -42 14 -71.5t36 -47.5t48.5 -26t51.5 -8q33 0 60 11.5t46.5 31.5t30.5 48.5t11 62.5q0 42 -15 71.5t-37.5 47.5t-49 26t-50.5 8zM278 458q50 0 93.5 -17t75.5 -47.5t50.5 -74t18.5 -96.5q0 -60 -22 -104t-57 -72.5t-77.5 -42t-84.5 -13.5
q-54 0 -98 18.5t-75.5 50.5t-48.5 74.5t-17 90.5q0 47 16.5 89.5t48 74.5t76.5 50.5t101 18.5z" />
    <glyph glyph-name="divide" unicode="&#xf7;" horiz-adv-x="583" 
d="M292 248q22 0 37.5 -15.5t15.5 -37.5t-15.5 -37.5t-37.5 -15.5q-23 0 -38 15.5t-15 37.5q0 23 15.5 38t37.5 15zM292 540q22 0 37.5 -15t15.5 -38q0 -22 -15.5 -37.5t-37.5 -15.5q-23 0 -38 15.5t-15 37.5q0 23 15.5 38t37.5 15zM55 300v82h473v-82h-473z" />
    <glyph glyph-name="oslash" unicode="&#xf8;" horiz-adv-x="552" 
d="M358 354q-11 7 -30.5 15t-51.5 8q-36 0 -64.5 -13t-49 -34.5t-31 -50t-10.5 -58.5q0 -58 38 -100zM193 93q13 -9 26 -14.5t24.5 -7.5t19.5 -2.5t12 -0.5q28 0 56 10.5t50.5 30t36 48.5t13.5 66q0 42 -13.5 66t-24.5 38zM493 443l-44 -52q7 -8 18.5 -22t22.5 -35t19 -48.5
t8 -63.5q0 -50 -18 -92t-51 -73t-78.5 -48.5t-99.5 -17.5q-53 0 -85.5 14t-46.5 23l-56 -65l-33 30l54 63q-68 70 -68 168q0 45 16.5 87t47 75t75 52.5t101.5 19.5t90 -14.5t49 -25.5l46 55z" />
    <glyph glyph-name="ugrave" unicode="&#xf9;" 
d="M311 506h-55l-112 147h100zM348 0v57q-31 -34 -67.5 -50t-68.5 -16q-11 0 -26.5 2.5t-33.5 10t-35.5 22t-31.5 37.5q-5 8 -9.5 18t-8 24.5t-5.5 35.5t-2 52v256h90v-256q0 -19 1.5 -41.5t10 -41.5t27 -32t52.5 -13q32 0 59.5 17t47.5 46v321h90v-449h-90z" />
    <glyph glyph-name="uacute" unicode="&#xfa;" 
d="M241 506h-55l66 147h99zM348 0v57q-31 -34 -67.5 -50t-68.5 -16q-11 0 -26.5 2.5t-33.5 10t-35.5 22t-31.5 37.5q-5 8 -9.5 18t-8 24.5t-5.5 35.5t-2 52v256h90v-256q0 -19 1.5 -41.5t10 -41.5t27 -32t52.5 -13q32 0 59.5 17t47.5 46v321h90v-449h-90z" />
    <glyph glyph-name="ucircumflex" unicode="&#xfb;" 
d="M390 506h-55l-87 86l-83 -86h-53l91 151h93zM348 0v57q-31 -34 -67.5 -50t-68.5 -16q-11 0 -26.5 2.5t-33.5 10t-35.5 22t-31.5 37.5q-5 8 -9.5 18t-8 24.5t-5.5 35.5t-2 52v256h90v-256q0 -19 1.5 -41.5t10 -41.5t27 -32t52.5 -13q32 0 59.5 17t47.5 46v321h90v-449h-90
z" />
    <glyph glyph-name="udieresis" unicode="&#xfc;" 
d="M345 628q19 0 32.5 -13.5t13.5 -32.5t-13.5 -32.5t-32.5 -13.5t-32.5 13.5t-13.5 32.5t13.5 32.5t32.5 13.5zM157 628q19 0 32.5 -13.5t13.5 -32.5t-13.5 -32.5t-32.5 -13.5t-32.5 13.5t-13.5 32.5t13.5 32.5t32.5 13.5zM348 0v57q-31 -34 -67.5 -50t-68.5 -16
q-11 0 -26.5 2.5t-33.5 10t-35.5 22t-31.5 37.5q-5 8 -9.5 18t-8 24.5t-5.5 35.5t-2 52v256h90v-256q0 -19 1.5 -41.5t10 -41.5t27 -32t52.5 -13q32 0 59.5 17t47.5 46v321h90v-449h-90z" />
    <glyph glyph-name="yacute" unicode="&#xfd;" horiz-adv-x="437" 
d="M209 506h-55l66 147h99zM120 -230h-99l153 326l-174 353h101l121 -253l116 253h100z" />
    <glyph glyph-name="thorn" unicode="&#xfe;" 
d="M148 366v-276q31 -16 55.5 -18.5t30.5 -2.5q30 0 55.5 10.5t44.5 31t30 49t11 64.5q0 53 -19.5 82t-46 42.5t-54.5 15.5t-44 2h-63zM148 682v-233h65q2 0 18.5 -0.5t40.5 -4t51 -11.5t50 -22q30 -19 48.5 -44.5t28 -51.5t13 -50.5t3.5 -40.5q0 -49 -16 -91.5t-45.5 -74
t-70.5 -49.5t-91 -18q-35 0 -57 7t-38 13v-241h-91v912h91z" />
    <glyph glyph-name="ydieresis" unicode="&#xff;" horiz-adv-x="437" 
d="M323 628q19 0 32.5 -13.5t13.5 -32.5t-13.5 -32.5t-32.5 -13.5t-32.5 13.5t-13.5 32.5t13.5 32.5t32.5 13.5zM135 628q19 0 32.5 -13.5t13.5 -32.5t-13.5 -32.5t-32.5 -13.5t-32.5 13.5t-13.5 32.5t13.5 32.5t32.5 13.5zM120 -230h-99l153 326l-174 353h101l121 -253
l116 253h100z" />
    <glyph glyph-name="dotlessi" unicode="&#x131;" horiz-adv-x="219" 
d="M154 0h-90v449h90v-449z" />
    <glyph glyph-name="Lslash" unicode="&#x141;" horiz-adv-x="490" 
d="M172 422l138 113v-86l-138 -119v-238h308v-92h-406v250l-89 -71v91l89 73v339h98v-260z" />
    <glyph glyph-name="lslash" unicode="&#x142;" horiz-adv-x="219" 
d="M155 419l80 63v-79l-80 -65v-338h-89v266l-79 -61v79l79 64v334h89v-263z" />
    <glyph glyph-name="OE" unicode="&#x152;" horiz-adv-x="936" 
d="M498 85v512h-38q-71 0 -126.5 -14t-106.5 -61q-24 -22 -39 -46.5t-23.5 -48.5t-11.5 -46t-3 -40q0 -46 19 -96.5t63 -88.5q30 -27 62.5 -41t62.5 -21t55 -8t40 -1h46zM875 597h-279v-208h269v-88h-269v-216h290v-85h-420q-42 0 -82 3.5t-78 13.5t-74.5 28t-71.5 48
q-41 35 -64 72.5t-34 71t-13 60t-2 41.5q0 82 36 157t122 129q34 22 69 33.5t69 17t65 6.5t58 1h409v-85z" />
    <glyph glyph-name="oe" unicode="&#x153;" horiz-adv-x="833" 
d="M277 371q-31 0 -58 -11t-47.5 -30.5t-32 -47t-11.5 -61.5q0 -33 12 -59.5t33 -45.5t48 -29t57 -10q36 0 63.5 12.5t45.5 32.5t27.5 46.5t9.5 55.5q0 31 -11 58t-30.5 46.5t-46.5 31t-59 11.5zM708 302q-2 11 -5 21t-11 22q-25 36 -71 36q-4 0 -16 -1.5t-27 -9
t-29.5 -23.5t-23.5 -45h183zM798 39q-14 -8 -29 -16.5t-34 -15.5t-43.5 -11.5t-55.5 -4.5q-20 0 -42 4t-44.5 14t-43.5 27t-37 44q-36 -45 -87.5 -67t-108.5 -22t-101 20t-74.5 53t-46.5 75t-16 85q0 45 16.5 87t48 74.5t77 52.5t102.5 20q43 0 74 -10t53.5 -24t37.5 -30.5
t25 -28.5q10 18 25.5 34.5t35 29.5t43 21t51.5 8q46 0 86 -23.5t62 -68.5q17 -34 21 -68t5 -54h-282q1 -36 5.5 -65t28.5 -59q23 -28 50.5 -37.5t55.5 -9.5q34 0 67.5 12.5t74.5 43.5v-90z" />
    <glyph glyph-name="Scaron" unicode="&#x160;" horiz-adv-x="458" 
d="M125 886l104 -95l105 95h61l-94 -157h-142l-96 157h62zM399 532q-44 42 -84.5 56.5t-75.5 14.5q-51 0 -79.5 -23.5t-28.5 -55.5q0 -22 8.5 -38.5t28 -33.5t52 -37.5t81.5 -48.5q22 -13 45 -31.5t43 -44.5q16 -20 26.5 -48t10.5 -65q0 -40 -14 -74t-39.5 -59t-62.5 -39
t-82 -14q-51 0 -97.5 16.5t-86.5 46.5v124q7 -9 22.5 -26t38.5 -33.5t53.5 -28.5t69.5 -12q19 0 38 6t34 17.5t24.5 28t9.5 38.5q0 21 -9.5 39.5t-23.5 33.5t-29.5 26.5t-27.5 18.5q-41 24 -68 41t-46 30t-31.5 25t-23.5 26q-16 20 -25 45t-9 57q0 39 14 72t40.5 57t63.5 38
t83 14q42 0 82 -12.5t75 -35.5v-111z" />
    <glyph glyph-name="scaron" unicode="&#x161;" horiz-adv-x="385" 
d="M239 506h-92l-109 151h55l101 -85l100 85h56zM323 333q-38 23 -68 35.5t-62 12.5t-44.5 -13.5t-12.5 -26.5q0 -22 23.5 -38t73.5 -44q48 -26 80 -61t32 -80q0 -16 -7 -37.5t-24.5 -41.5t-47 -34t-75.5 -14q-48 0 -82 12t-68 29v96q48 -33 86.5 -46t56.5 -13q10 0 22 3
t22.5 9t17 14.5t6.5 19.5q0 24 -18.5 38.5t-50.5 31.5q-28 15 -53 31t-44 34.5t-30.5 40.5t-11.5 50q0 50 39 83.5t104 33.5q25 0 46.5 -4t38.5 -10t30 -12.5l21 -10.5v-88z" />
    <glyph glyph-name="Ydieresis" unicode="&#x178;" horiz-adv-x="604" 
d="M200 860q22 0 37.5 -15.5t15.5 -37.5t-15.5 -37.5t-37.5 -15.5t-37.5 15.5t-15.5 37.5t15.5 37.5t37.5 15.5zM406 860q22 0 37.5 -15.5t15.5 -37.5t-15.5 -37.5t-37.5 -15.5t-37.5 15.5t-15.5 37.5t15.5 37.5t37.5 15.5zM352 361v-361h-100v361l-252 321h118l183 -235
l185 235h118z" />
    <glyph glyph-name="Zcaron" unicode="&#x17d;" horiz-adv-x="646" 
d="M219 886l104 -95l105 95h61l-94 -157h-142l-96 157h62zM192 86h436v-86h-616l437 596h-409v86h588z" />
    <glyph glyph-name="zcaron" unicode="&#x17e;" horiz-adv-x="417" 
d="M255 506h-92l-109 151h55l101 -85l100 85h56zM167 82h238v-82h-394l236 366h-226v83h384z" />
    <glyph glyph-name="florin" unicode="&#x192;" horiz-adv-x="552" 
d="M5 -122q32 -7 48 -9t27 -2q18 0 29.5 6.5t18 17t9.5 24t5 27.5l86 508h-98l12 68h98l12 66q4 24 10.5 49.5t21 46.5t40 35t68.5 14q29 0 52.5 -5.5t51.5 -13.5l-18 -75q-27 7 -43 9.5t-32 2.5q-17 0 -28 -5t-18 -15t-11 -24.5t-7 -33.5l-9 -51h99l-12 -68h-100l-93 -533
q-5 -30 -14 -54t-23 -40t-35.5 -24.5t-52.5 -8.5q-12 0 -40 2t-71 10z" />
    <glyph glyph-name="circumflex" unicode="&#x2c6;" horiz-adv-x="333" 
d="M306 506h-55l-87 86l-83 -86h-53l91 151h93z" />
    <glyph glyph-name="caron" unicode="&#x2c7;" horiz-adv-x="333" 
d="M213 506h-92l-109 151h55l101 -85l100 85h56z" />
    <glyph glyph-name="uni02C9" unicode="&#x2c9;" horiz-adv-x="333" 
d="M332 545h-331v73h331v-73z" />
    <glyph glyph-name="breve" unicode="&#x2d8;" horiz-adv-x="333" 
d="M92 635q8 -29 26.5 -45.5t49.5 -16.5q30 0 46 13.5t26 48.5h68q-7 -60 -47 -94.5t-95 -34.5q-57 0 -93.5 34t-47.5 95h67z" />
    <glyph glyph-name="dotaccent" unicode="&#x2d9;" horiz-adv-x="333" 
d="M167 628q19 0 32.5 -13.5t13.5 -32.5t-13.5 -32.5t-32.5 -13.5t-32.5 13.5t-13.5 32.5t13.5 32.5t32.5 13.5z" />
    <glyph glyph-name="ring" unicode="&#x2da;" horiz-adv-x="333" 
d="M165 651q-25 0 -40 -14.5t-15 -38.5t16.5 -40.5t40.5 -16.5q23 0 39.5 16.5t16.5 39.5q0 25 -17.5 39.5t-40.5 14.5zM168 691q17 0 33.5 -6.5t29 -18.5t20.5 -29t8 -38q0 -20 -7.5 -37t-20 -29.5t-29.5 -19.5t-36 -7t-35.5 7t-29 19.5t-20 29t-7.5 36.5q0 21 8 38
t21.5 29.5t30 19t34.5 6.5z" />
    <glyph glyph-name="ogonek" unicode="&#x2db;" horiz-adv-x="333" 
d="M266 -163q-11 -5 -27 -10t-40 -5q-46 0 -76.5 25t-30.5 67q0 28 12 51t32 44h67q-4 -5 -10 -13.5t-11.5 -18.5t-9.5 -20t-4 -19q0 -22 16 -33.5t33 -11.5q5 0 17 1.5t32 9.5v-67z" />
    <glyph glyph-name="tilde" unicode="&#x2dc;" horiz-adv-x="333" 
d="M20 524q1 36 9 58.5t20 35t25.5 17t25.5 4.5q17 0 32 -4t39 -13q19 -7 30 -11.5t18 -6.5t11 -3t9 -1q17 0 25 10t11 29h38q-1 -34 -9 -56.5t-19.5 -35.5t-25 -18t-24.5 -5q-20 0 -38.5 6t-49.5 20q-12 5 -27 9t-26 4t-21 -8t-12 -31h-41z" />
    <glyph glyph-name="hungarumlaut" unicode="&#x2dd;" horiz-adv-x="333" 
d="M100 506h-54l65 146h100zM261 506h-55l66 146h100z" />
    <glyph glyph-name="uni03A9" unicode="&#x3a9;" horiz-adv-x="761" 
d="M62 87h167q-44 31 -78 63.5t-57.5 69t-36 79t-12.5 93.5q0 62 20 110.5t63 91.5q51 51 112.5 73.5t142.5 22.5q80 0 143.5 -24t107 -65t66.5 -95t23 -114q0 -54 -13 -97t-37.5 -79t-59 -67.5t-76.5 -61.5h166v-87h-257v88q40 33 72 66.5t55 70t35.5 76.5t12.5 86
q0 49 -18.5 88t-51 66t-76.5 41.5t-96 14.5q-53 0 -95.5 -16t-73 -44t-47 -66t-16.5 -82q0 -51 14 -93.5t38 -79.5t55 -68.5t65 -59.5v-88h-257v87z" />
    <glyph glyph-name="uni03BC" unicode="&#x3bc;" horiz-adv-x="522" 
d="M351 449h89v-313q0 -3 -0.5 -9.5t-0.5 -9.5q0 -38 27 -38q11 0 22.5 5t22.5 11v-70q-33 -15 -61.5 -24.5t-53.5 -9.5q-15 0 -23.5 4.5t-13 11.5t-6 15.5t-2.5 16.5q-17 -18 -39 -33t-55 -15q-20 0 -35.5 6t-28 15t-23 20t-20.5 22v-283h-89v678h89v-326q20 -25 44 -42
t57 -17q20 0 38.5 8t32 21.5t21.5 32t8 39.5v284z" />
    <glyph glyph-name="pi" unicode="&#x3c0;" horiz-adv-x="615" 
d="M121 374q-17 -1 -28.5 -2.5t-22 -4t-21 -7t-25.5 -11.5v72q17 9 43 18.5t74 9.5h453v-76h-94v-373h-89v373h-201v-373h-89v374z" />
    <glyph glyph-name="endash" unicode="&#x2013;" 
d="M509 219h-518v63h518v-63z" />
    <glyph glyph-name="emdash" unicode="&#x2014;" horiz-adv-x="1000" 
d="M1009 221h-1018v64h1018v-64z" />
    <glyph glyph-name="quoteleft" unicode="&#x2018;" horiz-adv-x="219" 
d="M171 673q-25 -24 -32.5 -47t-8.5 -54q19 -6 30 -15.5t15.5 -19t5.5 -18t1 -11.5q0 -26 -17.5 -45.5t-43.5 -19.5q-16 0 -28.5 8t-21 21t-13 30t-4.5 35q0 4 2 23.5t13 44t34.5 48.5t67.5 38v-18z" />
    <glyph glyph-name="quoteright" unicode="&#x2019;" horiz-adv-x="219" 
d="M49 462q25 24 32 47t9 53q-20 6 -30.5 15.5t-15 19t-5.5 18t-1 11.5q0 26 17.5 45.5t42.5 19.5q32 0 50 -28.5t18 -65.5q0 -4 -2 -23.5t-13 -44t-34.5 -48.5t-67.5 -38v19z" />
    <glyph glyph-name="quotesinglbase" unicode="&#x201a;" horiz-adv-x="219" 
d="M49 -101q25 25 32 48t9 53q-20 6 -30.5 15.5t-15 19t-5.5 18t-1 11.5q0 26 17.5 45.5t42.5 19.5q16 0 28.5 -8t21.5 -21t13.5 -30t4.5 -35q0 -4 -2 -23.5t-13 -44t-34.5 -48.5t-67.5 -38v18z" />
    <glyph glyph-name="quotedblleft" unicode="&#x201c;" horiz-adv-x="427" 
d="M150 673q-25 -24 -32 -47t-9 -54q19 -6 30 -15.5t15.5 -19t5.5 -18t1 -11.5q0 -26 -17 -45.5t-43 -19.5q-16 0 -28.5 8t-21.5 21t-13.5 30t-4.5 35q0 4 2 23.5t13 44t34.5 48.5t67.5 38v-18zM375 673q-26 -24 -33 -47t-9 -54q19 -6 30 -15.5t15.5 -19t5.5 -18t1 -11.5
q0 -26 -17 -45.5t-43 -19.5q-16 0 -28.5 8t-21.5 21t-13.5 30t-4.5 35q0 4 2 23.5t13 44t35 48.5t68 38v-18z" />
    <glyph glyph-name="quotedblright" unicode="&#x201d;" horiz-adv-x="427" 
d="M274 462q25 24 32 47t9 53q-20 6 -30.5 15.5t-15 19t-5.5 18t-1 11.5q0 26 17 45.5t43 19.5q32 0 50 -28.5t18 -65.5q0 -4 -2 -23.5t-13 -44t-34.5 -48.5t-67.5 -38v19zM49 462q26 24 33 47t9 53q-20 6 -30.5 15.5t-15 19t-5.5 18t-1 11.5q0 26 17 45.5t43 19.5
q32 0 50 -28.5t18 -65.5q0 -4 -2 -23.5t-13 -44t-35 -48.5t-68 -38v19z" />
    <glyph glyph-name="quotedblbase" unicode="&#x201e;" horiz-adv-x="448" 
d="M284 -101q25 25 32.5 48t8.5 53q-19 6 -29.5 15.5t-15 19t-5.5 18t-1 11.5q0 26 17 45.5t43 19.5q16 0 28.5 -8t21 -21t13 -30t4.5 -35q0 -4 -2 -23.5t-13 -44t-34.5 -48.5t-67.5 -38v18zM60 -101q25 25 32.5 48t8.5 53q-20 6 -30.5 15.5t-15 19t-5.5 18t-1 11.5
q0 26 17.5 45.5t43.5 19.5q16 0 28.5 -8t21 -21t13 -30t4.5 -35q0 -4 -2 -23.5t-13 -44t-34.5 -48.5t-67.5 -38v18z" />
    <glyph glyph-name="dagger" unicode="&#x2020;" horiz-adv-x="490" 
d="M264 376q1 -12 3 -35t4.5 -51.5t5.5 -60t5.5 -60t4 -51t2.5 -32.5q3 -36 4.5 -79.5t1.5 -91.5q0 -24 -1 -49.5t-6.5 -46.5t-16 -35t-28.5 -14q-20 0 -32 17.5t-15 37.5q-4 25 -4.5 49t-0.5 49q0 16 2 56t6.5 99t10.5 135t15 163q-35 -11 -65 -18.5t-65 -7.5q-8 0 -19.5 2
t-22.5 6.5t-18.5 13t-7.5 21.5q0 16 14.5 31.5t52.5 15.5q28 0 65 -7.5t66 -18.5q-9 48 -14.5 76.5t-8.5 47t-4 32t-1 30.5q0 52 16 71.5t34 19.5q19 0 33 -19.5t14 -68.5q0 -8 -0.5 -27t-5.5 -46q-1 -7 -4.5 -23.5t-7 -35t-7.5 -35t-5 -22.5q13 5 29.5 9.5t34.5 8.5t35 6
t31 2q21 0 34.5 -5t21 -12.5t10.5 -15t3 -13.5q0 -18 -18.5 -31t-47.5 -13q-8 0 -18.5 1t-26 3.5t-37 7.5t-51.5 14z" />
    <glyph glyph-name="daggerdbl" unicode="&#x2021;" horiz-adv-x="490" 
d="M263 440q28 8 64.5 16.5t68.5 8.5q31 0 48.5 -13t17.5 -32q0 -20 -20 -32.5t-49 -12.5q-15 0 -45.5 4.5t-84.5 21.5q1 -17 2.5 -35t4.5 -37q4 -30 6.5 -46.5t3.5 -26.5t1 -15v-12t-0.5 -13t-2 -16.5t-4 -29.5t-7.5 -52q-3 -18 -3.5 -31.5t-0.5 -24.5q43 11 73.5 18
t61.5 7q5 0 15.5 -1.5t21.5 -6t19.5 -13.5t8.5 -23q0 -16 -9 -25t-21 -13.5t-23 -5.5t-14 -1q-19 0 -38.5 3t-37.5 7t-33 9l-24 8q1 -5 6 -23.5t10.5 -43.5t9.5 -52.5t4 -50.5q0 -31 -7 -48t-15.5 -25.5t-17 -10t-11.5 -1.5q-7 0 -15 4t-14.5 13.5t-11 25.5t-4.5 39
q0 11 0.5 24.5t3.5 33.5t9 48t16 67q-24 -8 -60.5 -18t-74.5 -10q-24 0 -37 7t-19 15.5t-7 15.5t-1 8q0 20 20 32t47 12q30 0 64.5 -7.5t67.5 -17.5q0 4 -0.5 8t-1 10t-1.5 15t-2 25q-3 30 -5.5 47.5t-3.5 28.5t-1.5 18.5t-0.5 16.5q0 6 1.5 21.5t4 32.5t4.5 32t2 21
q2 13 3.5 32t0.5 31q-46 -13 -74 -19.5t-59 -6.5q-37 0 -51.5 15t-14.5 27q0 2 1.5 9.5t8 16t21 15.5t40.5 7q37 0 70.5 -8.5t57.5 -16.5q-10 47 -16 75t-9 45t-3.5 27.5t-0.5 22.5q0 41 14.5 61t34.5 20q7 0 15.5 -4t15.5 -13.5t12 -25.5t5 -40q0 -17 -2 -33.5t-5.5 -35.5
t-9.5 -42.5t-14 -56.5z" />
    <glyph glyph-name="bullet" unicode="&#x2022;" horiz-adv-x="354" 
d="M53 341q0 26 10 48.5t26.5 39.5t39 26.5t48.5 9.5q25 0 48 -10t39.5 -26.5t26.5 -39.5t10 -48q0 -26 -10 -48.5t-26.5 -39.5t-39.5 -26.5t-48 -9.5t-47.5 9.5t-39.5 26.5t-27 39.5t-10 48.5z" />
    <glyph glyph-name="ellipsis" unicode="&#x2026;" horiz-adv-x="1000" 
d="M834 -9q-25 0 -42.5 17.5t-17.5 42.5t17.5 42.5t42.5 17.5t42.5 -17.5t17.5 -42.5t-17.5 -42.5t-42.5 -17.5zM500 111q25 0 42.5 -17.5t17.5 -42.5t-17.5 -42.5t-42.5 -17.5t-42.5 17.5t-17.5 42.5t17.5 42.5t42.5 17.5zM166 111q25 0 42.5 -17.5t17.5 -42.5t-17.5 -42.5
t-42.5 -17.5t-42.5 17.5t-17.5 42.5t17.5 42.5t42.5 17.5z" />
    <glyph glyph-name="perthousand" unicode="&#x2030;" horiz-adv-x="1010" 
d="M137 -9h-76l450 701h75zM846 223q-32 0 -55.5 -22.5t-23.5 -55.5t23 -56t56 -23q32 0 55 23t23 56t-23 55.5t-55 22.5zM846 297q31 0 58.5 -12t48.5 -32.5t33 -48t12 -59.5t-12 -59.5t-33 -48t-48.5 -32.5t-58.5 -12q-32 0 -59.5 12t-48 32.5t-32.5 48t-12 59.5t12 59.5
t33 48t48.5 32.5t58.5 12zM164 616q-32 0 -55.5 -23t-23.5 -56q0 -32 23 -55.5t56 -23.5q32 0 55.5 23.5t23.5 55.5q0 33 -23.5 56t-55.5 23zM165 690q31 0 58.5 -12t48.5 -32.5t33 -48.5t12 -60q0 -31 -12 -58.5t-32.5 -48.5t-48.5 -33t-59 -12q-32 0 -59.5 12t-48 33
t-32.5 48.5t-12 58.5q0 32 12 60t32.5 48.5t48 32.5t59.5 12zM486 223q-32 0 -55.5 -22.5t-23.5 -55.5t23.5 -56t55.5 -23q33 0 56 23t23 56t-23.5 55.5t-55.5 22.5zM486 297q31 0 58.5 -12t48.5 -32.5t33 -48t12 -59.5t-12 -59.5t-32.5 -48t-48.5 -32.5t-59 -12
q-32 0 -59.5 12t-48 32.5t-32.5 48t-12 59.5t12 59.5t33 48t48.5 32.5t58.5 12z" />
    <glyph glyph-name="guilsinglleft" unicode="&#x2039;" horiz-adv-x="312" 
d="M183 0l-147 225l147 224h88l-148 -224l148 -225h-88z" />
    <glyph glyph-name="guilsinglright" unicode="&#x203a;" horiz-adv-x="312" 
d="M129 449l148 -225l-148 -224h-87l148 224l-148 225h87z" />
    <glyph glyph-name="fraction" unicode="&#x2044;" horiz-adv-x="198" 
d="M-95 -27h-67l454 718h68z" />
    <glyph glyph-name="Euro" unicode="&#x20ac;" horiz-adv-x="610" 
d="M498 444l-14 -76h-288q-2 -14 -1.5 -28.5t1.5 -25.5h278l-14 -76h-252q12 -43 31 -73t43 -48.5t52 -27t58 -8.5q33 0 60 7.5t48 18.5t36.5 22t24.5 19v-107q-9 -6 -23.5 -15t-35.5 -16.5t-49 -13t-64 -5.5q-54 0 -95 14t-71 36t-50.5 50t-34 55t-21 51.5t-10.5 40.5h-79
l14 76h56q-1 16 -0.5 28t1.5 26h-71l13 76h69q8 37 28.5 80.5t55 80.5t84 61.5t116.5 24.5q59 0 103 -12.5t68 -20.5l-19 -93q-32 13 -69 24.5t-86 11.5q-23 0 -49 -5.5t-50.5 -22.5t-46.5 -47.5t-37 -81.5h290z" />
    <glyph glyph-name="afii61289" unicode="&#x2113;" horiz-adv-x="464" 
d="M303 606q0 18 -7.5 34t-27.5 16t-33 -21t-13 -80v-150q4 5 7.5 9.5t6.5 10.5q29 42 48 90t19 91zM380 46q-20 -21 -52 -40.5t-72 -19.5q-29 0 -49.5 8.5t-36.5 24.5q-20 20 -29.5 53t-9.5 72v96q-14 -15 -26.5 -29.5t-26.5 -29.5q-8 11 -17 22.5t-17 22.5
q22 24 43.5 47.5t43.5 47.5v224q0 94 36.5 138.5t92.5 44.5q29 0 48.5 -10.5t31.5 -27t17 -36t5 -37.5q0 -74 -31.5 -137t-79.5 -126q-7 -8 -15.5 -19t-13.5 -18v-168q0 -52 16.5 -72t39.5 -20q22 0 40 13t33 30q8 -14 15 -27t14 -27z" />
    <glyph glyph-name="trademark" unicode="&#x2122;" horiz-adv-x="1000" 
d="M480 682h98l100 -318l97 318h96v-397h-61v333l-102 -333h-60l-107 338v-338h-61v397zM240 623h-130v59h325v-59h-129v-338h-66v338z" />
    <glyph glyph-name="Omega" unicode="&#x2126;" horiz-adv-x="761" 
d="M62 87h167q-44 31 -78 63.5t-57.5 69t-36 79t-12.5 93.5q0 62 20 110.5t63 91.5q51 51 112.5 73.5t142.5 22.5q80 0 143.5 -24t107 -65t66.5 -95t23 -114q0 -54 -13 -97t-37.5 -79t-59 -67.5t-76.5 -61.5h166v-87h-257v88q40 33 72 66.5t55 70t35.5 76.5t12.5 86
q0 49 -18.5 88t-51 66t-76.5 41.5t-96 14.5q-53 0 -95.5 -16t-73 -44t-47 -66t-16.5 -82q0 -51 14 -93.5t38 -79.5t55 -68.5t65 -59.5v-88h-257v87z" />
    <glyph glyph-name="estimated" unicode="&#x212e;" horiz-adv-x="637" 
d="M456 457q-62 64 -151 64q-88 0 -148 -62v-150h299v148zM157 272v-187q60 -60 149 -60q67 0 116 31.5t84 91.5q9 -5 17.5 -10.5t17.5 -10.5q-22 -33 -45.5 -58.5t-52 -43.5t-62 -27.5t-75.5 -9.5q-62 0 -111 22t-83.5 60.5t-53 90.5t-18.5 111t18.5 111t53 90.5t83.5 60.5
t111 22q64 0 113.5 -22t83.5 -60t53 -90t21 -112h-420z" />
    <glyph glyph-name="onethird" unicode="&#x2153;" horiz-adv-x="844" 
d="M568 80q11 -7 36 -18t58 -11q3 0 12.5 1t19.5 6.5t18 15.5t8 28q0 19 -8 30t-20.5 16.5t-27.5 7t-28 1.5v52q11 0 25 1t26.5 5.5t21 14.5t8.5 29q0 17 -14 33t-49 16q-24 0 -42 -6.5t-34 -14.5v56q9 4 29 10.5t53 6.5q22 0 44.5 -5t40.5 -16.5t29 -30t11 -45.5
q0 -22 -9.5 -41.5t-37.5 -33.5q25 -11 39.5 -31.5t14.5 -52.5q0 -24 -10.5 -44.5t-28 -34.5t-41 -22t-50.5 -8q-35 0 -58.5 8.5t-35.5 13.5v63zM216 -27h-67l455 718h67zM195 332h-69v355h69v-355z" />
    <glyph glyph-name="twothirds" unicode="&#x2154;" horiz-adv-x="844" 
d="M568 80q11 -7 36 -18t58 -11q3 0 12.5 1t19.5 6.5t18 15.5t8 28q0 19 -8 30t-20.5 16.5t-27.5 7t-28 1.5v52q11 0 25 1t26.5 5.5t21 14.5t8.5 29q0 17 -14 33t-49 16q-24 0 -42 -6.5t-34 -14.5v56q9 4 29 10.5t53 6.5q22 0 44.5 -5t40.5 -16.5t29 -30t11 -45.5
q0 -22 -9.5 -41.5t-37.5 -33.5q4 -2 13 -7t18 -14.5t16 -24.5t7 -38q0 -24 -10.5 -44.5t-28 -34.5t-41 -22t-50.5 -8q-35 0 -58.5 8.5t-35.5 13.5v63zM234 -27h-67l454 718h68zM294 332h-267v7q7 7 21 21.5t31 33.5t36 41t36 43q28 35 36 56t8 40t-7 30.5t-16.5 18.5
t-20.5 9.5t-20 2.5q-19 0 -34.5 -7t-27.5 -16t-20.5 -19t-13.5 -16v78q14 11 39.5 23.5t63.5 12.5q55 0 91 -31t36 -80q0 -25 -10 -49.5t-27 -48.5t-39 -48t-45 -48h150v-54z" />
    <glyph glyph-name="oneeighth" unicode="&#x215b;" horiz-adv-x="844" 
d="M222 -27h-67l454 718h68zM195 332h-69v355h69v-355zM748 102q0 7 -3 16t-10.5 16.5t-20 13t-31.5 5.5q-20 0 -32 -5.5t-19.5 -13.5t-10 -17t-2.5 -16q0 -18 15 -34.5t50 -16.5t49.5 16.5t14.5 35.5zM743 257q0 17 -13.5 32.5t-44.5 15.5q-24 0 -41 -12.5t-17 -35.5
q0 -13 6 -22.5t15 -15.5t19.5 -8.5t18.5 -2.5q18 0 37.5 11.5t19.5 37.5zM764 181q32 -17 43 -38.5t11 -43.5q0 -21 -9.5 -40t-27.5 -33t-42.5 -22.5t-54.5 -8.5t-55 8.5t-43 23t-27.5 33.5t-9.5 39q0 4 1 13.5t6.5 21t16.5 24t31 23.5q-5 4 -13 10t-15.5 15.5t-12.5 22
t-5 29.5q0 22 10.5 41t28 32.5t41 21t49.5 7.5q24 0 47 -7.5t40 -21t27.5 -32.5t10.5 -41q0 -17 -9.5 -38t-38.5 -39z" />
    <glyph glyph-name="threeeighths" unicode="&#x215c;" horiz-adv-x="844" 
d="M225 -27h-67l454 718h68zM45 412q11 -7 36 -18t58 -11q3 0 12.5 1t19.5 6t18 15.5t8 28.5q0 19 -8 30t-20.5 16t-27.5 6.5t-28 2.5v52q11 0 25 1t26.5 5.5t21 14.5t8.5 29q0 17 -14 32.5t-49 15.5q-24 0 -42 -6t-34 -14v55q9 5 29 11t53 6q22 0 44.5 -5t40.5 -16t29 -30
t11 -46q0 -21 -9.5 -41t-37.5 -34q5 -2 12 -5.5t15 -10.5q15 -14 21 -32t6 -35q0 -24 -10.5 -44.5t-28 -34.5t-41 -22t-50.5 -8q-35 0 -58.5 8.5t-35.5 13.5v63zM748 102q0 7 -3 16t-10.5 16.5t-20 13t-31.5 5.5q-20 0 -32 -5.5t-19.5 -13.5t-10 -17t-2.5 -16
q0 -18 15 -34.5t50 -16.5t49.5 16.5t14.5 35.5zM743 257q0 17 -13.5 32.5t-44.5 15.5q-24 0 -41 -12.5t-17 -35.5q0 -13 6 -22.5t15 -15.5t19.5 -8.5t18.5 -2.5q18 0 37.5 11.5t19.5 37.5zM764 181q32 -17 43 -38.5t11 -43.5q0 -21 -9.5 -40t-27.5 -33t-42.5 -22.5
t-54.5 -8.5t-55 8.5t-43 23t-27.5 33.5t-9.5 39q0 4 1 13.5t6.5 21t16.5 24t31 23.5q-5 4 -13 10t-15.5 15.5t-12.5 22t-5 29.5q0 22 10.5 41t28 32.5t41 21t49.5 7.5q24 0 47 -7.5t40 -21t27.5 -32.5t10.5 -41q0 -17 -9.5 -38t-38.5 -39z" />
    <glyph glyph-name="fiveeighths" unicode="&#x215d;" horiz-adv-x="844" 
d="M222 -27h-67l454 718h68zM257 636h-126v-82q43 0 71.5 -11t45 -28t23 -36.5t6.5 -36.5q0 -23 -9.5 -44t-27.5 -37t-44 -25t-59 -9q-36 0 -62 9t-39 14v61q13 -8 37 -18.5t54 -10.5q32 0 56 15.5t24 44.5q0 17 -9 29t-22.5 19.5t-29.5 10.5t-31 3q-5 0 -20 -1t-29 -7v191
h191v-51zM748 102q0 7 -3 16t-10.5 16.5t-20 13t-31.5 5.5q-20 0 -32 -5.5t-19.5 -13.5t-10 -17t-2.5 -16q0 -18 15 -34.5t50 -16.5t49.5 16.5t14.5 35.5zM743 257q0 17 -13.5 32.5t-44.5 15.5q-24 0 -41 -12.5t-17 -35.5q0 -13 6 -22.5t15 -15.5t19.5 -8.5t18.5 -2.5
q18 0 37.5 11.5t19.5 37.5zM764 181q32 -17 43 -38.5t11 -43.5q0 -21 -9.5 -40t-27.5 -33t-42.5 -22.5t-54.5 -8.5t-55 8.5t-43 23t-27.5 33.5t-9.5 39q0 4 1 13.5t6.5 21t16.5 24t31 23.5q-5 4 -13 10t-15.5 15.5t-12.5 22t-5 29.5q0 22 10.5 41t28 32.5t41 21t49.5 7.5
q24 0 47 -7.5t40 -21t27.5 -32.5t10.5 -41q0 -17 -9.5 -38t-38.5 -39z" />
    <glyph glyph-name="seveneighths" unicode="&#x215e;" horiz-adv-x="844" 
d="M219 -27h-67l455 718h67zM135 327l-62 23l147 284h-172v57h273zM748 102q0 7 -3 16t-10.5 16.5t-20 13t-31.5 5.5q-20 0 -32 -5.5t-19.5 -13.5t-10 -17t-2.5 -16q0 -18 15 -34.5t50 -16.5t49.5 16.5t14.5 35.5zM743 257q0 17 -13.5 32.5t-44.5 15.5q-24 0 -41 -12.5
t-17 -35.5q0 -13 6 -22.5t15 -15.5t19.5 -8.5t18.5 -2.5q18 0 37.5 11.5t19.5 37.5zM764 181q32 -17 43 -38.5t11 -43.5q0 -21 -9.5 -40t-27.5 -33t-42.5 -22.5t-54.5 -8.5t-55 8.5t-43 23t-27.5 33.5t-9.5 39q0 4 1 13.5t6.5 21t16.5 24t31 23.5q-5 4 -13 10t-15.5 15.5
t-12.5 22t-5 29.5q0 22 10.5 41t28 32.5t41 21t49.5 7.5q24 0 47 -7.5t40 -21t27.5 -32.5t10.5 -41q0 -17 -9.5 -38t-38.5 -39z" />
    <glyph glyph-name="partialdiff" unicode="&#x2202;" horiz-adv-x="537" 
d="M396 352q-11 33 -34.5 53t-61.5 20q-33 0 -62.5 -20t-52.5 -54.5t-36.5 -80.5t-13.5 -98q0 -50 22 -78t59 -28q33 0 61 22t51.5 60.5t40.5 90.5t27 113zM508 482q0 -44 -6 -93t-18 -100q-14 -55 -37 -108.5t-56.5 -96t-77 -68.5t-97.5 -26q-40 0 -73 13.5t-57 38.5
t-37 59.5t-13 76.5q0 73 22 132t57.5 100.5t80.5 63.5t92 22q45 0 74.5 -19t42.5 -42h2q2 15 3.5 31t1.5 36q0 79 -33.5 115t-89.5 36q-22 0 -44.5 -6t-41.5 -17q-6 17 -11.5 33.5t-10.5 33.5q20 13 52.5 22t67.5 9q46 0 84 -15.5t65.5 -46t42.5 -77t15 -107.5z" />
    <glyph glyph-name="Delta" unicode="&#x2206;" horiz-adv-x="663" 
d="M332 531l-194 -444h389zM663 0h-663l301 686h63z" />
    <glyph glyph-name="product" unicode="&#x220f;" horiz-adv-x="667" 
d="M493 -230v844h-318v-844h-100v930h518v-930h-100z" />
    <glyph glyph-name="summation" unicode="&#x2211;" horiz-adv-x="589" 
d="M25 -230v49q70 106 140 210t140 210q-66 102 -130 203t-130 203v55h469v-81h-353q62 -95 122.5 -188.5t121.5 -189.5q-65 -98 -129.5 -195t-130.5 -195h390v-81h-510z" />
    <glyph glyph-name="minus" unicode="&#x2212;" horiz-adv-x="583" 
d="M55 300v82h473v-82h-473z" />
    <glyph glyph-name="uni2215" unicode="&#x2215;" horiz-adv-x="198" 
d="M-95 -27h-67l454 718h68z" />
    <glyph glyph-name="uni2219" unicode="&#x2219;" horiz-adv-x="260" 
d="M130 400q23 0 38.5 -16t15.5 -39t-15.5 -38.5t-38.5 -15.5t-38.5 15.5t-15.5 38.5t16 39t38 16z" />
    <glyph glyph-name="radical" unicode="&#x221a;" horiz-adv-x="461" 
d="M474 728q-41 -186 -80.5 -370t-79.5 -370h-86q-29 81 -58.5 161.5t-59.5 161.5q-13 -8 -25.5 -16t-25.5 -16q-8 14 -16.5 27t-16.5 26q32 21 64.5 42t64.5 42q29 -79 57.5 -157t57.5 -157q33 158 66.5 313.5t67.5 312.5h70v0z" />
    <glyph glyph-name="infinity" unicode="&#x221e;" horiz-adv-x="723" 
d="M319 292q-23 38 -53.5 65t-66.5 27q-44 0 -65 -28t-21 -66q0 -39 24 -65.5t62 -26.5q40 0 70 29t50 65zM599 293q0 38 -21.5 64.5t-64.5 26.5q-38 0 -66 -25t-54 -67q23 -45 54 -69.5t66 -24.5q43 0 64.5 28.5t21.5 66.5zM679 293q0 -35 -12 -65t-33 -52.5t-49.5 -35
t-62.5 -12.5q-54 0 -96.5 28.5t-68.5 72.5h-2q-29 -42 -69 -71.5t-92 -29.5q-32 0 -60.5 11t-51 31.5t-35.5 51t-13 69.5q0 38 13 68.5t35 51.5t50.5 32t59.5 11q30 0 55 -9t45 -23t36 -32t27 -36h2q10 16 25.5 33.5t35.5 32.5t45.5 24.5t55.5 9.5q34 0 63 -12t50.5 -33.5
t34 -51t12.5 -64.5z" />
    <glyph glyph-name="integral" unicode="&#x222b;" horiz-adv-x="462" 
d="M383 665q-16 7 -39 7q-71 0 -71 -91v-631q0 -38 -9 -70.5t-28.5 -56t-49 -36.5t-69.5 -13q-18 0 -39 3t-32 8l18 72q16 -6 39 -6q71 0 71 90v631q0 39 9.5 71.5t29.5 56t50 36.5t71 13q20 0 40.5 -4t28.5 -9q-5 -17 -10 -35z" />
    <glyph glyph-name="approxequal" unicode="&#x2248;" horiz-adv-x="583" 
d="M523 198q-26 -39 -57 -62.5t-77 -23.5q-54 0 -104 31q-21 13 -43 22.5t-45 9.5q-27 0 -47.5 -21t-34.5 -44l-54 61q24 35 55 60.5t79 25.5q29 0 54.5 -8.5t48.5 -22.5q25 -15 45.5 -23.5t43.5 -8.5q26 0 47 19.5t35 44.5l54 -60v0zM523 421q-26 -38 -57 -62t-77 -24
q-54 0 -104 31q-21 13 -43 22.5t-45 9.5q-27 0 -47.5 -21t-34.5 -44l-54 61q24 35 55 60.5t79 25.5q29 0 54.5 -8.5t48.5 -22.5q25 -15 45.5 -23.5t43.5 -8.5q26 0 47 19.5t35 45.5l54 -61v0z" />
    <glyph glyph-name="notequal" unicode="&#x2260;" horiz-adv-x="583" 
d="M266 144l-52 -117h-89l53 117h-94v82h131l64 142h-195v82h232l56 127h89l-57 -127h95v-82h-132l-64 -142h196v-82h-233z" />
    <glyph glyph-name="lessequal" unicode="&#x2264;" horiz-adv-x="583" 
d="M84 324v68l415 186v-87l-306 -132v-2l306 -133v-86zM84 0v82h415v-82h-415z" />
    <glyph glyph-name="greaterequal" unicode="&#x2265;" horiz-adv-x="583" 
d="M84 139v87l306 132v2l-306 132v87l415 -186v-69zM84 0v82h415v-82h-415z" />
    <glyph glyph-name="lozenge" unicode="&#x25ca;" horiz-adv-x="516" 
d="M376 350q-32 64 -65 127.5t-66 127.5q-32 -64 -65 -127.5t-65 -127.5q32 -64 64.5 -127.5t65.5 -127.5q33 64 65.5 127.5t65.5 127.5zM451 350q-46 -88 -91 -175t-91 -175h-48q-45 88 -90.5 174.5t-90.5 174.5q45 88 90.5 175.5t90.5 175.5h48q46 -88 91 -175t91 -175z
" />
    <glyph glyph-name="zero.fitted" unicode="&#xf639;" 
d="M250 598q-22 0 -44 -13.5t-39 -44t-28 -79t-11 -118.5q0 -79 12 -129.5t30 -79t39 -39.5t40 -11t41 11.5t40 40t30 78t12 126.5q0 87 -15 138.5t-35 78t-40.5 34t-31.5 7.5zM254 691q46 0 85.5 -25.5t68.5 -71.5t45.5 -110t16.5 -141q0 -81 -17 -146t-46.5 -111
t-70 -70.5t-86.5 -24.5q-48 0 -88 24t-69.5 69.5t-46 110.5t-16.5 146q0 87 19.5 153t51 109.5t71.5 65.5t82 22z" />
    <glyph glyph-name="two.fitted" unicode="&#xf63a;" horiz-adv-x="489" 
d="M459 0h-432v7q28 34 60 73.5t64 80.5t61 82t51 78q20 35 34.5 69t14.5 77q0 37 -12.5 62t-30.5 39t-38.5 20t-36.5 6q-42 0 -82 -24.5t-71 -67.5v124q12 10 28 21t36.5 21t45.5 16.5t55 6.5q44 0 81.5 -15.5t64.5 -43.5t42.5 -66.5t15.5 -84.5q0 -49 -16 -95t-44.5 -92.5
t-67 -95.5t-83.5 -104h260v-94z" />
    <glyph glyph-name="three.fitted" unicode="&#xf63b;" horiz-adv-x="447" 
d="M32 136q35 -22 72.5 -35t77.5 -13q19 0 38 5.5t34.5 18t25.5 33t10 50.5q0 20 -6.5 40t-22.5 36t-43.5 26t-69.5 10v90q30 0 55 5.5t43 17.5t28.5 31.5t10.5 48.5q0 17 -6.5 35t-20.5 33t-36.5 24.5t-54.5 9.5q-40 0 -70 -12t-48 -21v93q35 17 67 23t63 6q42 0 79 -11
t64 -34t43 -57.5t16 -80.5q0 -37 -9.5 -62.5t-23 -42.5t-28.5 -27t-26 -16q27 -9 46 -27t30.5 -40t16.5 -46.5t5 -48.5q0 -48 -17 -86.5t-46 -65t-66.5 -41t-78.5 -14.5q-25 0 -64 6.5t-88 32.5v106z" />
    <glyph glyph-name="four.fitted" unicode="&#xf63c;" 
d="M300 506l-158 -198h158v198zM395 308h76v-84h-76v-224h-95v224h-289v43l344 424h40v-383z" />
    <glyph glyph-name="five.fitted" unicode="&#xf63d;" horiz-adv-x="457" 
d="M386 595h-214v-172q57 3 103 -12t78 -44t49.5 -69t17.5 -88q0 -45 -15 -84.5t-44.5 -69.5t-71.5 -47.5t-96 -17.5q-45 0 -83.5 11t-77.5 31v101q27 -18 51.5 -28t44 -14.5t32 -5t16.5 -0.5q31 0 57.5 9.5t46 26t30.5 39t11 49.5q0 37 -17.5 61.5t-42.5 39t-51.5 20.5
t-45.5 6q-8 0 -19 -0.5t-22.5 -1.5t-22.5 -3t-17 -5v355h303v-87z" />
    <glyph glyph-name="six.fitted" unicode="&#xf63e;" 
d="M146 265q-2 -9 -3 -20.5t-1 -31.5q0 -35 11.5 -59.5t28.5 -40.5t38 -23.5t41 -7.5q21 0 40.5 7.5t34.5 22t24 35t9 47.5q0 30 -11 51t-28.5 34t-38.5 19t-40 6q-38 0 -61.5 -12.5t-43.5 -26.5zM376 616q-59 -38 -96.5 -75t-60.5 -70t-34.5 -60t-17.5 -45q40 21 69.5 24.5
t38.5 3.5q38 0 72.5 -14.5t60.5 -40.5t41.5 -62.5t15.5 -79.5q0 -44 -16 -81.5t-44 -65t-65.5 -43.5t-79.5 -16q-32 0 -69.5 12t-70 40.5t-54.5 75.5t-22 118q0 85 32.5 168.5t95.5 157.5q18 21 35 38t34.5 32t36 29t39.5 29z" />
    <glyph glyph-name="seven.fitted" unicode="&#xf63f;" horiz-adv-x="472" 
d="M160 -9l-87 38l250 560h-295v93h441z" />
    <glyph glyph-name="eight.fitted" unicode="&#xf640;" 
d="M369 193q0 19 -7 38t-21.5 34t-37.5 24.5t-54 9.5q-33 0 -55.5 -10.5t-36.5 -26.5t-20 -35t-6 -35q0 -20 7.5 -39t22.5 -34t37.5 -24.5t53.5 -9.5q30 0 52.5 9.5t36.5 24.5t21 34.5t7 39.5zM361 496q0 18 -7 36.5t-20.5 33t-33.5 23.5t-47 9q-45 0 -77 -27t-32 -74
q0 -26 11 -45.5t27.5 -32t35.5 -19t36 -6.5q18 0 37 7t34.5 20t25.5 32t10 43zM373 348q10 -6 26 -17.5t31.5 -30t26.5 -46.5t11 -67t-15 -74.5t-43.5 -62.5t-68.5 -43t-90 -16t-90 16.5t-69 43.5t-44.5 62.5t-15.5 74.5q0 21 8.5 55.5t41.5 69.5q14 14 25 21l22 14
q-11 9 -24.5 21.5t-26.5 30.5t-21.5 42.5t-8.5 56.5q0 42 16.5 77t45 60.5t66 40t79.5 14.5q40 0 77 -14t65 -39.5t44.5 -60.5t16.5 -77q0 -45 -19.5 -82.5t-65.5 -69.5z" />
    <glyph glyph-name="nine.fitted" unicode="&#xf641;" 
d="M354 416q2 12 3.5 25.5t1.5 27.5q0 20 -6 43t-19.5 42.5t-36 32.5t-55.5 13q-31 0 -52 -11.5t-33.5 -29t-18 -37t-5.5 -34.5q0 -27 11 -47t28 -34t37 -21t38 -7q8 0 37 5t70 32zM127 63q17 11 47 33.5t61.5 55t59 74.5t40.5 93q-48 -29 -109 -29q-42 0 -77 17t-60 44.5
t-39 63t-14 73.5t14.5 74.5t41 65t64 46t84.5 17.5q51 0 92 -19.5t69.5 -53t44 -79t15.5 -97.5q0 -63 -21 -128t-58 -125t-87 -111t-108 -87z" />
    <glyph glyph-name="zero.taboldstyle" unicode="&#xf643;" horiz-adv-x="506" 
d="M250 372q-24 0 -47 -9t-41 -27.5t-29 -46.5t-11 -66q0 -39 12 -66.5t31.5 -45t42.5 -26t46 -8.5q25 0 48.5 9.5t41.5 28t29 46t11 64.5q0 33 -10.5 60.5t-28.5 46.5t-42.5 29.5t-52.5 10.5zM255 458q47 0 87 -17t69 -48.5t45.5 -75t16.5 -95.5q0 -59 -20 -102.5
t-51.5 -72t-71 -42.5t-78.5 -14q-49 0 -89.5 18.5t-69 50t-44.5 74t-16 90.5q0 46 15 88.5t43.5 75t69.5 51.5t94 19z" />
    <glyph glyph-name="one.taboldstyle" unicode="&#xf644;" horiz-adv-x="506" 
d="M264 0v316l-114 -83l-40 59l211 166h32v-458h-89z" />
    <glyph glyph-name="two.taboldstyle" unicode="&#xf645;" horiz-adv-x="506" 
d="M436 0h-375q31 31 54.5 53.5t43 42t36.5 39t35 45.5q19 27 31 47.5t18 36t8 28t2 24.5q0 25 -19 43.5t-54 18.5q-23 0 -43 -8t-38 -19.5t-34 -25t-29 -24.5v98q29 22 66 40.5t85 18.5q36 0 65 -9.5t50 -26.5t32.5 -39.5t11.5 -49.5q0 -34 -13 -68t-33 -66t-43.5 -61.5
t-45.5 -55.5h189v-82z" />
    <glyph glyph-name="three.taboldstyle" unicode="&#xf646;" horiz-adv-x="506" 
d="M66 367v82h367l-156 -291q69 -14 110 -60.5t41 -120.5q0 -50 -20 -89t-52 -66t-71 -41t-76 -14q-42 0 -79 13t-64 30v93q30 -25 67.5 -39.5t75.5 -14.5q32 0 55.5 10t39.5 27t23.5 38.5t7.5 44.5q0 24 -9.5 47.5t-31.5 40.5t-57 26t-87 5l147 279h-231z" />
    <glyph glyph-name="four.taboldstyle" unicode="&#xf647;" horiz-adv-x="506" 
d="M313 73v203l-169 -203h169zM4 0v22l379 436h19v-385h95v-73h-95v-234h-89v234h-309z" />
    <glyph glyph-name="five.taboldstyle" unicode="&#xf648;" horiz-adv-x="506" 
d="M448 367h-209l-32 -201q44 1 84 -12t70.5 -37.5t48.5 -60.5t18 -80q0 -43 -16.5 -81t-46 -66.5t-70.5 -45t-90 -16.5q-30 0 -55 5.5t-45.5 13t-36 15.5t-24.5 13v100q9 -8 22.5 -19t32 -20.5t43 -16t54.5 -6.5q37 0 63 11t43 28t25 37.5t8 39.5q0 28 -15.5 53t-45 41.5
t-71.5 22.5t-95 -4l58 368h282v-82z" />
    <glyph glyph-name="six.taboldstyle" unicode="&#xf649;" horiz-adv-x="506" 
d="M141 267q-9 -49 -1.5 -85t25.5 -59.5t43 -35t51 -11.5t46.5 9.5t35 25.5t22 37.5t7.5 44.5q0 54 -34.5 84.5t-86.5 30.5q-37 0 -61 -12.5t-47 -28.5zM371 621q-55 -36 -91.5 -71.5t-60.5 -69t-37.5 -64t-22.5 -55.5q23 12 48 22t63 10q43 0 79 -16t61 -43t39 -62.5
t14 -75.5q0 -43 -16 -80.5t-44 -65t-65 -43.5t-80 -16q-33 0 -70.5 12.5t-70 41t-53.5 75.5t-21 117q0 47 12.5 104t43.5 117t83.5 120t133.5 114z" />
    <glyph glyph-name="seven.taboldstyle" unicode="&#xf64a;" horiz-adv-x="506" 
d="M164 -233l-83 36l266 564h-294v82h420z" />
    <glyph glyph-name="eight.taboldstyle" unicode="&#xf64b;" horiz-adv-x="506" 
d="M376 192q0 21 -8.5 41t-24 36t-38.5 25.5t-53 9.5q-29 0 -51.5 -9t-38 -24.5t-24 -36t-8.5 -42.5q0 -21 7.5 -41.5t23 -36t39 -25.5t55.5 -10q30 0 52.5 9.5t37.5 25t23 36t8 42.5zM372 500q0 15 -6 33.5t-20 34.5t-36.5 27t-54.5 11q-30 0 -51.5 -10t-36 -26t-21 -34.5
t-6.5 -35.5q0 -20 9 -39t25 -34.5t37.5 -25t45.5 -9.5q25 0 46 9t36.5 24t24 34.5t8.5 40.5zM353 349q60 -24 89 -69.5t29 -95.5q0 -37 -15 -71.5t-42.5 -61.5t-68 -43.5t-91.5 -16.5q-48 0 -88.5 16t-69.5 43t-45 62t-16 73q0 57 31.5 97.5t88.5 66.5q-17 11 -35 24.5
t-33.5 31.5t-25.5 42.5t-10 56.5q0 39 16 73.5t44 60.5t65.5 41t81.5 15q39 0 75.5 -14t65 -38.5t45.5 -59.5t17 -77q0 -36 -12.5 -62t-29.5 -45t-35.5 -30.5t-30.5 -18.5z" />
    <glyph glyph-name="nine.taboldstyle" unicode="&#xf64c;" horiz-adv-x="506" 
d="M365 182q9 49 1.5 85t-25.5 59.5t-43.5 35t-50.5 11.5q-26 0 -47 -9.5t-35 -25.5t-21.5 -37.5t-7.5 -44.5q0 -54 34.5 -84.5t86.5 -30.5q37 0 61 12.5t47 28.5zM136 -162q55 36 91.5 70t60 65.5t37 60t22.5 54.5q-23 -12 -48 -22t-63 -10q-44 0 -79.5 16t-60.5 43
t-39 62.5t-14 75.5q0 43 16 80t43.5 65t65 44t80.5 16q33 0 70.5 -12.5t70 -41t53.5 -75.5t21 -117q0 -47 -12.5 -102.5t-43 -113.5t-83 -116.5t-133.5 -112.5z" />
    <glyph glyph-name="zero.denominator" unicode="&#xf655;" horiz-adv-x="323" 
d="M161 305q-11 0 -23 -7t-21.5 -22t-15.5 -39.5t-6 -59.5q0 -38 6.5 -62.5t16 -39t21 -20.5t22.5 -6q30 0 48.5 35.5t18.5 91.5q0 40 -7 65t-17.5 39t-22 19.5t-20.5 5.5zM164 359q29 0 53.5 -13.5t42 -38t27.5 -57.5t10 -72q0 -43 -10.5 -77t-29 -57.5t-43 -36
t-52.5 -12.5q-59 0 -97.5 47.5t-38.5 134.5q0 49 12.5 83.5t32.5 56.5t44.5 32t48.5 10z" />
    <glyph glyph-name="one.denominator" unicode="&#xf656;" horiz-adv-x="323" 
d="M196 0h-69v355h69v-355z" />
    <glyph glyph-name="two.denominator" unicode="&#xf657;" horiz-adv-x="323" 
d="M295 0h-267v7q7 7 21 22t31 33.5t36 40.5t36 43q27 35 35.5 56t8.5 40q0 18 -6.5 30t-16.5 19t-21 10t-20 3q-19 0 -34.5 -7t-27.5 -16.5t-20.5 -19.5t-12.5 -16v79q13 9 38.5 22.5t63.5 13.5q27 0 50.5 -8.5t40.5 -23t26.5 -35t9.5 -44.5q0 -26 -10 -50.5t-27 -48.5
t-39 -48t-45 -48h150v-54z" />
    <glyph glyph-name="three.denominator" unicode="&#xf658;" horiz-adv-x="323" 
d="M46 80q11 -7 36.5 -18t57.5 -11q3 0 12.5 1t19.5 6t18 15.5t8 28.5q0 19 -8 30t-20.5 16.5t-27.5 7t-28 1.5v52q10 0 24 0.5t27 5t21.5 15t8.5 29.5q0 7 -2.5 15.5t-10 15.5t-20 12t-31.5 5q-23 0 -41 -6.5t-34 -14.5v56q9 4 29 10.5t53 6.5q22 0 44.5 -5t40.5 -16
t29 -30t11 -46q0 -19 -8.5 -39t-38.5 -35q20 -8 31 -20.5t16 -25.5t6 -23.5t1 -14.5q0 -24 -10.5 -44.5t-28 -34.5t-41 -22t-50.5 -8t-50.5 6.5t-43.5 15.5v63z" />
    <glyph glyph-name="four.denominator" unicode="&#xf659;" horiz-adv-x="323" 
d="M185 248l-78 -84h78v84zM253 164h45v-49h-45v-115h-68v115h-170v25l205 220h33v-196z" />
    <glyph glyph-name="five.denominator" unicode="&#xf65a;" horiz-adv-x="323" 
d="M258 304h-126v-81q43 0 71.5 -11.5t45 -28t23 -36.5t6.5 -37q0 -23 -9.5 -44t-27.5 -37t-44 -25t-59 -9q-36 0 -62 9t-38 15v61q10 -6 34.5 -18t55.5 -12q32 0 56 16t24 45q0 17 -8.5 28.5t-22 19t-30 10.5t-31.5 3q-5 0 -19.5 -1t-28.5 -7v191h190v-51z" />
    <glyph glyph-name="six.denominator" unicode="&#xf65b;" horiz-adv-x="323" 
d="M106 137q-2 -7 -2 -13v-12q0 -18 6.5 -30.5t16 -20t21 -10.5t20.5 -3q23 0 40.5 14t17.5 40q0 16 -7 26.5t-16.5 16.5t-20.5 8t-20 2q-20 0 -33.5 -6t-22.5 -12zM243 317q-45 -25 -74.5 -52.5t-46.5 -66.5q23 10 52 10q28 0 50.5 -8.5t38 -23t23.5 -33.5t8 -39
q0 -23 -10 -42.5t-27 -34.5t-40 -23.5t-50 -8.5q-22 0 -45.5 7t-43 22.5t-32 39.5t-12.5 59q0 54 23.5 97t54.5 74q22 22 42.5 36.5t47.5 31.5z" />
    <glyph glyph-name="seven.denominator" unicode="&#xf65c;" horiz-adv-x="323" 
d="M124 -5l-61 23l147 285h-173v54h273z" />
    <glyph glyph-name="eight.denominator" unicode="&#xf65d;" horiz-adv-x="323" 
d="M226 97q0 16 -6 27t-15.5 17.5t-21 9t-22.5 2.5q-19 0 -31.5 -5.5t-19.5 -13.5t-10 -17t-3 -16q0 -18 15 -34.5t50 -16.5q21 0 33.5 6t19 14t9 15.5t2.5 11.5zM221 256q0 20 -14.5 34.5t-43.5 14.5q-23 0 -40.5 -12.5t-17.5 -35.5q0 -13 6 -22.5t15 -15.5t19.5 -8.5
t18.5 -2.5q20 0 38.5 12.5t18.5 35.5zM242 181q23 -12 38.5 -34t15.5 -48q0 -21 -9.5 -40t-27.5 -33t-42.5 -22.5t-54.5 -8.5t-55 8.5t-43 23t-27.5 33.5t-9.5 39q0 5 1.5 15t7 21.5t16.5 23.5t31 22q-5 4 -13 10t-15.5 15.5t-13 22t-5.5 29.5q0 22 10.5 41t28 32.5t41 21
t49.5 7.5q24 0 47 -7.5t40 -21t27.5 -32.5t10.5 -41q0 -17 -9.5 -37.5t-38.5 -39.5z" />
    <glyph glyph-name="nine.denominator" unicode="&#xf65e;" horiz-adv-x="323" 
d="M220 219q1 5 2 12t1 13q0 9 -3 20.5t-10 21t-19.5 16t-30.5 6.5t-29 -6t-18 -14t-9.5 -17.5t-2.5 -15.5q0 -14 6 -23.5t15 -16.5t20 -10t21 -3q7 0 22 3t35 14zM85 38q9 5 25.5 15.5t34.5 25.5t34.5 35.5t26.5 45.5q-12 -4 -25 -7t-30 -3q-27 0 -49 9t-37.5 24t-24 33.5
t-8.5 37.5q0 20 9 39.5t25.5 34.5t40 24.5t52.5 9.5q33 0 58.5 -11t43 -29.5t26 -41.5t8.5 -47q0 -32 -11.5 -65t-33.5 -64.5t-53.5 -59.5t-70.5 -49z" />
    <glyph glyph-name="zero.numerator" unicode="&#xf661;" horiz-adv-x="323" 
d="M161 637q-11 0 -23 -7t-21.5 -22t-15.5 -39.5t-6 -59.5q0 -38 6.5 -62.5t16 -39t21 -20.5t22.5 -6q30 0 48.5 35.5t18.5 91.5q0 40 -7 65t-17.5 39t-22 19.5t-20.5 5.5zM164 691q28 0 52.5 -13t42.5 -36.5t28 -57t10 -74.5q0 -43 -10.5 -77t-29 -57.5t-43 -36
t-52.5 -12.5q-59 0 -97.5 47.5t-38.5 134.5q0 52 13.5 87t34 56t45 30t45.5 9z" />
    <glyph glyph-name="one.numerator" unicode="&#xf662;" horiz-adv-x="323" 
d="M196 332h-69v355h69v-355z" />
    <glyph glyph-name="two.numerator" unicode="&#xf663;" horiz-adv-x="323" 
d="M295 332h-267v7q7 7 21 21.5t31 33.5t36 41t36 43q28 35 36 56t8 40t-7 30.5t-16.5 18.5t-20.5 9.5t-20 2.5q-19 0 -34.5 -7t-27.5 -16t-20.5 -19t-12.5 -16v78q14 11 39 23.5t63 12.5q55 0 91 -31t36 -80q0 -25 -10 -49.5t-27 -48.5t-39 -48t-45 -48h150v-54z" />
    <glyph glyph-name="three.numerator" unicode="&#xf664;" horiz-adv-x="323" 
d="M46 412q11 -7 36.5 -18t57.5 -11q3 0 12.5 1t19.5 6t18 15.5t8 28.5q0 19 -8 30t-20.5 16t-27.5 6.5t-28 2.5v52q11 0 25 1t26.5 5.5t21 14.5t8.5 29q0 17 -14 32.5t-49 15.5q-24 0 -41.5 -6t-34.5 -14v55q9 5 29 11t53 6q22 0 44.5 -5t40.5 -16t29 -30t11 -46
q0 -21 -9.5 -41t-37.5 -34q20 -8 31 -20.5t16 -25t6 -23t1 -14.5q0 -24 -10.5 -44.5t-28 -34.5t-41 -22t-50.5 -8q-34 0 -58 8.5t-36 13.5v63z" />
    <glyph glyph-name="four.numerator" unicode="&#xf665;" horiz-adv-x="323" 
d="M185 580l-78 -85h78v85zM253 495h45v-49h-45v-114h-68v114h-170v26l205 219h33v-196z" />
    <glyph glyph-name="five.numerator" unicode="&#xf666;" horiz-adv-x="323" 
d="M258 636h-126v-82q43 0 71.5 -11t45 -28t23 -36.5t6.5 -36.5q0 -23 -9.5 -44t-27.5 -37t-44 -25t-59 -9q-36 0 -62 9t-38 14v61q12 -8 36 -18.5t54 -10.5q32 0 56 15.5t24 44.5q0 17 -9 29t-22.5 19.5t-29.5 10.5t-31 3q-5 0 -19.5 -1t-28.5 -7v191h190v-51z" />
    <glyph glyph-name="six.numerator" unicode="&#xf667;" horiz-adv-x="323" 
d="M106 469q-1 -5 -1.5 -10t-0.5 -16q0 -33 21.5 -48t42.5 -15q23 0 40.5 14t17.5 40q0 16 -7 26.5t-17 16.5t-21 8t-19 2q-20 0 -33 -6t-23 -12zM243 649q-45 -25 -74.5 -53t-46.5 -66q12 5 25 7t27 2q28 0 50.5 -8.5t38 -23t23.5 -33.5t8 -39q0 -23 -10 -42.5t-27 -34
t-40 -23t-50 -8.5q-22 0 -45.5 7t-43 22t-32 39.5t-12.5 59.5q0 53 23.5 96t54.5 75q22 22 42.5 36.5t47.5 31.5z" />
    <glyph glyph-name="seven.numerator" unicode="&#xf668;" horiz-adv-x="323" 
d="M136 327l-62 23l147 284h-172v54h273z" />
    <glyph glyph-name="eight.numerator" unicode="&#xf669;" horiz-adv-x="323" 
d="M226 434q0 7 -3 15.5t-10 16t-20 13t-32 5.5t-31.5 -5.5t-19.5 -13.5t-10 -16.5t-3 -15.5q0 -18 15 -35t50 -17t49.5 17t14.5 36zM221 589q0 17 -13.5 32.5t-44.5 15.5q-24 0 -41 -12.5t-17 -35.5q0 -14 6.5 -23.5t15.5 -15.5t19 -8.5t18 -2.5q18 0 37.5 12t19.5 38z
M242 513q32 -17 43 -39t11 -44q0 -21 -9.5 -39.5t-27.5 -33t-42.5 -22.5t-54.5 -8t-55 8.5t-43 23t-27.5 33.5t-9.5 39q0 4 1 13.5t6.5 21t17 24t31.5 23.5q-5 4 -13 10t-15.5 15.5t-13 22t-5.5 29.5q0 22 10.5 40.5t28 32t41 21t49.5 7.5q24 0 47 -7.5t40 -20.5t27.5 -32
t10.5 -41q0 -15 -8.5 -36.5t-39.5 -40.5z" />
    <glyph glyph-name="nine.numerator" unicode="&#xf66a;" horiz-adv-x="323" 
d="M220 551q1 5 2 11.5t1 13.5q0 8 -2.5 19t-9.5 21t-19.5 17t-31.5 7q-18 0 -29 -6t-18 -14.5t-9.5 -17.5t-2.5 -16q0 -13 6 -23t15.5 -16.5t20.5 -9.5t20 -3q8 0 23 3t34 14zM85 370q9 5 25.5 15t34.5 25.5t34.5 36t26.5 45.5q-12 -4 -24.5 -7t-30.5 -3q-27 0 -49 9
t-37.5 23.5t-24 33t-8.5 38.5t9 39t25.5 34t40 24.5t52.5 9.5q34 0 59.5 -11t42.5 -29t25.5 -41t8.5 -47q0 -33 -12 -66.5t-34 -65t-53 -59t-70 -47.5z" />
    <glyph glyph-name="one.fitted" unicode="&#xf6dc;" horiz-adv-x="248" 
d="M173 0h-98v682h98v-682z" />
    <glyph glyph-name="lslash.sc" unicode="&#xf6f9;" horiz-adv-x="365" 
d="M254 374l1 -74l-111 -99v-124h203v-77h-286v126l-59 -52v76l59 52v281h83v-207z" />
    <glyph glyph-name="oe.sc" unicode="&#xf6fa;" horiz-adv-x="643" 
d="M338 76v332h-27q-11 0 -27.5 -0.5t-35 -5t-38.5 -14t-37 -27.5q-20 -20 -33.5 -51t-13.5 -68q0 -18 6 -46t25.5 -55t54.5 -46t94 -19h32zM607 408h-185v-125h179v-77h-179v-130h193v-76h-288q-27 0 -54 2t-53 9t-51.5 20t-50.5 34q-28 25 -44 51t-23.5 49.5t-9 43
t-1.5 31.5q0 52 20.5 99.5t60.5 82.5q26 23 55.5 35.5t57.5 18t52.5 6.5t40.5 1h280v-75z" />
    <glyph glyph-name="scaron.sc" unicode="&#xf6fd;" horiz-adv-x="339" 
d="M242 537h-144l-93 158h61l104 -93l106 93h59zM291 368q-20 14 -47 29t-67 15q-32 0 -47.5 -14t-15.5 -32q0 -13 5 -23t17.5 -21t33 -24t52.5 -32q30 -18 47.5 -37.5t26.5 -38t11 -34.5t2 -27q0 -60 -38.5 -97.5t-101.5 -37.5q-35 0 -69 11t-63 31v102q11 -11 24 -23
t28.5 -22t35 -16.5t43.5 -6.5t43 14.5t19 37.5q0 13 -6 25t-14 21.5t-18 16.5t-17 12q-35 22 -61.5 39.5t-43.5 35t-25.5 37.5t-8.5 48q0 27 9.5 51t27.5 42t44.5 28.5t61.5 10.5q15 0 44.5 -4.5t67.5 -26.5v-90z" />
    <glyph glyph-name="zcaron.sc" unicode="&#xf6ff;" horiz-adv-x="470" 
d="M308 537h-144l-93 158h61l104 -93l106 93h59zM169 76h278v-76h-435l287 407h-261v76h417z" />
    <glyph glyph-name="ampersand.sc" unicode="&#xf726;" horiz-adv-x="456" 
d="M203 293q20 15 36.5 31.5t16.5 42.5q0 18 -12.5 33t-35.5 15q-22 0 -34.5 -14t-12.5 -32q0 -21 13 -39.5t29 -36.5zM250 111l-72 88l-24 -18q-5 -3 -11.5 -9.5t-13.5 -15.5t-11.5 -19.5t-4.5 -21.5q0 -12 10.5 -26t36.5 -14q20 0 39.5 7t36.5 19zM450 0h-106l-49 59
q-9 -8 -22.5 -19t-31 -21.5t-39.5 -17.5t-47 -7q-27 0 -50 9t-40 25t-26.5 37.5t-9.5 46.5q0 26 9.5 46.5t24.5 37.5t33 31t36 26q-20 23 -36.5 49t-16.5 63q0 19 6.5 40.5t21.5 40t39.5 31t60.5 12.5q37 0 61.5 -13t39.5 -31.5t21 -39t6 -36.5q0 -25 -9 -45t-22.5 -36
t-28.5 -28t-27 -20l56 -69q14 20 22 36t16 42h84q-20 -70 -75 -130z" />
    <glyph glyph-name="zero.oldstyle" unicode="&#xf730;" horiz-adv-x="506" 
d="M250 371q-56 0 -92 -40t-36 -108q0 -38 11.5 -65.5t30.5 -45t42.5 -26t47.5 -8.5q31 0 55 11.5t40.5 31.5t25.5 47t9 57q0 38 -12 65.5t-31.5 45.5t-43 26.5t-47.5 8.5zM255 458q47 0 87 -17t69 -48.5t45.5 -75t16.5 -95.5q0 -59 -20 -102.5t-51.5 -72t-71 -42.5
t-78.5 -14q-49 0 -89.5 18.5t-69 50t-44.5 74t-16 90.5q0 46 15 88.5t43.5 75t69.5 51.5t94 19z" />
    <glyph glyph-name="one.oldstyle" unicode="&#xf731;" horiz-adv-x="389" 
d="M206 0v316l-114 -83l-40 59l212 166h32v-458h-90z" />
    <glyph glyph-name="two.oldstyle" unicode="&#xf732;" horiz-adv-x="455" 
d="M411 0h-375q33 31 57 54.5t43 43t35 39t34 43.5q35 46 48 76.5t13 60.5q0 28 -20 44.5t-53 16.5q-26 0 -48.5 -8t-40.5 -20t-32.5 -25.5t-24.5 -23.5v98q10 8 24.5 18.5t33.5 19.5t42 15t51 6q31 0 59.5 -8.5t50.5 -25t35 -39.5t13 -52q0 -34 -13 -68t-32.5 -66
t-43 -61.5t-45.5 -55.5h189v-82z" />
    <glyph glyph-name="three.oldstyle" unicode="&#xf733;" horiz-adv-x="436" 
d="M31 366v82h367l-156 -291q11 -3 25 -7t29.5 -11.5t30.5 -19t29 -29.5q21 -28 29 -58t8 -56q0 -46 -18 -84.5t-48 -66.5t-69.5 -43.5t-83.5 -15.5q-76 0 -141 42l-2 94q31 -26 67 -40t76 -14q30 0 53.5 10t40 26.5t25 38t8.5 45.5q0 26 -12.5 52.5t-47.5 46.5
q-34 20 -66.5 21t-59.5 -1l147 279h-231z" />
    <glyph glyph-name="four.oldstyle" unicode="&#xf734;" horiz-adv-x="504" 
d="M310 73v203l-167 -203h167zM3 0v22l379 436h19v-385h95v-73h-95v-234h-91v234h-307z" />
    <glyph glyph-name="five.oldstyle" unicode="&#xf735;" horiz-adv-x="467" 
d="M428 366h-209l-32 -201q39 1 78 -10t71 -35t52 -60t20 -85q0 -43 -16.5 -81t-46 -66.5t-70.5 -45t-90 -16.5q-30 0 -55 5.5t-45.5 13t-36 15.5t-24.5 13v100q9 -8 22.5 -19t32 -20.5t43 -16t54.5 -6.5q37 0 63 11t43 28t25 37.5t8 39.5q0 25 -11 46.5t-32.5 37.5
t-53 25.5t-71.5 9.5q-15 0 -28.5 -1.5t-30.5 -3.5l58 367h282v-82z" />
    <glyph glyph-name="six.oldstyle" unicode="&#xf736;" horiz-adv-x="486" 
d="M131 267q-3 -15 -4 -24t-1 -22q0 -38 11 -65t28 -44.5t39 -26t45 -8.5q21 0 41 7.5t36 22t26 36t10 50.5q0 32 -11.5 53.5t-29.5 35t-39.5 19.5t-42.5 6q-37 0 -61 -12t-47 -28zM361 621q-59 -38 -96.5 -75.5t-61 -71.5t-35.5 -63t-19 -50q23 12 48 22t63 10q43 0 79 -16
t61 -43t39 -62.5t14 -75.5q0 -43 -16 -80.5t-44 -65t-65 -43.5t-80 -16q-33 0 -70.5 12.5t-70 41t-53.5 75.5t-21 117q0 84 32.5 168.5t95.5 159.5q36 43 70.5 70.5t74.5 56.5z" />
    <glyph glyph-name="seven.oldstyle" unicode="&#xf737;" horiz-adv-x="460" 
d="M141 -233l-83 36l266 563h-294v82h420z" />
    <glyph glyph-name="eight.oldstyle" unicode="&#xf738;" horiz-adv-x="506" 
d="M376 192q0 19 -7 39t-22 36t-38.5 26t-56.5 10q-34 0 -57.5 -11t-38 -27.5t-21 -36t-6.5 -36.5q0 -21 7.5 -41t23.5 -36t39.5 -25.5t55.5 -9.5q31 0 54 10t38 26t22 36t7 40zM369 499q0 19 -7 38t-21.5 34t-36 24.5t-49.5 9.5q-23 0 -43 -7.5t-35.5 -21t-24.5 -33
t-9 -43.5q0 -27 11.5 -47t28.5 -33.5t37 -20t37 -6.5q19 0 39 7t36.5 20.5t26.5 33.5t10 45zM353 349q14 -7 34 -18.5t39 -31t32 -47.5t13 -68q0 -37 -15 -71.5t-42.5 -61.5t-68 -43.5t-91.5 -16.5t-92 17t-69 44.5t-43 62t-15 70.5q0 42 19 77.5t57 61.5q9 7 16.5 11
t27.5 14q-17 11 -35 24.5t-33.5 31.5t-25.5 42.5t-10 56.5q0 39 16 73.5t44 60.5t65.5 41t81.5 15q42 0 79 -15t64.5 -40.5t43.5 -60t16 -73.5q0 -36 -12.5 -62t-29.5 -45t-35.5 -30.5t-30.5 -18.5z" />
    <glyph glyph-name="nine.oldstyle" unicode="&#xf739;" horiz-adv-x="490" 
d="M355 181q4 23 4.5 34.5t0.5 16.5q0 26 -7.5 51t-22.5 44.5t-38 31.5t-54 12q-32 0 -53.5 -12t-35 -29.5t-19 -37.5t-5.5 -36q0 -27 10.5 -48.5t27.5 -36t38 -22t42 -7.5q16 0 44.5 6.5t67.5 32.5zM126 -165q62 38 102.5 79.5t60.5 70.5q24 34 32.5 57t15.5 48
q-34 -20 -62 -26.5t-53 -6.5q-42 0 -77 17t-59.5 45t-38.5 63.5t-14 72.5t14 73.5t40.5 65t65 46.5t87.5 18q41 0 80 -14t69.5 -43.5t49 -75.5t18.5 -109q0 -86 -29 -159t-71 -130t-89.5 -98t-84.5 -63z" />
    <glyph glyph-name="a.sc" unicode="&#xf761;" horiz-adv-x="481" 
d="M303 191l-67 166l-63 -166h130zM143 120l-51 -120h-86l201 486h58l210 -486h-86l-54 120h-192z" />
    <glyph glyph-name="b.sc" unicode="&#xf762;" horiz-adv-x="408" 
d="M141 74h55q33 0 48 3t29 11q13 8 20.5 23.5t7.5 30.5q0 25 -12.5 38.5t-30 20t-35.5 7.5t-30 1h-52v-135zM141 279h34q14 0 29 3t28 11t21 21.5t8 35.5t-8.5 34t-21.5 17.5t-28 6.5t-28 1h-34v-130zM58 483h128q17 0 47.5 -3t57.5 -17q26 -14 41 -41.5t15 -59.5
q0 -26 -8 -44t-19.5 -30.5t-25 -20t-24.5 -12.5q19 -3 42.5 -10.5t44.5 -32.5q29 -34 29 -80q0 -35 -16.5 -63t-44.5 -42q-19 -10 -34.5 -15.5t-30.5 -8t-31.5 -3t-35.5 -0.5h-135v483z" />
    <glyph glyph-name="c.sc" unicode="&#xf763;" horiz-adv-x="505" 
d="M462 355q-14 8 -30.5 17.5t-37.5 18t-46 14t-54 5.5q-41 0 -72 -14.5t-52 -38.5t-32 -55t-11 -65q0 -47 17.5 -78.5t43 -50.5t55.5 -27t56 -8q30 0 56 7t48 16.5t38 20t26 16.5v-94q-42 -24 -84 -34.5t-90 -10.5q-65 0 -112.5 22.5t-79 58t-46.5 79.5t-15 86
q0 45 16 89.5t47.5 80t79 57.5t109.5 22q53 0 92.5 -12t77.5 -29v-93z" />
    <glyph glyph-name="d.sc" unicode="&#xf764;" horiz-adv-x="532" 
d="M142 78h74q9 0 24.5 0.5t33.5 3.5t36.5 9.5t34.5 18.5q17 13 29 30t19.5 36t10.5 37t3 32q0 34 -14.5 68.5t-43.5 58.5q-24 21 -55.5 27.5t-79.5 6.5h-72v-328zM58 483h162q62 0 105 -11.5t79 -40.5q42 -35 65.5 -84t23.5 -104q0 -40 -11 -72.5t-28.5 -58.5t-37.5 -44.5
t-38 -29.5q-20 -12 -42 -19.5t-44 -11.5t-43 -5.5t-38 -1.5h-153v483z" />
    <glyph glyph-name="e.sc" unicode="&#xf765;" horiz-adv-x="367" 
d="M142 281h185v-76h-185v-128h197v-77h-280v483h274v-77h-191v-125z" />
    <glyph glyph-name="f.sc" unicode="&#xf766;" horiz-adv-x="346" 
d="M142 294h176v-77h-176v-217h-83v483h259v-77h-176v-112z" />
    <glyph glyph-name="g.sc" unicode="&#xf767;" horiz-adv-x="526" 
d="M473 35q-25 -11 -69 -26t-106 -15q-68 0 -116 22.5t-79.5 58t-46 78.5t-14.5 85q0 48 17 93t50 80.5t80 56.5t107 21q51 0 90.5 -13t77.5 -30v-89q-10 6 -26.5 15.5t-38.5 18t-48 15t-56 6.5q-32 0 -62 -11.5t-53 -33.5t-37.5 -54t-14.5 -72q0 -42 14 -74t38 -53.5
t55 -32.5t65 -11q10 0 19.5 1t20 3t22.5 5.5t28 8.5v82h-87v76h170v-211z" />
    <glyph glyph-name="h.sc" unicode="&#xf768;" horiz-adv-x="518" 
d="M460 0h-83v204h-236v-204h-83v483h83v-203h236v203h83v-483z" />
    <glyph glyph-name="i.sc" unicode="&#xf769;" horiz-adv-x="201" 
d="M142 0h-83v483h83v-483z" />
    <glyph glyph-name="j.sc" unicode="&#xf76a;" horiz-adv-x="201" 
d="M142 15q0 -29 -3 -58.5t-17 -54.5q-17 -31 -43.5 -45.5t-55.5 -14.5q-14 0 -25.5 2t-19.5 4l-13 80q11 -2 22.5 -3.5t19.5 -1.5q19 0 29.5 7t15.5 20t6 31.5t1 41.5v460h83v-468z" />
    <glyph glyph-name="k.sc" unicode="&#xf76b;" horiz-adv-x="470" 
d="M226 259l248 -259h-115l-217 223v-223h-83v483h83v-204l177 204h105z" />
    <glyph glyph-name="l.sc" unicode="&#xf76c;" horiz-adv-x="360" 
d="M141 77h204v-77h-287v483h83v-406z" />
    <glyph glyph-name="m.sc" unicode="&#xf76d;" horiz-adv-x="590" 
d="M295 268l170 215h68v-483h-83v330l-146 -183h-18l-146 183v-330h-83v483h68z" />
    <glyph glyph-name="n.sc" unicode="&#xf76e;" horiz-adv-x="550" 
d="M494 0h-73l-281 342v-342h-84v483h70l285 -345v345h83v-483z" />
    <glyph glyph-name="o.sc" unicode="&#xf76f;" horiz-adv-x="581" 
d="M127 240q0 -39 13.5 -70t36 -52.5t52 -33t61.5 -11.5t62 11.5t52.5 33.5t36 53.5t13.5 71.5q0 32 -11 62t-32 53.5t-51 37.5t-69 14q-41 0 -71.5 -15t-51 -39t-31 -54.5t-10.5 -61.5zM38 240q0 50 17.5 95t50 79.5t79 54.5t104.5 20t105 -20.5t80 -54.5t51 -78.5
t18 -93.5q0 -52 -18.5 -97t-52.5 -78.5t-81 -53t-105 -19.5q-54 0 -99.5 19t-78.5 52.5t-51.5 78.5t-18.5 96z" />
    <glyph glyph-name="p.sc" unicode="&#xf770;" horiz-adv-x="375" 
d="M140 409v-133h48q13 0 28 1t28 7.5t22 20.5t9 39q0 24 -9 37.5t-22.5 19.5t-30 7t-30.5 1h-43zM188 483q30 0 51.5 -3t37 -8t26 -12t18.5 -16q20 -21 29.5 -48.5t9.5 -53.5t-9.5 -54t-31.5 -46q-13 -11 -25.5 -18.5t-28 -12t-34.5 -7t-45 -2.5h-46v-202h-83v483h131z" />
    <glyph glyph-name="q.sc" unicode="&#xf771;" horiz-adv-x="581" 
d="M290 410q-41 0 -71.5 -14.5t-51 -38.5t-31 -54.5t-10.5 -61.5q0 -39 13.5 -70t36 -53t52 -33.5t62.5 -11.5q36 0 66 13t52 35.5t34.5 53t12.5 66.5q0 27 -9 57t-29 55t-51 41t-76 16zM462 -110q-37 8 -64.5 17t-51.5 22t-48 30t-54 41q-14 3 -31.5 8.5t-37 14.5
t-39.5 22.5t-39 34.5q-26 29 -42.5 70t-16.5 92t18 95.5t51 78.5t79.5 53.5t103.5 19.5q59 0 106 -20.5t79.5 -54.5t50 -78.5t17.5 -92.5q0 -47 -16 -90.5t-46 -77.5t-60 -49t-59 -26q10 -6 23.5 -13t32.5 -13t45 -11.5t62 -8.5z" />
    <glyph glyph-name="r.sc" unicode="&#xf772;" horiz-adv-x="435" 
d="M140 409v-142h28q22 0 40.5 2t31.5 13q5 5 14.5 18.5t9.5 38.5q0 23 -8 36.5t-22 21t-33 10t-40 2.5h-21zM170 483q18 0 48 -2.5t59 -16t50 -41t21 -78.5q0 -35 -9.5 -57.5t-22.5 -36t-27 -20t-22 -9.5q12 -11 21 -19.5t18 -19.5t19.5 -26t25.5 -39q21 -34 33.5 -54
t21 -32t14.5 -18.5t12 -13.5h-100q-19 36 -42 71t-44 66q-14 21 -34 40.5t-48 19.5h-24v-197h-84v483h114z" />
    <glyph glyph-name="s.sc" unicode="&#xf773;" horiz-adv-x="339" 
d="M291 368q-20 14 -47 29t-67 15q-32 0 -47.5 -14t-15.5 -32q0 -13 5 -23t17.5 -21t33 -24t52.5 -32q30 -18 47.5 -37.5t26.5 -38t11 -34.5t2 -27q0 -60 -38.5 -97.5t-101.5 -37.5q-35 0 -69 11t-63 31v102q11 -11 24 -23t28.5 -22t35 -16.5t43.5 -6.5t43 14.5t19 37.5
q0 13 -6 25t-14 21.5t-18 16.5t-17 12q-35 22 -61.5 39.5t-43.5 35t-25.5 37.5t-8.5 48q0 27 9.5 51t27.5 42t44.5 28.5t61.5 10.5q15 0 44.5 -4.5t67.5 -26.5v-90z" />
    <glyph glyph-name="t.sc" unicode="&#xf774;" horiz-adv-x="436" 
d="M416 410h-156v-410h-83v410h-157v73h396v-73z" />
    <glyph glyph-name="u.sc" unicode="&#xf775;" horiz-adv-x="505" 
d="M456 210q0 -66 -13.5 -102.5t-41.5 -61.5q-24 -22 -60 -37t-86 -15q-19 0 -40.5 3t-42.5 9.5t-39.5 16.5t-32.5 25t-23.5 29.5t-15.5 33.5t-9 42.5t-3 56.5v273h83v-273q0 -44 5 -65.5t21 -37.5q34 -37 94 -37q6 0 18 1t25.5 4.5t27.5 11t24 20.5q8 10 13 19.5t8 21
t4 26.5t1 36v273h83v-273z" />
    <glyph glyph-name="v.sc" unicode="&#xf776;" horiz-adv-x="437" 
d="M4 483h91l123 -307l124 307h90l-200 -486h-26z" />
    <glyph glyph-name="w.sc" unicode="&#xf777;" horiz-adv-x="742" 
d="M371 347l-136 -350h-27l-201 486h93l119 -287l119 287h67l118 -287l119 287h93l-201 -486h-27z" />
    <glyph glyph-name="x.sc" unicode="&#xf778;" horiz-adv-x="510" 
d="M19 483h103l132 -168l133 168h102l-183 -234l196 -249h-103l-144 183l-144 -183h-103l195 249z" />
    <glyph glyph-name="y.sc" unicode="&#xf779;" horiz-adv-x="446" 
d="M265 217v-217h-85v217l-175 266h98l120 -185l120 185h98z" />
    <glyph glyph-name="z.sc" unicode="&#xf77a;" horiz-adv-x="470" 
d="M169 76h278v-76h-435l287 407h-261v76h417z" />
    <glyph glyph-name="agrave.sc" unicode="&#xf7e0;" horiz-adv-x="481" 
d="M317 537h-52l-164 150h143zM303 191l-67 166l-63 -166h130zM143 120l-51 -120h-86l201 486h58l210 -486h-86l-54 120h-192z" />
    <glyph glyph-name="aacute.sc" unicode="&#xf7e1;" horiz-adv-x="481" 
d="M380 687l-164 -150h-52l73 150h143zM303 191l-67 166l-63 -166h130zM143 120l-51 -120h-86l201 486h58l210 -486h-86l-54 120h-192z" />
    <glyph glyph-name="acircumflex.sc" unicode="&#xf7e2;" horiz-adv-x="481" 
d="M344 537l-104 95l-105 -95h-61l94 157h142l96 -157h-62zM303 191l-67 166l-63 -166h130zM143 120l-51 -120h-86l201 486h58l210 -486h-86l-54 120h-192z" />
    <glyph glyph-name="atilde.sc" unicode="&#xf7e3;" horiz-adv-x="481" 
d="M77 537q3 33 13.5 56t24.5 37.5t30.5 21.5t32.5 7q10 0 19 -1.5t19 -5.5t23 -10t31 -15q13 -6 26.5 -12t23.5 -6q11 0 20.5 12.5t12.5 35.5h52q-2 -25 -9.5 -46.5t-20 -38t-29.5 -26t-37 -9.5q-9 0 -16.5 1t-18 4.5t-25.5 10t-39 17.5q-19 8 -28 12t-19 4q-17 0 -23 -15
t-11 -34h-52zM303 191l-67 166l-63 -166h130zM143 120l-51 -120h-86l201 486h58l210 -486h-86l-54 120h-192z" />
    <glyph glyph-name="adieresis.sc" unicode="&#xf7e4;" horiz-adv-x="481" 
d="M137 553q-22 0 -37.5 15.5t-15.5 37.5t15.5 37.5t37.5 15.5t37.5 -15.5t15.5 -37.5t-15.5 -37.5t-37.5 -15.5zM344 553q-22 0 -37.5 15.5t-15.5 37.5t15.5 37.5t37.5 15.5t37.5 -15.5t15.5 -37.5t-15.5 -37.5t-37.5 -15.5zM303 191l-67 166l-63 -166h130zM143 120
l-51 -120h-86l201 486h58l210 -486h-86l-54 120h-192z" />
    <glyph glyph-name="aring.sc" unicode="&#xf7e5;" horiz-adv-x="481" 
d="M241 572q23 0 39 16t16 39t-16 39t-39 16t-39 -16t-16 -39t16 -39t39 -16zM241 728q24 0 43 -9.5t31.5 -24t19.5 -32.5t7 -35q0 -20 -7 -38t-20 -32t-32 -22.5t-42 -8.5t-41.5 8.5t-32 22.5t-20.5 32t-7 38q0 21 8 39.5t21.5 32t32 21.5t39.5 8zM303 191l-67 166
l-63 -166h130zM143 120l-51 -120h-86l201 486h58l210 -486h-86l-54 120h-192z" />
    <glyph glyph-name="ae.sc" unicode="&#xf7e6;" horiz-adv-x="632" 
d="M325 206v200l-112 -200h112zM170 128l-66 -128h-98l278 483h309v-77h-185v-123h180v-77h-180v-129h193v-77h-276v128h-155z" />
    <glyph glyph-name="ccedilla.sc" unicode="&#xf7e7;" 
d="M308 -29q9 -2 21.5 -5.5t23.5 -12.5q14 -11 21 -26t7 -30q0 -4 -1.5 -13t-6.5 -19.5t-14 -22t-25 -19.5q-11 -6 -25.5 -9t-29.5 -4.5t-29 -1.5h-23q-15 0 -22 0.5t-15 1.5v58q3 0 11.5 0.5t18 0.5t17.5 0.5t11 0.5q5 1 12.5 2t14 4t11 8.5t4.5 13.5q0 12 -10 18t-23.5 9
t-26 3h-16.5l31 69q-25 5 -55 14t-65 39q-43 36 -65 85.5t-22 104.5q0 45 16 89.5t47.5 80t79 57.5t109.5 22q53 0 92 -12t77 -29v-93q-14 8 -30.5 17.5t-37.5 18t-46 14t-54 5.5q-41 0 -72 -14.5t-52 -38.5t-32 -55t-11 -65q0 -47 17.5 -78.5t43.5 -50.5t56 -27t56 -8
q30 0 56 7t47.5 16.5t37.5 20t26 16.5v-94q-18 -11 -33.5 -18t-31.5 -11.5t-35 -8t-45 -6.5z" />
    <glyph glyph-name="egrave.sc" unicode="&#xf7e8;" horiz-adv-x="367" 
d="M260 537h-52l-164 150h143zM142 281h185v-76h-185v-128h197v-77h-280v483h274v-77h-191v-125z" />
    <glyph glyph-name="eacute.sc" unicode="&#xf7e9;" horiz-adv-x="367" 
d="M323 687l-164 -150h-52l73 150h143zM142 281h185v-76h-185v-128h197v-77h-280v483h274v-77h-191v-125z" />
    <glyph glyph-name="ecircumflex.sc" unicode="&#xf7ea;" horiz-adv-x="367" 
d="M287 537l-104 95l-105 -95h-61l94 157h142l96 -157h-62zM142 281h185v-76h-185v-128h197v-77h-280v483h274v-77h-191v-125z" />
    <glyph glyph-name="edieresis.sc" unicode="&#xf7eb;" horiz-adv-x="367" 
d="M80 553q-22 0 -37.5 15.5t-15.5 37.5t15.5 37.5t37.5 15.5t37.5 -15.5t15.5 -37.5t-15.5 -37.5t-37.5 -15.5zM287 553q-22 0 -37.5 15.5t-15.5 37.5t15.5 37.5t37.5 15.5t37.5 -15.5t15.5 -37.5t-15.5 -37.5t-37.5 -15.5zM142 281h185v-76h-185v-128h197v-77h-280v483
h274v-77h-191v-125z" />
    <glyph glyph-name="igrave.sc" unicode="&#xf7ec;" horiz-adv-x="201" 
d="M177 537h-52l-164 150h143zM142 0h-83v483h83v-483z" />
    <glyph glyph-name="iacute.sc" unicode="&#xf7ed;" horiz-adv-x="201" 
d="M240 687l-164 -150h-52l73 150h143zM142 0h-83v483h83v-483z" />
    <glyph glyph-name="icircumflex.sc" unicode="&#xf7ee;" horiz-adv-x="201" 
d="M204 537l-104 95l-105 -95h-61l94 157h142l96 -157h-62zM142 0h-83v483h83v-483z" />
    <glyph glyph-name="idieresis.sc" unicode="&#xf7ef;" horiz-adv-x="201" 
d="M-3 553q-22 0 -37.5 15.5t-15.5 37.5t15.5 37.5t37.5 15.5t37.5 -15.5t15.5 -37.5t-15.5 -37.5t-37.5 -15.5zM204 553q-22 0 -37.5 15.5t-15.5 37.5t15.5 37.5t37.5 15.5t37.5 -15.5t15.5 -37.5t-15.5 -37.5t-37.5 -15.5zM142 0h-83v483h83v-483z" />
    <glyph glyph-name="eth.sc" unicode="&#xf7f0;" horiz-adv-x="531" 
d="M141 209v-131h74q9 0 25 0.5t34 3.5t36.5 9.5t34.5 18.5q17 13 29 30t19.5 36t10.5 37t3 32q0 34 -15 68.5t-43 58.5q-25 21 -56 27.5t-80 6.5h-72v-130h127v-67h-127zM0 209v67h58v207h162q61 0 104.5 -11.5t79.5 -40.5q42 -34 65 -83.5t23 -104.5q0 -40 -11 -73
t-28 -58.5t-37 -44t-38 -29.5q-20 -12 -42 -19.5t-44.5 -11.5t-43.5 -5.5t-38 -1.5h-152v209h-58z" />
    <glyph glyph-name="ntilde.sc" unicode="&#xf7f1;" horiz-adv-x="550" 
d="M112 537q3 33 13.5 56t24.5 37.5t30.5 21.5t32.5 7q10 0 19 -1.5t19 -5.5t23 -10t31 -15q13 -6 26.5 -12t23.5 -6q11 0 20.5 12.5t12.5 35.5h52q-2 -25 -9.5 -46.5t-20 -38t-29.5 -26t-37 -9.5q-9 0 -16.5 1t-18 4.5t-25.5 10t-39 17.5q-19 8 -28 12t-19 4q-17 0 -23 -15
t-11 -34h-52zM494 0h-73l-281 342v-342h-84v483h70l285 -345v345h83v-483z" />
    <glyph glyph-name="ograve.sc" unicode="&#xf7f2;" horiz-adv-x="581" 
d="M367 537h-52l-164 150h143zM127 240q0 -39 13.5 -70t36 -52.5t52 -33t61.5 -11.5t62 11.5t52.5 33.5t36 53.5t13.5 71.5q0 32 -11 62t-32 53.5t-51 37.5t-69 14q-41 0 -71.5 -15t-51 -39t-31 -54.5t-10.5 -61.5zM38 240q0 50 17.5 95t50 79.5t79 54.5t104.5 20t105 -20.5
t80 -54.5t51 -78.5t18 -93.5q0 -52 -18.5 -97t-52.5 -78.5t-81 -53t-105 -19.5q-54 0 -99.5 19t-78.5 52.5t-51.5 78.5t-18.5 96z" />
    <glyph glyph-name="oacute.sc" unicode="&#xf7f3;" horiz-adv-x="581" 
d="M430 687l-164 -150h-52l73 150h143zM127 240q0 -39 13.5 -70t36 -52.5t52 -33t61.5 -11.5t62 11.5t52.5 33.5t36 53.5t13.5 71.5q0 32 -11 62t-32 53.5t-51 37.5t-69 14q-41 0 -71.5 -15t-51 -39t-31 -54.5t-10.5 -61.5zM38 240q0 50 17.5 95t50 79.5t79 54.5t104.5 20
t105 -20.5t80 -54.5t51 -78.5t18 -93.5q0 -52 -18.5 -97t-52.5 -78.5t-81 -53t-105 -19.5q-54 0 -99.5 19t-78.5 52.5t-51.5 78.5t-18.5 96z" />
    <glyph glyph-name="ocircumflex.sc" unicode="&#xf7f4;" horiz-adv-x="581" 
d="M394 537l-104 95l-105 -95h-61l94 157h142l96 -157h-62zM127 240q0 -39 13.5 -70t36 -52.5t52 -33t61.5 -11.5t62 11.5t52.5 33.5t36 53.5t13.5 71.5q0 32 -11 62t-32 53.5t-51 37.5t-69 14q-41 0 -71.5 -15t-51 -39t-31 -54.5t-10.5 -61.5zM38 240q0 50 17.5 95t50 79.5
t79 54.5t104.5 20t105 -20.5t80 -54.5t51 -78.5t18 -93.5q0 -52 -18.5 -97t-52.5 -78.5t-81 -53t-105 -19.5q-54 0 -99.5 19t-78.5 52.5t-51.5 78.5t-18.5 96z" />
    <glyph glyph-name="otilde.sc" unicode="&#xf7f5;" horiz-adv-x="581" 
d="M127 537q3 33 13.5 56t24.5 37.5t30.5 21.5t32.5 7q10 0 19 -1.5t19 -5.5t23 -10t31 -15q13 -6 26.5 -12t23.5 -6q11 0 20.5 12.5t12.5 35.5h52q-2 -25 -9.5 -46.5t-20 -38t-29.5 -26t-37 -9.5q-9 0 -16.5 1t-18 4.5t-25.5 10t-39 17.5q-19 8 -28 12t-19 4q-17 0 -23 -15
t-11 -34h-52zM127 240q0 -39 13.5 -70t36 -52.5t52 -33t61.5 -11.5t62 11.5t52.5 33.5t36 53.5t13.5 71.5q0 32 -11 62t-32 53.5t-51 37.5t-69 14q-41 0 -71.5 -15t-51 -39t-31 -54.5t-10.5 -61.5zM38 240q0 50 17.5 95t50 79.5t79 54.5t104.5 20t105 -20.5t80 -54.5
t51 -78.5t18 -93.5q0 -52 -18.5 -97t-52.5 -78.5t-81 -53t-105 -19.5q-54 0 -99.5 19t-78.5 52.5t-51.5 78.5t-18.5 96z" />
    <glyph glyph-name="odieresis.sc" unicode="&#xf7f6;" horiz-adv-x="581" 
d="M187 553q-22 0 -37.5 15.5t-15.5 37.5t15.5 37.5t37.5 15.5t37.5 -15.5t15.5 -37.5t-15.5 -37.5t-37.5 -15.5zM394 553q-22 0 -37.5 15.5t-15.5 37.5t15.5 37.5t37.5 15.5t37.5 -15.5t15.5 -37.5t-15.5 -37.5t-37.5 -15.5zM127 240q0 -39 13.5 -70t36 -52.5t52 -33
t61.5 -11.5t62 11.5t52.5 33.5t36 53.5t13.5 71.5q0 32 -11 62t-32 53.5t-51 37.5t-69 14q-41 0 -71.5 -15t-51 -39t-31 -54.5t-10.5 -61.5zM38 240q0 50 17.5 95t50 79.5t79 54.5t104.5 20t105 -20.5t80 -54.5t51 -78.5t18 -93.5q0 -52 -18.5 -97t-52.5 -78.5t-81 -53
t-105 -19.5q-54 0 -99.5 19t-78.5 52.5t-51.5 78.5t-18.5 96z" />
    <glyph glyph-name="oslash.sc" unicode="&#xf7f8;" horiz-adv-x="583" 
d="M212 93q18 -9 38.5 -14.5t40.5 -5.5q32 0 62 11.5t52.5 33.5t36 53.5t13.5 71.5q0 23 -6 48t-23 50zM387 381q-8 5 -31.5 17t-63.5 12q-42 0 -73 -15.5t-51.5 -40t-30 -55t-9.5 -59.5q0 -26 9.5 -57t29.5 -55zM473 481h75l-65 -75q61 -71 61 -164q0 -52 -18.5 -97
t-52.5 -78.5t-81 -53t-105 -19.5q-35 0 -68 8t-63 27l-31 -35h-75l61 70q-72 73 -72 176q0 49 17.5 94.5t50 79.5t79 54.5t104.5 20.5q33 0 58.5 -5.5t44 -13t30.5 -15t18 -11.5z" />
    <glyph glyph-name="ugrave.sc" unicode="&#xf7f9;" horiz-adv-x="505" 
d="M329 537h-52l-164 150h143zM456 210q0 -66 -13.5 -102.5t-41.5 -61.5q-24 -22 -60 -37t-86 -15q-19 0 -40.5 3t-42.5 9.5t-39.5 16.5t-32.5 25t-23.5 29.5t-15.5 33.5t-9 42.5t-3 56.5v273h83v-273q0 -44 5 -65.5t21 -37.5q34 -37 94 -37q6 0 18 1t25.5 4.5t27.5 11
t24 20.5q8 10 13 19.5t8 21t4 26.5t1 36v273h83v-273z" />
    <glyph glyph-name="uacute.sc" unicode="&#xf7fa;" horiz-adv-x="505" 
d="M392 687l-164 -150h-52l73 150h143zM456 210q0 -66 -13.5 -102.5t-41.5 -61.5q-24 -22 -60 -37t-86 -15q-19 0 -40.5 3t-42.5 9.5t-39.5 16.5t-32.5 25t-23.5 29.5t-15.5 33.5t-9 42.5t-3 56.5v273h83v-273q0 -44 5 -65.5t21 -37.5q34 -37 94 -37q6 0 18 1t25.5 4.5
t27.5 11t24 20.5q8 10 13 19.5t8 21t4 26.5t1 36v273h83v-273z" />
    <glyph glyph-name="ucircumflex.sc" unicode="&#xf7fb;" horiz-adv-x="505" 
d="M356 537l-104 95l-105 -95h-61l94 157h142l96 -157h-62zM456 210q0 -66 -13.5 -102.5t-41.5 -61.5q-24 -22 -60 -37t-86 -15q-19 0 -40.5 3t-42.5 9.5t-39.5 16.5t-32.5 25t-23.5 29.5t-15.5 33.5t-9 42.5t-3 56.5v273h83v-273q0 -44 5 -65.5t21 -37.5q34 -37 94 -37
q6 0 18 1t25.5 4.5t27.5 11t24 20.5q8 10 13 19.5t8 21t4 26.5t1 36v273h83v-273z" />
    <glyph glyph-name="udieresis.sc" unicode="&#xf7fc;" horiz-adv-x="505" 
d="M149 553q-22 0 -37.5 15.5t-15.5 37.5t15.5 37.5t37.5 15.5t37.5 -15.5t15.5 -37.5t-15.5 -37.5t-37.5 -15.5zM356 553q-22 0 -37.5 15.5t-15.5 37.5t15.5 37.5t37.5 15.5t37.5 -15.5t15.5 -37.5t-15.5 -37.5t-37.5 -15.5zM456 210q0 -66 -13.5 -102.5t-41.5 -61.5
q-24 -22 -60 -37t-86 -15q-19 0 -40.5 3t-42.5 9.5t-39.5 16.5t-32.5 25t-23.5 29.5t-15.5 33.5t-9 42.5t-3 56.5v273h83v-273q0 -44 5 -65.5t21 -37.5q34 -37 94 -37q6 0 18 1t25.5 4.5t27.5 11t24 20.5q8 10 13 19.5t8 21t4 26.5t1 36v273h83v-273z" />
    <glyph glyph-name="yacute.sc" unicode="&#xf7fd;" horiz-adv-x="446" 
d="M383 687l-164 -150h-52l73 150h143zM265 217v-217h-85v217l-175 266h98l120 -185l120 185h98z" />
    <glyph glyph-name="thorn.sc" unicode="&#xf7fe;" horiz-adv-x="375" 
d="M140 308v-133h48q13 0 28 1t28 7.5t22 20.5t9 39q0 24 -9 37.5t-22.5 19.5t-30 7t-30.5 1h-43zM140 483v-101h48q30 0 51.5 -3t37 -8t26 -12t18.5 -16q21 -22 30 -49t9 -53t-9.5 -54.5t-31.5 -45.5q-13 -11 -25.5 -18.5t-28 -12t-34.5 -7t-45 -2.5h-46v-101h-83v483h83z
" />
    <glyph glyph-name="ydieresis.sc" unicode="&#xf7ff;" horiz-adv-x="446" 
d="M120 553q-22 0 -37.5 15.5t-15.5 37.5t15.5 37.5t37.5 15.5t37.5 -15.5t15.5 -37.5t-15.5 -37.5t-37.5 -15.5zM327 553q-22 0 -37.5 15.5t-15.5 37.5t15.5 37.5t37.5 15.5t37.5 -15.5t15.5 -37.5t-15.5 -37.5t-37.5 -15.5zM265 217v-217h-85v217l-175 266h98l120 -185
l120 185h98z" />
    <glyph glyph-name="f_f" unicode="&#xfb00;" horiz-adv-x="524" 
d="M498 372h-69v-372h-88v372h-179v-372h-90v372h-63v77h63v20q0 44 3.5 78.5t26.5 70.5q22 36 59 54.5t79 18.5q23 0 34.5 -2.5t21.5 -6.5v-82q-9 2 -19.5 3.5t-25.5 1.5q-33 0 -51.5 -11.5t-26.5 -31t-9.5 -44t-1.5 -49.5v-20h179v56q0 35 10 68.5t30 59.5t51.5 42
t74.5 16q21 0 33.5 -2.5t23.5 -6.5v-82q-14 2 -26.5 3.5t-26.5 1.5q-20 0 -40 -9.5t-32 -35.5q-7 -14 -8.5 -35t-1.5 -56v-20h69v-77z" />
    <glyph glyph-name="fi" unicode="&#xfb01;" 
d="M433 0h-84v449h84v-449zM269 374h-100v-374h-89v374h-67v75h67q-2 54 8.5 98.5t33.5 76.5t60 49.5t88 17.5q42 0 72.5 -12t50.5 -32t29.5 -45.5t10.5 -53.5h-84q-3 7 -8 18.5t-14 21.5t-23.5 17.5t-36.5 7.5q-36 0 -56 -16.5t-29.5 -41t-11.5 -53.5t-1 -53h100v-75z" />
    <glyph glyph-name="fl" unicode="&#xfb02;" 
d="M437 0h-90v682h90v-682zM267 374h-102v-374h-87v374h-69v75h69v22q0 48 7 84t24 61q18 28 38 43t38.5 22t33.5 8.5t24 1.5q23 0 36.5 -3t23.5 -6v-81q-8 2 -17 4.5t-23 2.5q-23 0 -47 -10t-37 -33q-11 -19 -12.5 -44.5t-1.5 -49.5v-22h102v-75z" />
    <glyph glyph-name="f_f_i" unicode="&#xfb03;" horiz-adv-x="760" 
d="M697 0h-88v449h88v-449zM527 374h-101v-374h-89v374h-181v-374h-88v374h-64v75h64v25q0 13 1 31t4 38t9 40t17 37q5 8 15.5 20t27 23.5t40 19.5t54.5 8q21 0 35.5 -3t24.5 -6v-82q-10 2 -21.5 3.5t-26.5 1.5q-35 0 -53.5 -12.5t-27 -32t-10 -42.5t-1.5 -44v-25h181
q0 14 1.5 37.5t7 50.5t17 54.5t32 49.5t52.5 36t79 14q48 0 80 -13.5t51 -34.5t27.5 -46.5t9.5 -48.5h-88q-3 10 -8 21t-14 20.5t-24 16t-37 6.5q-36 0 -55.5 -17t-29 -42t-11 -53.5t-1.5 -50.5h101v-75z" />
    <glyph glyph-name="f_f_l" unicode="&#xfb04;" horiz-adv-x="760" 
d="M532 372h-102v-372h-89v372h-179v-372h-89v372h-63v77h63v20q0 44 3.5 78.5t26.5 70.5q22 36 59 54.5t79 18.5q22 0 33.5 -2.5t21.5 -6.5v-82q-9 2 -19.5 3.5t-24.5 1.5q-34 0 -52 -11.5t-26.5 -31t-10 -44t-1.5 -49.5v-20h179v56q0 35 10 68.5t30.5 59.5t52 42t74.5 16
q21 0 33 -2.5t24 -6.5v-82q-14 2 -26.5 3.5t-26.5 1.5q-20 0 -40.5 -9.5t-32.5 -35.5q-6 -14 -7.5 -35t-1.5 -56v-20h102v-77zM697 0h-87v682h87v-682z" />
    <glyph glyph-name="one.alt" 
d="M238 0v523l-131 -105l-41 83l233 190h37v-691h-98z" />
    <glyph glyph-name="A.sc" horiz-adv-x="481" 
d="M303 191l-67 166l-63 -166h130zM143 120l-51 -120h-86l201 486h58l210 -486h-86l-54 120h-192z" />
    <glyph glyph-name="B.sc" horiz-adv-x="408" 
d="M141 74h55q33 0 48 3t29 11q13 8 20.5 23.5t7.5 30.5q0 25 -12.5 38.5t-30 20t-35.5 7.5t-30 1h-52v-135zM141 279h34q14 0 29 3t28 11t21 21.5t8 35.5t-8.5 34t-21.5 17.5t-28 6.5t-28 1h-34v-130zM58 483h128q17 0 47.5 -3t57.5 -17q26 -14 41 -41.5t15 -59.5
q0 -26 -8 -44t-19.5 -30.5t-25 -20t-24.5 -12.5q19 -3 42.5 -10.5t44.5 -32.5q29 -34 29 -80q0 -35 -16.5 -63t-44.5 -42q-19 -10 -34.5 -15.5t-30.5 -8t-31.5 -3t-35.5 -0.5h-135v483z" />
    <glyph glyph-name="C.sc" horiz-adv-x="505" 
d="M462 355q-14 8 -30.5 17.5t-37.5 18t-46 14t-54 5.5q-41 0 -72 -14.5t-52 -38.5t-32 -55t-11 -65q0 -47 17.5 -78.5t43 -50.5t55.5 -27t56 -8q30 0 56 7t48 16.5t38 20t26 16.5v-94q-42 -24 -84 -34.5t-90 -10.5q-65 0 -112.5 22.5t-79 58t-46.5 79.5t-15 86
q0 45 16 89.5t47.5 80t79 57.5t109.5 22q53 0 92.5 -12t77.5 -29v-93z" />
    <glyph glyph-name="D.sc" horiz-adv-x="532" 
d="M142 78h74q9 0 24.5 0.5t33.5 3.5t36.5 9.5t34.5 18.5q17 13 29 30t19.5 36t10.5 37t3 32q0 34 -14.5 68.5t-43.5 58.5q-24 21 -55.5 27.5t-79.5 6.5h-72v-328zM58 483h162q62 0 105 -11.5t79 -40.5q42 -35 65.5 -84t23.5 -104q0 -40 -11 -72.5t-28.5 -58.5t-37.5 -44.5
t-38 -29.5q-20 -12 -42 -19.5t-44 -11.5t-43 -5.5t-38 -1.5h-153v483z" />
    <glyph glyph-name="E.sc" horiz-adv-x="367" 
d="M142 281h185v-76h-185v-128h197v-77h-280v483h274v-77h-191v-125z" />
    <glyph glyph-name="F.sc" horiz-adv-x="346" 
d="M142 294h176v-77h-176v-217h-83v483h259v-77h-176v-112z" />
    <glyph glyph-name="G.sc" horiz-adv-x="526" 
d="M473 35q-25 -11 -69 -26t-106 -15q-68 0 -116 22.5t-79.5 58t-46 78.5t-14.5 85q0 48 17 93t50 80.5t80 56.5t107 21q51 0 90.5 -13t77.5 -30v-89q-10 6 -26.5 15.5t-38.5 18t-48 15t-56 6.5q-32 0 -62 -11.5t-53 -33.5t-37.5 -54t-14.5 -72q0 -42 14 -74t38 -53.5
t55 -32.5t65 -11q10 0 19.5 1t20 3t22.5 5.5t28 8.5v82h-87v76h170v-211z" />
    <glyph glyph-name="H.sc" horiz-adv-x="518" 
d="M460 0h-83v204h-236v-204h-83v483h83v-203h236v203h83v-483z" />
    <glyph glyph-name="I.sc" horiz-adv-x="201" 
d="M142 0h-83v483h83v-483z" />
    <glyph glyph-name="J.sc" horiz-adv-x="201" 
d="M142 15q0 -29 -3 -58.5t-17 -54.5q-17 -31 -43.5 -45.5t-55.5 -14.5q-14 0 -25.5 2t-19.5 4l-13 80q11 -2 22.5 -3.5t19.5 -1.5q19 0 29.5 7t15.5 20t6 31.5t1 41.5v460h83v-468z" />
    <glyph glyph-name="K.sc" horiz-adv-x="470" 
d="M226 259l248 -259h-115l-217 223v-223h-83v483h83v-204l177 204h105z" />
    <glyph glyph-name="L.sc" horiz-adv-x="360" 
d="M141 77h204v-77h-287v483h83v-406z" />
    <glyph glyph-name="M.sc" horiz-adv-x="590" 
d="M295 268l170 215h68v-483h-83v330l-146 -183h-18l-146 183v-330h-83v483h68z" />
    <glyph glyph-name="N.sc" horiz-adv-x="550" 
d="M494 0h-73l-281 342v-342h-84v483h70l285 -345v345h83v-483z" />
    <glyph glyph-name="O.sc" horiz-adv-x="581" 
d="M127 240q0 -39 13.5 -70t36 -52.5t52 -33t61.5 -11.5t62 11.5t52.5 33.5t36 53.5t13.5 71.5q0 32 -11 62t-32 53.5t-51 37.5t-69 14q-41 0 -71.5 -15t-51 -39t-31 -54.5t-10.5 -61.5zM38 240q0 50 17.5 95t50 79.5t79 54.5t104.5 20t105 -20.5t80 -54.5t51 -78.5
t18 -93.5q0 -52 -18.5 -97t-52.5 -78.5t-81 -53t-105 -19.5q-54 0 -99.5 19t-78.5 52.5t-51.5 78.5t-18.5 96z" />
    <glyph glyph-name="P.sc" horiz-adv-x="375" 
d="M140 409v-133h48q13 0 28 1t28 7.5t22 20.5t9 39q0 24 -9 37.5t-22.5 19.5t-30 7t-30.5 1h-43zM188 483q30 0 51.5 -3t37 -8t26 -12t18.5 -16q20 -21 29.5 -48.5t9.5 -53.5t-9.5 -54t-31.5 -46q-13 -11 -25.5 -18.5t-28 -12t-34.5 -7t-45 -2.5h-46v-202h-83v483h131z" />
    <glyph glyph-name="Q.sc" horiz-adv-x="581" 
d="M290 410q-41 0 -71.5 -14.5t-51 -38.5t-31 -54.5t-10.5 -61.5q0 -39 13.5 -70t36 -53t52 -33.5t62.5 -11.5q36 0 66 13t52 35.5t34.5 53t12.5 66.5q0 27 -9 57t-29 55t-51 41t-76 16zM462 -110q-37 8 -64.5 17t-51.5 22t-48 30t-54 41q-14 3 -31.5 8.5t-37 14.5
t-39.5 22.5t-39 34.5q-26 29 -42.5 70t-16.5 92t18 95.5t51 78.5t79.5 53.5t103.5 19.5q59 0 106 -20.5t79.5 -54.5t50 -78.5t17.5 -92.5q0 -47 -16 -90.5t-46 -77.5t-60 -49t-59 -26q10 -6 23.5 -13t32.5 -13t45 -11.5t62 -8.5z" />
    <glyph glyph-name="R.sc" horiz-adv-x="435" 
d="M140 409v-142h28q22 0 40.5 2t31.5 13q5 5 14.5 18.5t9.5 38.5q0 23 -8 36.5t-22 21t-33 10t-40 2.5h-21zM170 483q18 0 48 -2.5t59 -16t50 -41t21 -78.5q0 -35 -9.5 -57.5t-22.5 -36t-27 -20t-22 -9.5q12 -11 21 -19.5t18 -19.5t19.5 -26t25.5 -39q21 -34 33.5 -54
t21 -32t14.5 -18.5t12 -13.5h-100q-19 36 -42 71t-44 66q-14 21 -34 40.5t-48 19.5h-24v-197h-84v483h114z" />
    <glyph glyph-name="S.sc" horiz-adv-x="339" 
d="M291 368q-20 14 -47 29t-67 15q-32 0 -47.5 -14t-15.5 -32q0 -13 5 -23t17.5 -21t33 -24t52.5 -32q30 -18 47.5 -37.5t26.5 -38t11 -34.5t2 -27q0 -60 -38.5 -97.5t-101.5 -37.5q-35 0 -69 11t-63 31v102q11 -11 24 -23t28.5 -22t35 -16.5t43.5 -6.5t43 14.5t19 37.5
q0 13 -6 25t-14 21.5t-18 16.5t-17 12q-35 22 -61.5 39.5t-43.5 35t-25.5 37.5t-8.5 48q0 27 9.5 51t27.5 42t44.5 28.5t61.5 10.5q15 0 44.5 -4.5t67.5 -26.5v-90z" />
    <glyph glyph-name="T.sc" horiz-adv-x="436" 
d="M416 410h-156v-410h-83v410h-157v73h396v-73z" />
    <glyph glyph-name="U.sc" horiz-adv-x="505" 
d="M456 210q0 -66 -13.5 -102.5t-41.5 -61.5q-24 -22 -60 -37t-86 -15q-19 0 -40.5 3t-42.5 9.5t-39.5 16.5t-32.5 25t-23.5 29.5t-15.5 33.5t-9 42.5t-3 56.5v273h83v-273q0 -44 5 -65.5t21 -37.5q34 -37 94 -37q6 0 18 1t25.5 4.5t27.5 11t24 20.5q8 10 13 19.5t8 21
t4 26.5t1 36v273h83v-273z" />
    <glyph glyph-name="V.sc" horiz-adv-x="437" 
d="M4 483h91l123 -307l124 307h90l-200 -486h-26z" />
    <glyph glyph-name="W.sc" horiz-adv-x="742" 
d="M371 347l-136 -350h-27l-201 486h93l119 -287l119 287h67l118 -287l119 287h93l-201 -486h-27z" />
    <glyph glyph-name="X.sc" horiz-adv-x="510" 
d="M19 483h103l132 -168l133 168h102l-183 -234l196 -249h-103l-144 183l-144 -183h-103l195 249z" />
    <glyph glyph-name="Y.sc" horiz-adv-x="446" 
d="M265 217v-217h-85v217l-175 266h98l120 -185l120 185h98z" />
    <glyph glyph-name="Z.sc" horiz-adv-x="470" 
d="M169 76h278v-76h-435l287 407h-261v76h417z" />
    <glyph glyph-name="Lslash.sc" horiz-adv-x="365" 
d="M254 374l1 -74l-111 -99v-124h203v-77h-286v126l-59 -52v76l59 52v281h83v-207z" />
    <glyph glyph-name="Scaron.sc" horiz-adv-x="339" 
d="M242 537h-144l-93 158h61l104 -93l106 93h59zM291 368q-20 14 -47 29t-67 15q-32 0 -47.5 -14t-15.5 -32q0 -13 5 -23t17.5 -21t33 -24t52.5 -32q30 -18 47.5 -37.5t26.5 -38t11 -34.5t2 -27q0 -60 -38.5 -97.5t-101.5 -37.5q-35 0 -69 11t-63 31v102q11 -11 24 -23
t28.5 -22t35 -16.5t43.5 -6.5t43 14.5t19 37.5q0 13 -6 25t-14 21.5t-18 16.5t-17 12q-35 22 -61.5 39.5t-43.5 35t-25.5 37.5t-8.5 48q0 27 9.5 51t27.5 42t44.5 28.5t61.5 10.5q15 0 44.5 -4.5t67.5 -26.5v-90z" />
    <glyph glyph-name="Zcaron.sc" horiz-adv-x="470" 
d="M308 537h-144l-93 158h61l104 -93l106 93h59zM169 76h278v-76h-435l287 407h-261v76h417z" />
    <glyph glyph-name="Agrave.sc" horiz-adv-x="481" 
d="M317 537h-52l-164 150h143zM303 191l-67 166l-63 -166h130zM143 120l-51 -120h-86l201 486h58l210 -486h-86l-54 120h-192z" />
    <glyph glyph-name="Aacute.sc" horiz-adv-x="481" 
d="M380 687l-164 -150h-52l73 150h143zM303 191l-67 166l-63 -166h130zM143 120l-51 -120h-86l201 486h58l210 -486h-86l-54 120h-192z" />
    <glyph glyph-name="Acircumflex.sc" horiz-adv-x="481" 
d="M344 537l-104 95l-105 -95h-61l94 157h142l96 -157h-62zM303 191l-67 166l-63 -166h130zM143 120l-51 -120h-86l201 486h58l210 -486h-86l-54 120h-192z" />
    <glyph glyph-name="Atilde.sc" horiz-adv-x="481" 
d="M77 537q3 33 13.5 56t24.5 37.5t30.5 21.5t32.5 7q10 0 19 -1.5t19 -5.5t23 -10t31 -15q13 -6 26.5 -12t23.5 -6q11 0 20.5 12.5t12.5 35.5h52q-2 -25 -9.5 -46.5t-20 -38t-29.5 -26t-37 -9.5q-9 0 -16.5 1t-18 4.5t-25.5 10t-39 17.5q-19 8 -28 12t-19 4q-17 0 -23 -15
t-11 -34h-52zM303 191l-67 166l-63 -166h130zM143 120l-51 -120h-86l201 486h58l210 -486h-86l-54 120h-192z" />
    <glyph glyph-name="Adieresis.sc" horiz-adv-x="481" 
d="M137 553q-22 0 -37.5 15.5t-15.5 37.5t15.5 37.5t37.5 15.5t37.5 -15.5t15.5 -37.5t-15.5 -37.5t-37.5 -15.5zM344 553q-22 0 -37.5 15.5t-15.5 37.5t15.5 37.5t37.5 15.5t37.5 -15.5t15.5 -37.5t-15.5 -37.5t-37.5 -15.5zM303 191l-67 166l-63 -166h130zM143 120
l-51 -120h-86l201 486h58l210 -486h-86l-54 120h-192z" />
    <glyph glyph-name="Aring.sc" horiz-adv-x="481" 
d="M241 572q23 0 39 16t16 39t-16 39t-39 16t-39 -16t-16 -39t16 -39t39 -16zM241 728q24 0 43 -9.5t31.5 -24t19.5 -32.5t7 -35q0 -20 -7 -38t-20 -32t-32 -22.5t-42 -8.5t-41.5 8.5t-32 22.5t-20.5 32t-7 38q0 21 8 39.5t21.5 32t32 21.5t39.5 8zM303 191l-67 166
l-63 -166h130zM143 120l-51 -120h-86l201 486h58l210 -486h-86l-54 120h-192z" />
    <glyph glyph-name="AE.sc" horiz-adv-x="632" 
d="M325 206v200l-112 -200h112zM170 128l-66 -128h-98l278 483h309v-77h-185v-123h180v-77h-180v-129h193v-77h-276v128h-155z" />
    <glyph glyph-name="Ccedilla.sc" 
d="M308 -29q9 -2 21.5 -5.5t23.5 -12.5q14 -11 21 -26t7 -30q0 -4 -1.5 -13t-6.5 -19.5t-14 -22t-25 -19.5q-11 -6 -25.5 -9t-29.5 -4.5t-29 -1.5h-23q-15 0 -22 0.5t-15 1.5v58q3 0 11.5 0.5t18 0.5t17.5 0.5t11 0.5q5 1 12.5 2t14 4t11 8.5t4.5 13.5q0 12 -10 18t-23.5 9
t-26 3h-16.5l31 69q-25 5 -55 14t-65 39q-43 36 -65 85.5t-22 104.5q0 45 16 89.5t47.5 80t79 57.5t109.5 22q53 0 92 -12t77 -29v-93q-14 8 -30.5 17.5t-37.5 18t-46 14t-54 5.5q-41 0 -72 -14.5t-52 -38.5t-32 -55t-11 -65q0 -47 17.5 -78.5t43.5 -50.5t56 -27t56 -8
q30 0 56 7t47.5 16.5t37.5 20t26 16.5v-94q-18 -11 -33.5 -18t-31.5 -11.5t-35 -8t-45 -6.5z" />
    <glyph glyph-name="Egrave.sc" horiz-adv-x="367" 
d="M260 537h-52l-164 150h143zM142 281h185v-76h-185v-128h197v-77h-280v483h274v-77h-191v-125z" />
    <glyph glyph-name="Eacute.sc" horiz-adv-x="367" 
d="M323 687l-164 -150h-52l73 150h143zM142 281h185v-76h-185v-128h197v-77h-280v483h274v-77h-191v-125z" />
    <glyph glyph-name="Ecircumflex.sc" horiz-adv-x="367" 
d="M287 537l-104 95l-105 -95h-61l94 157h142l96 -157h-62zM142 281h185v-76h-185v-128h197v-77h-280v483h274v-77h-191v-125z" />
    <glyph glyph-name="Edieresis.sc" horiz-adv-x="367" 
d="M80 553q-22 0 -37.5 15.5t-15.5 37.5t15.5 37.5t37.5 15.5t37.5 -15.5t15.5 -37.5t-15.5 -37.5t-37.5 -15.5zM287 553q-22 0 -37.5 15.5t-15.5 37.5t15.5 37.5t37.5 15.5t37.5 -15.5t15.5 -37.5t-15.5 -37.5t-37.5 -15.5zM142 281h185v-76h-185v-128h197v-77h-280v483
h274v-77h-191v-125z" />
    <glyph glyph-name="Igrave.sc" horiz-adv-x="201" 
d="M177 537h-52l-164 150h143zM142 0h-83v483h83v-483z" />
    <glyph glyph-name="Iacute.sc" horiz-adv-x="201" 
d="M240 687l-164 -150h-52l73 150h143zM142 0h-83v483h83v-483z" />
    <glyph glyph-name="Icircumflex.sc" horiz-adv-x="201" 
d="M204 537l-104 95l-105 -95h-61l94 157h142l96 -157h-62zM142 0h-83v483h83v-483z" />
    <glyph glyph-name="Idieresis.sc" horiz-adv-x="201" 
d="M-3 553q-22 0 -37.5 15.5t-15.5 37.5t15.5 37.5t37.5 15.5t37.5 -15.5t15.5 -37.5t-15.5 -37.5t-37.5 -15.5zM204 553q-22 0 -37.5 15.5t-15.5 37.5t15.5 37.5t37.5 15.5t37.5 -15.5t15.5 -37.5t-15.5 -37.5t-37.5 -15.5zM142 0h-83v483h83v-483z" />
    <glyph glyph-name="Eth.sc" horiz-adv-x="531" 
d="M141 209v-131h74q9 0 25 0.5t34 3.5t36.5 9.5t34.5 18.5q17 13 29 30t19.5 36t10.5 37t3 32q0 34 -15 68.5t-43 58.5q-25 21 -56 27.5t-80 6.5h-72v-130h127v-67h-127zM0 209v67h58v207h162q61 0 104.5 -11.5t79.5 -40.5q42 -34 65 -83.5t23 -104.5q0 -40 -11 -73
t-28 -58.5t-37 -44t-38 -29.5q-20 -12 -42 -19.5t-44.5 -11.5t-43.5 -5.5t-38 -1.5h-152v209h-58z" />
    <glyph glyph-name="Ntilde.sc" horiz-adv-x="550" 
d="M112 537q3 33 13.5 56t24.5 37.5t30.5 21.5t32.5 7q10 0 19 -1.5t19 -5.5t23 -10t31 -15q13 -6 26.5 -12t23.5 -6q11 0 20.5 12.5t12.5 35.5h52q-2 -25 -9.5 -46.5t-20 -38t-29.5 -26t-37 -9.5q-9 0 -16.5 1t-18 4.5t-25.5 10t-39 17.5q-19 8 -28 12t-19 4q-17 0 -23 -15
t-11 -34h-52zM494 0h-73l-281 342v-342h-84v483h70l285 -345v345h83v-483z" />
    <glyph glyph-name="Ograve.sc" horiz-adv-x="581" 
d="M367 537h-52l-164 150h143zM127 240q0 -39 13.5 -70t36 -52.5t52 -33t61.5 -11.5t62 11.5t52.5 33.5t36 53.5t13.5 71.5q0 32 -11 62t-32 53.5t-51 37.5t-69 14q-41 0 -71.5 -15t-51 -39t-31 -54.5t-10.5 -61.5zM38 240q0 50 17.5 95t50 79.5t79 54.5t104.5 20t105 -20.5
t80 -54.5t51 -78.5t18 -93.5q0 -52 -18.5 -97t-52.5 -78.5t-81 -53t-105 -19.5q-54 0 -99.5 19t-78.5 52.5t-51.5 78.5t-18.5 96z" />
    <glyph glyph-name="Oacute.sc" horiz-adv-x="581" 
d="M430 687l-164 -150h-52l73 150h143zM127 240q0 -39 13.5 -70t36 -52.5t52 -33t61.5 -11.5t62 11.5t52.5 33.5t36 53.5t13.5 71.5q0 32 -11 62t-32 53.5t-51 37.5t-69 14q-41 0 -71.5 -15t-51 -39t-31 -54.5t-10.5 -61.5zM38 240q0 50 17.5 95t50 79.5t79 54.5t104.5 20
t105 -20.5t80 -54.5t51 -78.5t18 -93.5q0 -52 -18.5 -97t-52.5 -78.5t-81 -53t-105 -19.5q-54 0 -99.5 19t-78.5 52.5t-51.5 78.5t-18.5 96z" />
    <glyph glyph-name="Ocircumflex.sc" horiz-adv-x="581" 
d="M394 537l-104 95l-105 -95h-61l94 157h142l96 -157h-62zM127 240q0 -39 13.5 -70t36 -52.5t52 -33t61.5 -11.5t62 11.5t52.5 33.5t36 53.5t13.5 71.5q0 32 -11 62t-32 53.5t-51 37.5t-69 14q-41 0 -71.5 -15t-51 -39t-31 -54.5t-10.5 -61.5zM38 240q0 50 17.5 95t50 79.5
t79 54.5t104.5 20t105 -20.5t80 -54.5t51 -78.5t18 -93.5q0 -52 -18.5 -97t-52.5 -78.5t-81 -53t-105 -19.5q-54 0 -99.5 19t-78.5 52.5t-51.5 78.5t-18.5 96z" />
    <glyph glyph-name="Otilde.sc" horiz-adv-x="581" 
d="M127 537q3 33 13.5 56t24.5 37.5t30.5 21.5t32.5 7q10 0 19 -1.5t19 -5.5t23 -10t31 -15q13 -6 26.5 -12t23.5 -6q11 0 20.5 12.5t12.5 35.5h52q-2 -25 -9.5 -46.5t-20 -38t-29.5 -26t-37 -9.5q-9 0 -16.5 1t-18 4.5t-25.5 10t-39 17.5q-19 8 -28 12t-19 4q-17 0 -23 -15
t-11 -34h-52zM127 240q0 -39 13.5 -70t36 -52.5t52 -33t61.5 -11.5t62 11.5t52.5 33.5t36 53.5t13.5 71.5q0 32 -11 62t-32 53.5t-51 37.5t-69 14q-41 0 -71.5 -15t-51 -39t-31 -54.5t-10.5 -61.5zM38 240q0 50 17.5 95t50 79.5t79 54.5t104.5 20t105 -20.5t80 -54.5
t51 -78.5t18 -93.5q0 -52 -18.5 -97t-52.5 -78.5t-81 -53t-105 -19.5q-54 0 -99.5 19t-78.5 52.5t-51.5 78.5t-18.5 96z" />
    <glyph glyph-name="Odieresis.sc" horiz-adv-x="581" 
d="M187 553q-22 0 -37.5 15.5t-15.5 37.5t15.5 37.5t37.5 15.5t37.5 -15.5t15.5 -37.5t-15.5 -37.5t-37.5 -15.5zM394 553q-22 0 -37.5 15.5t-15.5 37.5t15.5 37.5t37.5 15.5t37.5 -15.5t15.5 -37.5t-15.5 -37.5t-37.5 -15.5zM127 240q0 -39 13.5 -70t36 -52.5t52 -33
t61.5 -11.5t62 11.5t52.5 33.5t36 53.5t13.5 71.5q0 32 -11 62t-32 53.5t-51 37.5t-69 14q-41 0 -71.5 -15t-51 -39t-31 -54.5t-10.5 -61.5zM38 240q0 50 17.5 95t50 79.5t79 54.5t104.5 20t105 -20.5t80 -54.5t51 -78.5t18 -93.5q0 -52 -18.5 -97t-52.5 -78.5t-81 -53
t-105 -19.5q-54 0 -99.5 19t-78.5 52.5t-51.5 78.5t-18.5 96z" />
    <glyph glyph-name="OE.sc" horiz-adv-x="643" 
d="M338 76v332h-27q-11 0 -27.5 -0.5t-35 -5t-38.5 -14t-37 -27.5q-20 -20 -33.5 -51t-13.5 -68q0 -18 6 -46t25.5 -55t54.5 -46t94 -19h32zM607 408h-185v-125h179v-77h-179v-130h193v-76h-288q-27 0 -54 2t-53 9t-51.5 20t-50.5 34q-28 25 -44 51t-23.5 49.5t-9 43
t-1.5 31.5q0 52 20.5 99.5t60.5 82.5q26 23 55.5 35.5t57.5 18t52.5 6.5t40.5 1h280v-75z" />
    <glyph glyph-name="Oslash.sc" horiz-adv-x="583" 
d="M212 93q18 -9 38.5 -14.5t40.5 -5.5q32 0 62 11.5t52.5 33.5t36 53.5t13.5 71.5q0 23 -6 48t-23 50zM387 381q-8 5 -31.5 17t-63.5 12q-42 0 -73 -15.5t-51.5 -40t-30 -55t-9.5 -59.5q0 -26 9.5 -57t29.5 -55zM473 481h75l-65 -75q61 -71 61 -164q0 -52 -18.5 -97
t-52.5 -78.5t-81 -53t-105 -19.5q-35 0 -68 8t-63 27l-31 -35h-75l61 70q-72 73 -72 176q0 49 17.5 94.5t50 79.5t79 54.5t104.5 20.5q33 0 58.5 -5.5t44 -13t30.5 -15t18 -11.5z" />
    <glyph glyph-name="Ugrave.sc" horiz-adv-x="505" 
d="M329 537h-52l-164 150h143zM456 210q0 -66 -13.5 -102.5t-41.5 -61.5q-24 -22 -60 -37t-86 -15q-19 0 -40.5 3t-42.5 9.5t-39.5 16.5t-32.5 25t-23.5 29.5t-15.5 33.5t-9 42.5t-3 56.5v273h83v-273q0 -44 5 -65.5t21 -37.5q34 -37 94 -37q6 0 18 1t25.5 4.5t27.5 11
t24 20.5q8 10 13 19.5t8 21t4 26.5t1 36v273h83v-273z" />
    <glyph glyph-name="Uacute.sc" horiz-adv-x="505" 
d="M392 687l-164 -150h-52l73 150h143zM456 210q0 -66 -13.5 -102.5t-41.5 -61.5q-24 -22 -60 -37t-86 -15q-19 0 -40.5 3t-42.5 9.5t-39.5 16.5t-32.5 25t-23.5 29.5t-15.5 33.5t-9 42.5t-3 56.5v273h83v-273q0 -44 5 -65.5t21 -37.5q34 -37 94 -37q6 0 18 1t25.5 4.5
t27.5 11t24 20.5q8 10 13 19.5t8 21t4 26.5t1 36v273h83v-273z" />
    <glyph glyph-name="Ucircumflex.sc" horiz-adv-x="505" 
d="M356 537l-104 95l-105 -95h-61l94 157h142l96 -157h-62zM456 210q0 -66 -13.5 -102.5t-41.5 -61.5q-24 -22 -60 -37t-86 -15q-19 0 -40.5 3t-42.5 9.5t-39.5 16.5t-32.5 25t-23.5 29.5t-15.5 33.5t-9 42.5t-3 56.5v273h83v-273q0 -44 5 -65.5t21 -37.5q34 -37 94 -37
q6 0 18 1t25.5 4.5t27.5 11t24 20.5q8 10 13 19.5t8 21t4 26.5t1 36v273h83v-273z" />
    <glyph glyph-name="Udieresis.sc" horiz-adv-x="505" 
d="M149 553q-22 0 -37.5 15.5t-15.5 37.5t15.5 37.5t37.5 15.5t37.5 -15.5t15.5 -37.5t-15.5 -37.5t-37.5 -15.5zM356 553q-22 0 -37.5 15.5t-15.5 37.5t15.5 37.5t37.5 15.5t37.5 -15.5t15.5 -37.5t-15.5 -37.5t-37.5 -15.5zM456 210q0 -66 -13.5 -102.5t-41.5 -61.5
q-24 -22 -60 -37t-86 -15q-19 0 -40.5 3t-42.5 9.5t-39.5 16.5t-32.5 25t-23.5 29.5t-15.5 33.5t-9 42.5t-3 56.5v273h83v-273q0 -44 5 -65.5t21 -37.5q34 -37 94 -37q6 0 18 1t25.5 4.5t27.5 11t24 20.5q8 10 13 19.5t8 21t4 26.5t1 36v273h83v-273z" />
    <glyph glyph-name="Yacute.sc" horiz-adv-x="446" 
d="M383 687l-164 -150h-52l73 150h143zM265 217v-217h-85v217l-175 266h98l120 -185l120 185h98z" />
    <glyph glyph-name="Thorn.sc" horiz-adv-x="375" 
d="M140 308v-133h48q13 0 28 1t28 7.5t22 20.5t9 39q0 24 -9 37.5t-22.5 19.5t-30 7t-30.5 1h-43zM140 483v-101h48q30 0 51.5 -3t37 -8t26 -12t18.5 -16q21 -22 30 -49t9 -53t-9.5 -54.5t-31.5 -45.5q-13 -11 -25.5 -18.5t-28 -12t-34.5 -7t-45 -2.5h-46v-101h-83v483h83z
" />
    <glyph glyph-name="Ydieresis.sc" horiz-adv-x="446" 
d="M120 553q-22 0 -37.5 15.5t-15.5 37.5t15.5 37.5t37.5 15.5t37.5 -15.5t15.5 -37.5t-15.5 -37.5t-37.5 -15.5zM327 553q-22 0 -37.5 15.5t-15.5 37.5t15.5 37.5t37.5 15.5t37.5 -15.5t15.5 -37.5t-15.5 -37.5t-37.5 -15.5zM265 217v-217h-85v217l-175 266h98l120 -185
l120 185h98z" />
    <glyph glyph-name="i.dot" horiz-adv-x="219" 
d="M154 0h-89v449h89v-449zM109 638q23 0 38 -15.5t15 -36.5t-15.5 -37t-37.5 -16q-26 0 -39 18t-13 35q0 19 14.5 35.5t37.5 16.5z" />
    <glyph glyph-name="dotlessi.sc" horiz-adv-x="201" 
d="M142 0h-83v483h83v-483z" />
    </font>
</defs>
</svg>
